<svg width="50" height="55" viewBox="0 0 50 55" fill="none" xmlns="http://www.w3.org/2000/svg">
<ellipse cx="25" cy="27.5713" rx="25" ry="27" fill="#F8F9F8"/>
<path d="M35.3474 16.9063L19.0662 14.0313C18.5439 13.9393 18.0064 14.0586 17.5721 14.3629C17.1377 14.6672 16.842 15.1315 16.7499 15.6538L13.0312 36.7788C12.9857 37.0375 12.9916 37.3028 13.0487 37.5593C13.1058 37.8158 13.2128 38.0585 13.3637 38.2736C13.5146 38.4887 13.7064 38.672 13.9282 38.8129C14.15 38.9538 14.3973 39.0497 14.6562 39.095L30.9374 41.97C31.1963 42.0157 31.4617 42.0098 31.7183 41.9529C31.9749 41.8959 32.2178 41.7889 32.4331 41.638C32.6483 41.487 32.8317 41.2952 32.9727 41.0733C33.1137 40.8514 33.2096 40.604 33.2549 40.345L36.9737 19.22C37.0648 18.6975 36.9446 18.1603 36.6397 17.7264C36.3347 17.2925 35.8699 16.9975 35.3474 16.9063ZM25.9374 28.445C25.8966 28.6763 25.7757 28.8859 25.5958 29.037C25.4159 29.1881 25.1886 29.271 24.9537 29.2713C24.895 29.2712 24.8365 29.2662 24.7787 29.2563L19.5912 28.34C19.3446 28.2794 19.1304 28.1272 18.9919 27.9144C18.8534 27.7017 18.801 27.4442 18.8454 27.1942C18.8898 26.9442 19.0275 26.7205 19.2308 26.5683C19.4341 26.4162 19.6876 26.3471 19.9399 26.375L25.1249 27.2863C25.2544 27.3089 25.3781 27.3568 25.4891 27.4274C25.6 27.4979 25.6959 27.5896 25.7714 27.6972C25.8469 27.8048 25.9004 27.9262 25.9289 28.0546C25.9573 28.1829 25.9602 28.3156 25.9374 28.445ZM31.8124 25.4225C31.7716 25.6536 31.6509 25.863 31.4713 26.0141C31.2916 26.1651 31.0646 26.2482 30.8299 26.2488C30.7708 26.2489 30.7118 26.2434 30.6537 26.2325L20.2787 24.4013C20.0174 24.355 19.7853 24.2069 19.6332 23.9894C19.4812 23.772 19.4218 23.5031 19.468 23.2419C19.5143 22.9806 19.6624 22.7485 19.8798 22.5964C20.0973 22.4444 20.3662 22.385 20.6274 22.4313L31.0024 24.2638C31.132 24.2863 31.2559 24.3341 31.367 24.4045C31.478 24.475 31.5741 24.5667 31.6497 24.6743C31.7253 24.7819 31.7789 24.9034 31.8075 25.0318C31.836 25.1602 31.839 25.293 31.8162 25.4225H31.8124ZM32.5062 21.4825C32.4654 21.7138 32.3444 21.9234 32.1645 22.0745C31.9846 22.2256 31.7573 22.3085 31.5224 22.3088C31.4638 22.3087 31.4052 22.3037 31.3474 22.2938L20.9724 20.4613C20.8401 20.4418 20.7131 20.396 20.5988 20.3265C20.4845 20.2571 20.3853 20.1654 20.307 20.057C20.2288 19.9485 20.1731 19.8255 20.1433 19.6951C20.1134 19.5648 20.11 19.4298 20.1332 19.2981C20.1565 19.1664 20.2059 19.0407 20.2786 18.9284C20.3513 18.8162 20.4457 18.7197 20.5564 18.6445C20.667 18.5694 20.7916 18.5173 20.9227 18.4912C21.0539 18.465 21.1889 18.4655 21.3199 18.4925L31.6949 20.3238C31.8246 20.3461 31.9486 20.3938 32.0598 20.4642C32.1711 20.5346 32.2673 20.6263 32.343 20.7339C32.4187 20.8416 32.4724 20.9631 32.5011 21.0916C32.5297 21.22 32.5327 21.3529 32.5099 21.4825H32.5062Z" fill="black"/>
</svg>
