<svg width="1512" height="299" viewBox="0 0 1512 299" fill="none" xmlns="http://www.w3.org/2000/svg">
<path d="M1677.5 52.8261C1615.9 92.6816 1567.27 123.889 1531.46 146.761C1483.5 177.395 1424.75 185.643 1370.07 169.856L1221 126.815L1077.64 90.8452C1027.51 78.2649 974.444 85.5863 929.585 111.274L859.604 151.348C749.057 214.651 618.517 233.373 494.634 203.69L-135 52.8261" stroke="white"/>
<path d="M1676.5 29.6407C1614.9 69.4963 1566.27 100.704 1530.46 123.576C1482.5 154.21 1423.75 162.457 1369.07 146.67L1220 103.629L1076.64 67.6599C1026.51 55.0796 973.444 62.401 928.585 88.0888L858.604 128.162C748.057 191.466 617.517 210.187 493.634 180.504L-136 29.6407" stroke="white"/>
<path d="M1570.5 0.999924C1508.9 40.8554 1460.27 72.063 1424.46 94.9347C1376.5 125.569 1317.75 133.816 1263.07 118.03L1114 74.9885L970.644 39.0191C920.506 26.4387 867.444 33.7602 822.585 59.448L752.604 99.5216C642.057 162.825 511.517 181.547 387.634 151.864L-242 0.999924" stroke="white" stroke-width="2"/>
<path d="M1607.5 12.5927C1545.9 52.4482 1497.27 83.6558 1461.46 106.527C1413.5 137.162 1354.75 145.409 1300.07 129.622L1151 86.5813L1007.64 50.6118C957.506 38.0315 904.444 45.3529 859.585 71.0407L789.604 111.114C679.057 174.418 548.517 193.139 424.634 163.456L-205 12.5927" stroke="white"/>
<path d="M1639.5 20.0938C1577.9 59.9493 1529.27 91.1569 1493.46 114.029C1445.5 144.663 1386.75 152.91 1332.07 137.123L1183 94.0824L1039.64 58.1129C989.506 45.5326 936.444 52.854 891.585 78.5418L821.604 118.615C711.057 181.919 580.517 200.64 456.634 170.958L-173 20.0938" stroke="white"/>
<path d="M1654.5 63.7369C1592.9 103.592 1544.27 134.8 1508.46 157.672C1460.5 188.306 1401.75 196.553 1347.07 180.767L1198 137.725L1054.64 101.756C1004.51 89.1757 951.444 96.4971 906.585 122.185L836.604 162.259C726.057 225.562 595.517 244.284 471.634 214.601L-158 63.7369" stroke="white"/>
<path d="M1633.5 77.3753C1571.9 117.231 1523.27 148.438 1487.46 171.31C1439.5 201.944 1380.75 210.192 1326.07 194.405L1177 151.364L1033.64 115.394C983.506 102.814 930.444 110.136 885.585 135.823L815.604 175.897C705.057 239.201 574.517 257.922 450.634 228.239L-179 77.3753" stroke="white"/>
<path d="M1607.5 89.6499C1545.9 129.505 1497.27 160.713 1461.46 183.585C1413.5 214.219 1354.75 222.466 1300.07 206.68L1151 163.638L1007.64 127.669C957.506 115.089 904.444 122.41 859.585 148.098L789.604 188.172C679.057 251.475 548.517 270.197 424.634 240.514L-205 89.6499" stroke="white"/>
<path d="M1700.5 39.1877C1638.9 79.0432 1590.27 110.251 1554.46 133.122C1506.5 163.757 1447.75 172.004 1393.07 156.217L1244 113.176L1100.64 77.2068C1050.51 64.6265 997.444 71.9479 952.585 97.6357L882.604 137.709C772.057 201.013 641.517 219.734 517.634 190.051L-112 39.1877" stroke="white"/>
<path d="M1587.5 101.924C1525.9 141.78 1477.27 172.988 1441.46 195.859C1393.5 226.493 1334.75 234.741 1280.07 218.954L1131 175.913L987.644 139.944C937.506 127.363 884.444 134.685 839.585 160.373L769.604 200.446C659.057 263.75 528.517 282.471 404.634 252.788L-225 101.924" stroke="white"/>
</svg>
