<svg width="1511" height="299" viewBox="0 0 1511 299" fill="none" xmlns="http://www.w3.org/2000/svg">
<path d="M1807.5 52.8261C1745.9 92.6816 1697.27 123.889 1661.46 146.761C1613.5 177.395 1554.75 185.643 1500.07 169.856L1351 126.815L1207.64 90.8452C1157.51 78.2649 1104.44 85.5863 1059.58 111.274L989.604 151.348C879.057 214.651 748.517 233.373 624.634 203.69L-5 52.8261" stroke="white"/>
<path d="M1806.5 29.6408C1744.9 69.4963 1696.27 100.704 1660.46 123.576C1612.5 154.21 1553.75 162.457 1499.07 146.67L1350 103.629L1206.64 67.6599C1156.51 55.0796 1103.44 62.401 1058.58 88.0888L988.604 128.162C878.057 191.466 747.517 210.187 623.634 180.505L-6 29.6408" stroke="white"/>
<path d="M1700.5 0.999924C1638.9 40.8554 1590.27 72.063 1554.46 94.9347C1506.5 125.569 1447.75 133.816 1393.07 118.03L1244 74.9885L1100.64 39.0191C1050.51 26.4387 997.444 33.7602 952.585 59.448L882.604 99.5216C772.057 162.825 641.517 181.547 517.634 151.864L-112 0.999924" stroke="white" stroke-width="2"/>
<path d="M1737.5 12.5927C1675.9 52.4482 1627.27 83.6558 1591.46 106.527C1543.5 137.162 1484.75 145.409 1430.07 129.622L1281 86.5813L1137.64 50.6118C1087.51 38.0315 1034.44 45.3529 989.585 71.0407L919.604 111.114C809.057 174.418 678.517 193.139 554.634 163.456L-75 12.5927" stroke="white"/>
<path d="M1769.5 20.0939C1707.9 59.9494 1659.27 91.157 1623.46 114.029C1575.5 144.663 1516.75 152.91 1462.07 137.124L1313 94.0825L1169.64 58.1131C1119.51 45.5327 1066.44 52.8542 1021.58 78.542L951.604 118.616C841.057 181.919 710.517 200.641 586.634 170.958L-43 20.0939" stroke="white"/>
<path d="M1784.5 63.7367C1722.9 103.592 1674.27 134.8 1638.46 157.672C1590.5 188.306 1531.75 196.553 1477.07 180.766L1328 137.725L1184.64 101.756C1134.51 89.1756 1081.44 96.497 1036.58 122.185L966.604 162.258C856.057 225.562 725.517 244.283 601.634 214.6L-28 63.7367" stroke="white"/>
<path d="M1763.5 77.3752C1701.9 117.231 1653.27 148.438 1617.46 171.31C1569.5 201.944 1510.75 210.192 1456.07 194.405L1307 151.364L1163.64 115.394C1113.51 102.814 1060.44 110.135 1015.58 135.823L945.604 175.897C835.057 239.2 704.517 257.922 580.634 228.239L-49 77.3752" stroke="white"/>
<path d="M1737.5 89.6498C1675.9 129.505 1627.27 160.713 1591.46 183.585C1543.5 214.219 1484.75 222.466 1430.07 206.68L1281 163.638L1137.64 127.669C1087.51 115.089 1034.44 122.41 989.585 148.098L919.604 188.171C809.057 251.475 678.517 270.197 554.634 240.514L-75 89.6498" stroke="white"/>
<path d="M1830.5 39.1877C1768.9 79.0432 1720.27 110.251 1684.46 133.122C1636.5 163.757 1577.75 172.004 1523.07 156.217L1374 113.176L1230.64 77.2068C1180.51 64.6265 1127.44 71.9479 1082.58 97.6357L1012.6 137.709C902.057 201.013 771.517 219.734 647.634 190.051L18 39.1877" stroke="white"/>
<path d="M1717.5 101.924C1655.9 141.78 1607.27 172.988 1571.46 195.859C1523.5 226.493 1464.75 234.741 1410.07 218.954L1261 175.913L1117.64 139.944C1067.51 127.363 1014.44 134.685 969.585 160.373L899.604 200.446C789.057 263.75 658.517 282.471 534.634 252.788L-95 101.924" stroke="white"/>
</svg>
