<svg width="20" height="20" viewBox="0 0 20 20" fill="none" xmlns="http://www.w3.org/2000/svg">
<path d="M8.33366 2.50008C8.22327 2.49858 8.11369 2.51903 8.01127 2.56023C7.90885 2.60144 7.81564 2.66258 7.73705 2.74011C7.65846 2.81765 7.59605 2.91002 7.55346 3.01187C7.51087 3.11372 7.48893 3.22301 7.48893 3.33341H3.33366C2.41283 3.33341 1.66699 4.07924 1.66699 5.00008V10.0001C1.66699 10.9192 2.41449 11.6667 3.33366 11.6667H16.667C17.5862 11.6667 18.3337 10.9192 18.3337 10.0001V5.00008C18.3337 4.07924 17.5878 3.33341 16.667 3.33341H12.5117C12.5117 3.22301 12.4898 3.11372 12.4472 3.01187C12.4046 2.91002 12.3422 2.81765 12.2636 2.74011C12.185 2.66258 12.0918 2.60144 11.9894 2.56023C11.887 2.51903 11.7774 2.49858 11.667 2.50008H8.33366ZM10.0003 8.33341C10.4603 8.33341 10.8337 8.70674 10.8337 9.16674C10.8337 9.62674 10.4603 10.0001 10.0003 10.0001C9.54033 10.0001 9.16699 9.62674 9.16699 9.16674C9.16699 8.70674 9.54033 8.33341 10.0003 8.33341ZM1.66699 12.8695V15.0001C1.66699 15.9209 2.41283 16.6667 3.33366 16.6667H16.667C17.5878 16.6667 18.3337 15.9209 18.3337 15.0001V12.8695C17.8412 13.1562 17.277 13.3334 16.667 13.3334H3.33366C2.72366 13.3334 2.15949 13.1562 1.66699 12.8695Z" fill="#999999"/>
</svg>
