<svg width="36" height="36" viewBox="0 0 36 36" fill="none" xmlns="http://www.w3.org/2000/svg">
<g clip-path="url(#clip0_1229_4253)">
<path d="M17.1334 3.73315L12.7343 8.13224C12.2554 8.61112 12.2554 9.38754 12.7343 9.86642L17.1334 14.2655C17.6122 14.7444 18.3887 14.7444 18.8675 14.2655L23.2666 9.86642C23.7455 9.38754 23.7455 8.61112 23.2666 8.13224L18.8675 3.73315C18.3887 3.25427 17.6122 3.25427 17.1334 3.73315Z" stroke="#77778C" stroke-width="3" stroke-linecap="round" stroke-linejoin="round"/>
<path d="M26.1334 12.7332L21.7343 17.1322C21.2554 17.6111 21.2554 18.3875 21.7343 18.8664L26.1334 23.2655C26.6122 23.7444 27.3887 23.7444 27.8675 23.2655L32.2666 18.8664C32.7455 18.3875 32.7455 17.6111 32.2666 17.1322L27.8675 12.7332C27.3887 12.2543 26.6122 12.2543 26.1334 12.7332Z" stroke="#77778C" stroke-width="3" stroke-linecap="round" stroke-linejoin="round"/>
<path d="M8.13337 12.7345L3.73428 17.1336C3.2554 17.6125 3.2554 18.3889 3.73428 18.8678L8.13336 23.2668C8.61224 23.7457 9.38866 23.7457 9.86754 23.2668L14.2666 18.8678C14.7455 18.3889 14.7455 17.6125 14.2666 17.1336L9.86754 12.7345C9.38866 12.2556 8.61225 12.2556 8.13337 12.7345Z" stroke="#77778C" stroke-width="3" stroke-linecap="round" stroke-linejoin="round"/>
<path d="M17.1334 21.7345L12.7343 26.1336C12.2554 26.6125 12.2554 27.3889 12.7343 27.8678L17.1334 32.2668C17.6122 32.7457 18.3887 32.7457 18.8675 32.2668L23.2666 27.8678C23.7455 27.3889 23.7455 26.6125 23.2666 26.1336L18.8675 21.7345C18.3887 21.2556 17.6122 21.2556 17.1334 21.7345Z" stroke="#77778C" stroke-width="3" stroke-linecap="round" stroke-linejoin="round"/>
</g>
<defs>
<clipPath id="clip0_1229_4253">
<rect width="36" height="36" fill="white"/>
</clipPath>
</defs>
</svg>
