<svg width="22" height="19" viewBox="0 0 22 19" fill="none" xmlns="http://www.w3.org/2000/svg">
<path d="M21.8869 14.5C21.9991 14.7302 22.0293 15.0037 21.9709 15.2603C21.9125 15.5169 21.7702 15.7355 21.5754 15.8681C21.479 15.9338 21.3725 15.9763 21.2622 15.9934C21.1518 16.0104 21.0397 16.0016 20.9322 15.9674C20.7151 15.8984 20.5301 15.7302 20.418 15.5L18.4086 11.35C17.2414 12.2832 15.9539 12.9865 14.5962 13.4325L15.2169 17.835C15.2353 17.9646 15.2318 18.0972 15.2067 18.2252C15.1817 18.3532 15.1355 18.4742 15.0709 18.5811C15.0062 18.688 14.9244 18.7788 14.8301 18.8483C14.7357 18.9179 14.6307 18.9647 14.5211 18.9862C14.476 18.995 14.4304 18.9996 14.3847 19C14.1845 18.9996 13.9909 18.9154 13.8384 18.7623C13.6858 18.6092 13.5841 18.3971 13.5513 18.1637L12.9411 13.8412C11.6543 14.0529 10.3488 14.0529 9.06202 13.8412L8.45182 18.1637C8.41899 18.3976 8.31697 18.61 8.16395 18.7631C8.01093 18.9163 7.81687 19.0002 7.61636 19C7.56959 18.9998 7.52291 18.9952 7.47676 18.9862C7.36709 18.9647 7.26209 18.9179 7.16775 18.8483C7.07342 18.7788 6.9916 18.688 6.92697 18.5811C6.86235 18.4742 6.81618 18.3532 6.79112 18.2252C6.76605 18.0972 6.76258 17.9646 6.7809 17.835L7.40485 13.4325C6.04657 12.9855 4.75866 12.2809 3.59134 11.3463L1.58834 15.5C1.47615 15.7311 1.2909 15.9 1.07333 15.9696C0.855764 16.0392 0.623709 16.0039 0.428215 15.8713C0.232722 15.7386 0.0898028 15.5197 0.0308993 15.2625C-0.0280042 15.0054 0.00193253 14.7311 0.114124 14.5L2.22922 10.125C1.48602 9.36669 0.80284 8.52989 0.188152 7.625C0.0664129 7.44704 0 7.22511 0 6.99625C0 6.76739 0.0664129 6.54546 0.188152 6.3675C2.17634 3.465 5.66518 0 11.0005 0C16.3358 0 19.8247 3.465 21.8107 6.375C21.9325 6.55296 21.9989 6.77489 21.9989 7.00375C21.9989 7.23261 21.9325 7.45454 21.8107 7.6325C21.1961 8.53739 20.5129 9.37419 19.7697 10.1325L21.8869 14.5Z" fill="#1D154A"/>
</svg>
