<svg width="281" height="93" viewBox="0 0 281 93" fill="none" xmlns="http://www.w3.org/2000/svg">
<g filter="url(#filter0_dd_1274_8894)">
<rect x="27" width="250" height="70" rx="35" fill="url(#paint0_linear_1274_8894)" shape-rendering="crispEdges"/>
<rect x="28" y="1" width="248" height="68" rx="34" stroke="#1AD3A7" stroke-width="2" shape-rendering="crispEdges"/>
</g>
<g filter="url(#filter1_dd_1274_8894)">
<rect x="4" y="15" width="250" height="70" rx="35" fill="url(#paint1_linear_1274_8894)" shape-rendering="crispEdges"/>
<rect x="5" y="16" width="248" height="68" rx="34" stroke="#ECCF35" stroke-width="2" shape-rendering="crispEdges"/>
</g>
<rect x="17.5" y="26.5" width="49" height="49" rx="24.5" fill="#ECCF35"/>
<rect x="17.5" y="26.5" width="49" height="49" rx="24.5" stroke="#ECCF35"/>
<mask id="mask0_1274_8894" style="mask-type:alpha" maskUnits="userSpaceOnUse" x="27" y="36" width="30" height="30">
<rect x="27" y="36" width="30" height="30" fill="white"/>
</mask>
<g mask="url(#mask0_1274_8894)">
<path d="M48.25 61V41C48.9375 41 49.526 41.2448 50.0156 41.7344C50.5052 42.224 50.75 42.8125 50.75 43.5V58.5C50.75 59.1875 50.5052 59.776 50.0156 60.2656C49.526 60.7552 48.9375 61 48.25 61ZM32 63.5C31.3125 63.5 30.724 63.2552 30.2344 62.7656C29.7448 62.276 29.5 61.6875 29.5 61V41C29.5 40.3125 29.7448 39.724 30.2344 39.2344C30.724 38.7448 31.3125 38.5 32 38.5H43.25C43.9375 38.5 44.526 38.7448 45.0156 39.2344C45.5052 39.724 45.75 40.3125 45.75 41V61C45.75 61.6875 45.5052 62.276 45.0156 62.7656C44.526 63.2552 43.9375 63.5 43.25 63.5H32ZM53.25 58.5V43.5C53.7708 43.5 54.2135 43.6823 54.5781 44.0469C54.9427 44.4115 55.125 44.8542 55.125 45.375V56.625C55.125 57.1458 54.9427 57.5885 54.5781 57.9531C54.2135 58.3177 53.7708 58.5 53.25 58.5ZM32 61H43.25V41H32V61Z" fill="white"/>
</g>
<circle cx="63" cy="66" r="5" fill="#FF5757"/>
<path d="M78.3601 39.3636H80.7408L83.5874 44.5114H83.701L86.5476 39.3636H88.9283L84.6953 46.6591V51H82.593V46.6591L78.3601 39.3636ZM92.5121 51.1705C91.6598 51.1705 90.9212 50.983 90.2962 50.608C89.6712 50.233 89.1863 49.7083 88.8416 49.0341C88.5007 48.3598 88.3303 47.572 88.3303 46.6705C88.3303 45.7689 88.5007 44.9792 88.8416 44.3011C89.1863 43.6231 89.6712 43.0966 90.2962 42.7216C90.9212 42.3466 91.6598 42.1591 92.5121 42.1591C93.3643 42.1591 94.103 42.3466 94.728 42.7216C95.353 43.0966 95.8359 43.6231 96.1768 44.3011C96.5215 44.9792 96.6939 45.7689 96.6939 46.6705C96.6939 47.572 96.5215 48.3598 96.1768 49.0341C95.8359 49.7083 95.353 50.233 94.728 50.608C94.103 50.983 93.3643 51.1705 92.5121 51.1705ZM92.5234 49.5227C92.9856 49.5227 93.3719 49.3958 93.6825 49.142C93.9931 48.8845 94.2242 48.5398 94.3757 48.108C94.531 47.6761 94.6087 47.1951 94.6087 46.6648C94.6087 46.1307 94.531 45.6477 94.3757 45.2159C94.2242 44.7803 93.9931 44.4337 93.6825 44.1761C93.3719 43.9186 92.9856 43.7898 92.5234 43.7898C92.05 43.7898 91.656 43.9186 91.3416 44.1761C91.031 44.4337 90.7981 44.7803 90.6428 45.2159C90.4912 45.6477 90.4155 46.1307 90.4155 46.6648C90.4155 47.1951 90.4912 47.6761 90.6428 48.108C90.7981 48.5398 91.031 48.8845 91.3416 49.142C91.656 49.3958 92.05 49.5227 92.5234 49.5227ZM104.002 47.3295V42.2727H106.059V51H104.065V49.4489H103.974C103.777 49.9375 103.453 50.3371 103.002 50.6477C102.555 50.9583 102.004 51.1136 101.349 51.1136C100.777 51.1136 100.271 50.9867 99.8317 50.733C99.3961 50.4754 99.0552 50.1023 98.8089 49.6136C98.5627 49.1212 98.4396 48.5265 98.4396 47.8295V42.2727H100.496V47.5114C100.496 48.0644 100.648 48.5038 100.951 48.8295C101.254 49.1553 101.652 49.3182 102.144 49.3182C102.447 49.3182 102.741 49.2443 103.025 49.0966C103.309 48.9489 103.542 48.7292 103.724 48.4375C103.909 48.142 104.002 47.7727 104.002 47.3295ZM110.153 39.3636V40.5227C110.153 40.8561 110.088 41.2027 109.96 41.5625C109.835 41.9186 109.662 42.2595 109.442 42.5852C109.223 42.9072 108.973 43.1837 108.692 43.4148L107.738 42.7955C107.946 42.4811 108.128 42.142 108.283 41.7784C108.439 41.411 108.516 40.9962 108.516 40.5341V39.3636H110.153ZM111.487 51V42.2727H113.481V43.7273H113.572C113.731 43.2235 114.004 42.8352 114.39 42.5625C114.78 42.286 115.225 42.1477 115.725 42.1477C115.839 42.1477 115.966 42.1534 116.106 42.1648C116.25 42.1723 116.369 42.1856 116.464 42.2045V44.0966C116.377 44.0663 116.238 44.0398 116.049 44.017C115.863 43.9905 115.683 43.9773 115.509 43.9773C115.134 43.9773 114.797 44.0587 114.498 44.2216C114.202 44.3807 113.969 44.6023 113.799 44.8864C113.629 45.1705 113.543 45.4981 113.543 45.8693V51H111.487ZM121.335 51.1705C120.46 51.1705 119.704 50.9886 119.067 50.625C118.435 50.2576 117.948 49.7386 117.607 49.0682C117.266 48.3939 117.096 47.6004 117.096 46.6875C117.096 45.7898 117.266 45.0019 117.607 44.3239C117.952 43.642 118.433 43.1117 119.05 42.733C119.668 42.3504 120.393 42.1591 121.227 42.1591C121.764 42.1591 122.272 42.2462 122.749 42.4205C123.23 42.5909 123.655 42.8561 124.022 43.2159C124.393 43.5758 124.685 44.0341 124.897 44.5909C125.109 45.1439 125.215 45.803 125.215 46.5682V47.1989H118.062V45.8125H123.244C123.24 45.4186 123.155 45.0682 122.988 44.7614C122.821 44.4508 122.588 44.2064 122.289 44.0284C121.994 43.8504 121.649 43.7614 121.255 43.7614C120.835 43.7614 120.465 43.8636 120.147 44.0682C119.829 44.2689 119.581 44.5341 119.403 44.8636C119.228 45.1894 119.139 45.5473 119.136 45.9375V47.1477C119.136 47.6553 119.228 48.0909 119.414 48.4545C119.6 48.8144 119.859 49.0909 120.192 49.2841C120.526 49.4735 120.916 49.5682 121.363 49.5682C121.662 49.5682 121.933 49.5265 122.175 49.4432C122.418 49.3561 122.628 49.2292 122.806 49.0625C122.984 48.8958 123.119 48.6894 123.21 48.4432L125.13 48.6591C125.009 49.1667 124.778 49.6098 124.437 49.9886C124.1 50.3636 123.668 50.6553 123.141 50.8636C122.615 51.0682 122.013 51.1705 121.335 51.1705ZM131.015 51V39.3636H133.123V44.2898H138.515V39.3636H140.629V51H138.515V46.0568H133.123V51H131.015ZM142.83 51V42.2727H144.887V51H142.83ZM143.864 41.0341C143.539 41.0341 143.258 40.9261 143.023 40.7102C142.789 40.4905 142.671 40.2273 142.671 39.9205C142.671 39.6098 142.789 39.3466 143.023 39.1307C143.258 38.911 143.539 38.8011 143.864 38.8011C144.194 38.8011 144.474 38.911 144.705 39.1307C144.94 39.3466 145.058 39.6098 145.058 39.9205C145.058 40.2273 144.94 40.4905 144.705 40.7102C144.474 40.9261 144.194 41.0341 143.864 41.0341ZM147.002 51V42.2727H148.996V43.7273H149.087C149.246 43.2235 149.519 42.8352 149.906 42.5625C150.296 42.286 150.741 42.1477 151.241 42.1477C151.354 42.1477 151.481 42.1534 151.621 42.1648C151.765 42.1723 151.885 42.1856 151.979 42.2045V44.0966C151.892 44.0663 151.754 44.0398 151.565 44.017C151.379 43.9905 151.199 43.9773 151.025 43.9773C150.65 43.9773 150.313 44.0587 150.013 44.2216C149.718 44.3807 149.485 44.6023 149.315 44.8864C149.144 45.1705 149.059 45.4981 149.059 45.8693V51H147.002ZM156.85 51.1705C155.975 51.1705 155.219 50.9886 154.583 50.625C153.951 50.2576 153.464 49.7386 153.123 49.0682C152.782 48.3939 152.612 47.6004 152.612 46.6875C152.612 45.7898 152.782 45.0019 153.123 44.3239C153.468 43.642 153.949 43.1117 154.566 42.733C155.183 42.3504 155.909 42.1591 156.742 42.1591C157.28 42.1591 157.788 42.2462 158.265 42.4205C158.746 42.5909 159.17 42.8561 159.538 43.2159C159.909 43.5758 160.201 44.0341 160.413 44.5909C160.625 45.1439 160.731 45.803 160.731 46.5682V47.1989H153.577V45.8125H158.759C158.755 45.4186 158.67 45.0682 158.504 44.7614C158.337 44.4508 158.104 44.2064 157.805 44.0284C157.509 43.8504 157.165 43.7614 156.771 43.7614C156.35 43.7614 155.981 43.8636 155.663 44.0682C155.344 44.2689 155.096 44.5341 154.918 44.8636C154.744 45.1894 154.655 45.5473 154.651 45.9375V47.1477C154.651 47.6553 154.744 48.0909 154.93 48.4545C155.115 48.8144 155.375 49.0909 155.708 49.2841C156.041 49.4735 156.432 49.5682 156.879 49.5682C157.178 49.5682 157.449 49.5265 157.691 49.4432C157.933 49.3561 158.144 49.2292 158.322 49.0625C158.5 48.8958 158.634 48.6894 158.725 48.4432L160.646 48.6591C160.524 49.1667 160.293 49.6098 159.952 49.9886C159.615 50.3636 159.183 50.6553 158.657 50.8636C158.13 51.0682 157.528 51.1705 156.85 51.1705ZM165.71 51.1534C165.024 51.1534 164.41 50.9773 163.869 50.625C163.327 50.2727 162.899 49.7614 162.585 49.0909C162.27 48.4205 162.113 47.6061 162.113 46.6477C162.113 45.678 162.272 44.8598 162.59 44.1932C162.912 43.5227 163.346 43.017 163.891 42.6761C164.437 42.3314 165.045 42.1591 165.715 42.1591C166.227 42.1591 166.647 42.2462 166.977 42.4205C167.306 42.5909 167.567 42.7973 167.761 43.0398C167.954 43.2784 168.103 43.5038 168.21 43.7159H168.295V39.3636H170.357V51H168.335V49.625H168.21C168.103 49.8371 167.95 50.0625 167.749 50.3011C167.549 50.536 167.283 50.7367 166.954 50.9034C166.624 51.0701 166.21 51.1534 165.71 51.1534ZM166.283 49.4659C166.719 49.4659 167.09 49.3485 167.397 49.1136C167.704 48.875 167.937 48.5436 168.096 48.1193C168.255 47.6951 168.335 47.2008 168.335 46.6364C168.335 46.072 168.255 45.5814 168.096 45.1648C167.941 44.7481 167.71 44.4242 167.403 44.1932C167.1 43.9621 166.727 43.8466 166.283 43.8466C165.825 43.8466 165.442 43.9659 165.136 44.2045C164.829 44.4432 164.598 44.7727 164.442 45.1932C164.287 45.6136 164.21 46.0947 164.21 46.6364C164.21 47.1818 164.287 47.6686 164.442 48.0966C164.602 48.5208 164.835 48.8561 165.141 49.1023C165.452 49.3447 165.833 49.4659 166.283 49.4659ZM178.575 45.8864V51H176.518V42.2727H178.484V43.7557H178.586C178.787 43.267 179.107 42.8788 179.546 42.5909C179.989 42.303 180.537 42.1591 181.188 42.1591C181.79 42.1591 182.315 42.2879 182.762 42.5455C183.213 42.803 183.561 43.1761 183.808 43.6648C184.058 44.1534 184.181 44.7462 184.177 45.4432V51H182.12V45.7614C182.12 45.178 181.969 44.7216 181.665 44.392C181.366 44.0625 180.951 43.8977 180.421 43.8977C180.061 43.8977 179.741 43.9773 179.461 44.1364C179.184 44.2917 178.967 44.517 178.808 44.8125C178.652 45.108 178.575 45.4659 178.575 45.8864ZM190.075 51.1705C189.222 51.1705 188.484 50.983 187.859 50.608C187.234 50.233 186.749 49.7083 186.404 49.0341C186.063 48.3598 185.893 47.572 185.893 46.6705C185.893 45.7689 186.063 44.9792 186.404 44.3011C186.749 43.6231 187.234 43.0966 187.859 42.7216C188.484 42.3466 189.222 42.1591 190.075 42.1591C190.927 42.1591 191.665 42.3466 192.29 42.7216C192.915 43.0966 193.398 43.6231 193.739 44.3011C194.084 44.9792 194.256 45.7689 194.256 46.6705C194.256 47.572 194.084 48.3598 193.739 49.0341C193.398 49.7083 192.915 50.233 192.29 50.608C191.665 50.983 190.927 51.1705 190.075 51.1705ZM190.086 49.5227C190.548 49.5227 190.934 49.3958 191.245 49.142C191.556 48.8845 191.787 48.5398 191.938 48.108C192.094 47.6761 192.171 47.1951 192.171 46.6648C192.171 46.1307 192.094 45.6477 191.938 45.2159C191.787 44.7803 191.556 44.4337 191.245 44.1761C190.934 43.9186 190.548 43.7898 190.086 43.7898C189.612 43.7898 189.219 43.9186 188.904 44.1761C188.594 44.4337 188.361 44.7803 188.205 45.2159C188.054 45.6477 187.978 46.1307 187.978 46.6648C187.978 47.1951 188.054 47.6761 188.205 48.108C188.361 48.5398 188.594 48.8845 188.904 49.142C189.219 49.3958 189.612 49.5227 190.086 49.5227ZM197.553 51L195.087 42.2727H197.184L198.718 48.4091H198.798L200.366 42.2727H202.44L204.008 48.375H204.093L205.604 42.2727H207.707L205.235 51H203.093L201.457 45.1023H201.337L199.701 51H197.553ZM215.629 39.3636L215.441 47.5795H213.612L213.43 39.3636H215.629ZM214.526 51.125C214.182 51.125 213.886 51.0038 213.64 50.7614C213.397 50.5189 213.276 50.2235 213.276 49.875C213.276 49.5341 213.397 49.2424 213.64 49C213.886 48.7576 214.182 48.6364 214.526 48.6364C214.863 48.6364 215.155 48.7576 215.401 49C215.651 49.2424 215.776 49.5341 215.776 49.875C215.776 50.1061 215.718 50.3163 215.6 50.5057C215.487 50.6951 215.335 50.8466 215.146 50.9602C214.96 51.0701 214.754 51.125 214.526 51.125Z" fill="black"/>
<path d="M165.357 72H161.413V60.3636H165.436C166.591 60.3636 167.584 60.5966 168.413 61.0625C169.247 61.5246 169.887 62.1894 170.334 63.0568C170.781 63.9242 171.004 64.9621 171.004 66.1705C171.004 67.3826 170.779 68.4242 170.328 69.2955C169.881 70.1667 169.235 70.8352 168.391 71.3011C167.55 71.767 166.538 72 165.357 72ZM163.521 70.1761H165.254C166.065 70.1761 166.741 70.0284 167.283 69.733C167.824 69.4337 168.232 68.9886 168.504 68.3977C168.777 67.803 168.913 67.0606 168.913 66.1705C168.913 65.2803 168.777 64.5417 168.504 63.9545C168.232 63.3636 167.828 62.9223 167.294 62.6307C166.764 62.3352 166.105 62.1875 165.317 62.1875H163.521V70.1761ZM176.78 72.1705C175.905 72.1705 175.149 71.9886 174.513 71.625C173.88 71.2576 173.393 70.7386 173.053 70.0682C172.712 69.3939 172.541 68.6004 172.541 67.6875C172.541 66.7898 172.712 66.0019 173.053 65.3239C173.397 64.642 173.878 64.1117 174.496 63.733C175.113 63.3504 175.839 63.1591 176.672 63.1591C177.21 63.1591 177.717 63.2462 178.195 63.4205C178.676 63.5909 179.1 63.8561 179.467 64.2159C179.839 64.5758 180.13 65.0341 180.342 65.5909C180.554 66.1439 180.661 66.803 180.661 67.5682V68.1989H173.507V66.8125H178.689C178.685 66.4186 178.6 66.0682 178.433 65.7614C178.267 65.4508 178.034 65.2064 177.734 65.0284C177.439 64.8504 177.094 64.7614 176.7 64.7614C176.28 64.7614 175.911 64.8636 175.592 65.0682C175.274 65.2689 175.026 65.5341 174.848 65.8636C174.674 66.1894 174.585 66.5473 174.581 66.9375V68.1477C174.581 68.6553 174.674 69.0909 174.859 69.4545C175.045 69.8144 175.304 70.0909 175.638 70.2841C175.971 70.4735 176.361 70.5682 176.808 70.5682C177.107 70.5682 177.378 70.5265 177.621 70.4432C177.863 70.3561 178.073 70.2292 178.251 70.0625C178.429 69.8958 178.564 69.6894 178.655 69.4432L180.575 69.6591C180.454 70.1667 180.223 70.6098 179.882 70.9886C179.545 71.3636 179.113 71.6553 178.587 71.8636C178.06 72.0682 177.458 72.1705 176.78 72.1705ZM186.759 63.2727V64.8636H181.741V63.2727H186.759ZM182.98 61.1818H185.037V69.375C185.037 69.6515 185.079 69.8636 185.162 70.0114C185.249 70.1553 185.363 70.2538 185.503 70.3068C185.643 70.3598 185.798 70.3864 185.969 70.3864C186.098 70.3864 186.215 70.3769 186.321 70.358C186.431 70.339 186.514 70.322 186.571 70.3068L186.918 71.9148C186.808 71.9527 186.651 71.9943 186.446 72.0398C186.245 72.0852 185.999 72.1117 185.707 72.1193C185.192 72.1345 184.728 72.0568 184.315 71.8864C183.902 71.7121 183.575 71.4432 183.332 71.0795C183.094 70.7159 182.976 70.2614 182.98 69.7159V61.1818ZM190.99 72.1761C190.437 72.1761 189.939 72.0777 189.496 71.8807C189.056 71.6799 188.708 71.3845 188.45 70.9943C188.196 70.6042 188.07 70.1231 188.07 69.5511C188.07 69.0587 188.161 68.6515 188.342 68.3295C188.524 68.0076 188.772 67.75 189.087 67.5568C189.401 67.3636 189.755 67.2178 190.149 67.1193C190.547 67.017 190.958 66.9432 191.382 66.8977C191.893 66.8447 192.308 66.7973 192.626 66.7557C192.945 66.7102 193.176 66.642 193.32 66.5511C193.467 66.4564 193.541 66.3106 193.541 66.1136V66.0795C193.541 65.6515 193.414 65.3201 193.161 65.0852C192.907 64.8504 192.541 64.733 192.064 64.733C191.56 64.733 191.161 64.8428 190.865 65.0625C190.573 65.2822 190.376 65.5417 190.274 65.8409L188.354 65.5682C188.505 65.0379 188.755 64.5947 189.104 64.2386C189.452 63.8788 189.878 63.6098 190.382 63.4318C190.886 63.25 191.443 63.1591 192.053 63.1591C192.473 63.1591 192.892 63.2083 193.308 63.3068C193.725 63.4053 194.106 63.5682 194.45 63.7955C194.795 64.0189 195.071 64.3239 195.28 64.7102C195.492 65.0966 195.598 65.5795 195.598 66.1591V72H193.621V70.8011H193.553C193.428 71.0436 193.251 71.2708 193.024 71.483C192.801 71.6913 192.518 71.8598 192.178 71.9886C191.84 72.1136 191.445 72.1761 190.99 72.1761ZM191.524 70.6648C191.937 70.6648 192.295 70.5833 192.598 70.4205C192.901 70.2538 193.134 70.0341 193.297 69.7614C193.464 69.4886 193.547 69.1913 193.547 68.8693V67.8409C193.482 67.8939 193.373 67.9432 193.217 67.9886C193.066 68.0341 192.895 68.0739 192.706 68.108C192.517 68.142 192.329 68.1723 192.143 68.1989C191.958 68.2254 191.797 68.2481 191.661 68.267C191.354 68.3087 191.079 68.3769 190.837 68.4716C190.594 68.5663 190.403 68.6989 190.263 68.8693C190.123 69.036 190.053 69.2519 190.053 69.517C190.053 69.8958 190.191 70.1818 190.467 70.375C190.744 70.5682 191.096 70.6648 191.524 70.6648ZM197.666 72V63.2727H199.723V72H197.666ZM198.7 62.0341C198.375 62.0341 198.094 61.9261 197.859 61.7102C197.625 61.4905 197.507 61.2273 197.507 60.9205C197.507 60.6098 197.625 60.3466 197.859 60.1307C198.094 59.911 198.375 59.8011 198.7 59.8011C199.03 59.8011 199.31 59.911 199.541 60.1307C199.776 60.3466 199.893 60.6098 199.893 60.9205C199.893 61.2273 199.776 61.4905 199.541 61.7102C199.31 61.9261 199.03 62.0341 198.7 62.0341ZM203.895 60.3636V72H201.838V60.3636H203.895ZM212.908 65.5795L211.033 65.7841C210.98 65.5947 210.887 65.4167 210.754 65.25C210.625 65.0833 210.451 64.9489 210.232 64.8466C210.012 64.7443 209.743 64.6932 209.425 64.6932C208.997 64.6932 208.637 64.786 208.345 64.9716C208.057 65.1572 207.915 65.3977 207.919 65.6932C207.915 65.947 208.008 66.1534 208.197 66.3125C208.391 66.4716 208.709 66.6023 209.152 66.7045L210.641 67.0227C211.466 67.2008 212.08 67.483 212.482 67.8693C212.887 68.2557 213.091 68.7614 213.095 69.3864C213.091 69.9356 212.93 70.4205 212.612 70.8409C212.298 71.2576 211.86 71.5833 211.3 71.8182C210.739 72.053 210.095 72.1705 209.368 72.1705C208.3 72.1705 207.44 71.947 206.788 71.5C206.137 71.0492 205.749 70.4223 205.624 69.6193L207.629 69.4261C207.72 69.8201 207.913 70.1174 208.209 70.3182C208.504 70.5189 208.889 70.6193 209.362 70.6193C209.851 70.6193 210.243 70.5189 210.538 70.3182C210.838 70.1174 210.987 69.8693 210.987 69.5739C210.987 69.3239 210.891 69.1174 210.697 68.9545C210.508 68.7917 210.213 68.6667 209.811 68.5795L208.322 68.267C207.485 68.0928 206.866 67.7992 206.464 67.3864C206.063 66.9697 205.864 66.4432 205.868 65.8068C205.864 65.2689 206.01 64.803 206.305 64.4091C206.605 64.0114 207.019 63.7045 207.55 63.4886C208.084 63.2689 208.699 63.1591 209.396 63.1591C210.419 63.1591 211.224 63.3769 211.811 63.8125C212.402 64.2481 212.768 64.8371 212.908 65.5795Z" fill="#ECCF35"/>
<defs>
<filter id="filter0_dd_1274_8894" x="23" y="0" width="258" height="78" filterUnits="userSpaceOnUse" color-interpolation-filters="sRGB">
<feFlood flood-opacity="0" result="BackgroundImageFix"/>
<feColorMatrix in="SourceAlpha" type="matrix" values="0 0 0 0 0 0 0 0 0 0 0 0 0 0 0 0 0 0 127 0" result="hardAlpha"/>
<feOffset dy="4"/>
<feGaussianBlur stdDeviation="2"/>
<feComposite in2="hardAlpha" operator="out"/>
<feColorMatrix type="matrix" values="0 0 0 0 0 0 0 0 0 0 0 0 0 0 0 0 0 0 0.25 0"/>
<feBlend mode="normal" in2="BackgroundImageFix" result="effect1_dropShadow_1274_8894"/>
<feColorMatrix in="SourceAlpha" type="matrix" values="0 0 0 0 0 0 0 0 0 0 0 0 0 0 0 0 0 0 127 0" result="hardAlpha"/>
<feOffset dy="4"/>
<feGaussianBlur stdDeviation="2"/>
<feComposite in2="hardAlpha" operator="out"/>
<feColorMatrix type="matrix" values="0 0 0 0 0 0 0 0 0 0 0 0 0 0 0 0 0 0 0.25 0"/>
<feBlend mode="normal" in2="effect1_dropShadow_1274_8894" result="effect2_dropShadow_1274_8894"/>
<feBlend mode="normal" in="SourceGraphic" in2="effect2_dropShadow_1274_8894" result="shape"/>
</filter>
<filter id="filter1_dd_1274_8894" x="0" y="15" width="258" height="78" filterUnits="userSpaceOnUse" color-interpolation-filters="sRGB">
<feFlood flood-opacity="0" result="BackgroundImageFix"/>
<feColorMatrix in="SourceAlpha" type="matrix" values="0 0 0 0 0 0 0 0 0 0 0 0 0 0 0 0 0 0 127 0" result="hardAlpha"/>
<feOffset dy="4"/>
<feGaussianBlur stdDeviation="2"/>
<feComposite in2="hardAlpha" operator="out"/>
<feColorMatrix type="matrix" values="0 0 0 0 0 0 0 0 0 0 0 0 0 0 0 0 0 0 0.25 0"/>
<feBlend mode="normal" in2="BackgroundImageFix" result="effect1_dropShadow_1274_8894"/>
<feColorMatrix in="SourceAlpha" type="matrix" values="0 0 0 0 0 0 0 0 0 0 0 0 0 0 0 0 0 0 127 0" result="hardAlpha"/>
<feOffset dy="4"/>
<feGaussianBlur stdDeviation="2"/>
<feComposite in2="hardAlpha" operator="out"/>
<feColorMatrix type="matrix" values="0 0 0 0 0 0 0 0 0 0 0 0 0 0 0 0 0 0 0.25 0"/>
<feBlend mode="normal" in2="effect1_dropShadow_1274_8894" result="effect2_dropShadow_1274_8894"/>
<feBlend mode="normal" in="SourceGraphic" in2="effect2_dropShadow_1274_8894" result="shape"/>
</filter>
<linearGradient id="paint0_linear_1274_8894" x1="152" y1="0" x2="152" y2="70" gradientUnits="userSpaceOnUse">
<stop stop-color="#695252" stop-opacity="0"/>
<stop offset="0.928145" stop-color="#CDC5C5"/>
</linearGradient>
<linearGradient id="paint1_linear_1274_8894" x1="129" y1="15" x2="129" y2="85" gradientUnits="userSpaceOnUse">
<stop stop-color="#695252" stop-opacity="0"/>
<stop offset="0.928145" stop-color="#CDC5C5"/>
</linearGradient>
</defs>
</svg>
