<svg width="178" height="324" viewBox="0 0 178 324" fill="none" xmlns="http://www.w3.org/2000/svg">
<path d="M94.1332 137.437C95.1989 128.624 102.611 122 111.405 122H132.939C141.8 122 149.245 128.722 150.231 137.612L165 270.842L124.5 324L78 270.842L94.1332 137.437Z" fill="#57E0BF"/>
<path fill-rule="evenodd" clip-rule="evenodd" d="M132.939 124.928H111.405C104.076 124.928 97.8999 130.448 97.0118 137.791L81.0366 269.891L124.346 319.401L161.988 269.994L147.349 137.937C146.527 130.529 140.323 124.928 132.939 124.928ZM165 270.842L150.231 137.612C149.245 128.722 141.8 122 132.939 122H111.405C102.611 122 95.1989 128.624 94.1332 137.437L78 270.842L124.5 324L165 270.842Z" fill="#C5F8E2"/>
<path d="M148 58C148 74.0163 135.016 87 119 87C102.984 87 90 74.0163 90 58C90 41.9837 102.984 29 119 29C135.016 29 148 41.9837 148 58Z" fill="#57E0BF" fill-opacity="0.8"/>
<path fill-rule="evenodd" clip-rule="evenodd" d="M119 84.1C133.415 84.1 145.1 72.4146 145.1 58C145.1 43.5854 133.415 31.9 119 31.9C104.585 31.9 92.9 43.5854 92.9 58C92.9 72.4146 104.585 84.1 119 84.1ZM119 87C135.016 87 148 74.0163 148 58C148 41.9837 135.016 29 119 29C102.984 29 90 41.9837 90 58C90 74.0163 102.984 87 119 87Z" fill="#D9FFEF"/>
<path fill-rule="evenodd" clip-rule="evenodd" d="M157.507 58.2624C157.507 79.1778 140.467 96.133 119.448 96.133C98.4289 96.133 81.3894 79.1778 81.3894 58.2624C81.3894 37.3471 98.4289 20.3918 119.448 20.3918C140.467 20.3918 157.507 37.3471 157.507 58.2624ZM178 58.2624C178 90.4399 151.785 116.525 119.448 116.525C110.793 116.525 102.577 114.656 95.1841 111.302C94.5997 113.06 93.6798 114.738 92.4159 116.242L25.3522 196.071C20.446 201.911 11.7259 202.67 5.87518 197.767C-1.07983 191.938 -1.99015 181.584 3.84191 174.642L69.2281 96.8088C70.3083 95.523 71.5575 94.4622 72.916 93.6317C65.3759 83.8246 60.8962 71.5641 60.8962 58.2624C60.8962 26.085 87.1108 0 119.448 0C151.785 0 178 26.085 178 58.2624Z" fill="#1D154A"/>
<path fill-rule="evenodd" clip-rule="evenodd" d="M93.4299 107.305L96.3986 108.652C103.418 111.836 111.22 113.612 119.448 113.612C150.169 113.612 175.072 88.831 175.072 58.2624C175.072 27.6939 150.169 2.91312 119.448 2.91312C88.7277 2.91312 63.8238 27.6939 63.8238 58.2624C63.8238 70.9022 68.0782 82.5449 75.2412 91.8616L77.2117 94.4245L74.4486 96.1138C73.3565 96.7814 72.3492 97.6358 71.4743 98.6772L6.08808 176.511C1.29028 182.222 2.03956 190.743 7.76116 195.538L5.90255 197.734L7.76116 195.538C12.372 199.403 19.2396 198.805 23.106 194.203L90.1698 114.374C91.193 113.156 91.9342 111.802 92.4048 110.387L93.4299 107.305ZM160.434 58.2624C160.434 80.7866 142.084 99.0461 119.448 99.0461C96.812 99.0461 78.4618 80.7866 78.4618 58.2624C78.4618 35.7382 96.812 17.4787 119.448 17.4787C142.084 17.4787 160.434 35.7382 160.434 58.2624ZM97.8855 112.447C104.559 115.079 111.834 116.525 119.448 116.525C151.785 116.525 178 90.4399 178 58.2624C178 26.085 151.785 0 119.448 0C87.1108 0 60.8962 26.085 60.8962 58.2624C60.8962 70.5161 64.6979 81.8861 71.1915 91.2686C71.7469 92.0711 72.322 92.859 72.916 93.6317C72.0939 94.1343 71.3118 94.7213 70.5829 95.3914C70.1074 95.8286 69.6546 96.3012 69.2281 96.8088L3.84191 174.642C-1.99015 181.584 -1.07983 191.938 5.87518 197.767C11.7259 202.67 20.446 201.911 25.3522 196.071L92.4159 116.242C93.0226 115.52 93.55 114.758 93.9991 113.966C94.4856 113.109 94.8802 112.216 95.1841 111.302C96.0729 111.706 96.9736 112.087 97.8855 112.447ZM119.448 96.133C140.467 96.133 157.507 79.1778 157.507 58.2624C157.507 37.3471 140.467 20.3918 119.448 20.3918C98.4289 20.3918 81.3894 37.3471 81.3894 58.2624C81.3894 79.1778 98.4289 96.133 119.448 96.133Z" fill="#EEF3F1"/>
<path fill-rule="evenodd" clip-rule="evenodd" d="M115.83 294.786L159.799 240.406L162.07 242.243L118.102 296.623L115.83 294.786Z" fill="#D9FFEF"/>
</svg>
