<svg width="51" height="54" viewBox="0 0 51 54" fill="white" xmlns="http://www.w3.org/2000/svg">
<ellipse cx="25.4609" cy="27.0029" rx="25" ry="27" fill="#F8F9F8"/>
<path d="M35.4609 15.0029H32.4609V14.0029C32.4609 13.7377 32.3556 13.4834 32.168 13.2958C31.9805 13.1083 31.7262 13.0029 31.4609 13.0029C31.1957 13.0029 30.9414 13.1083 30.7538 13.2958C30.5663 13.4834 30.4609 13.7377 30.4609 14.0029V15.0029H20.4609V14.0029C20.4609 13.7377 20.3556 13.4834 20.168 13.2958C19.9805 13.1083 19.7262 13.0029 19.4609 13.0029C19.1957 13.0029 18.9414 13.1083 18.7538 13.2958C18.5663 13.4834 18.4609 13.7377 18.4609 14.0029V15.0029H15.4609C14.9305 15.0029 14.4218 15.2136 14.0467 15.5887C13.6717 15.9638 13.4609 16.4725 13.4609 17.0029V37.0029C13.4609 37.5334 13.6717 38.0421 14.0467 38.4171C14.4218 38.7922 14.9305 39.0029 15.4609 39.0029H35.4609C35.9914 39.0029 36.5001 38.7922 36.8752 38.4171C37.2502 38.0421 37.4609 37.5334 37.4609 37.0029V17.0029C37.4609 16.4725 37.2502 15.9638 36.8752 15.5887C36.5001 15.2136 35.9914 15.0029 35.4609 15.0029ZM35.4609 21.0029H15.4609V17.0029H18.4609V18.0029C18.4609 18.2681 18.5663 18.5225 18.7538 18.71C18.9414 18.8976 19.1957 19.0029 19.4609 19.0029C19.7262 19.0029 19.9805 18.8976 20.168 18.71C20.3556 18.5225 20.4609 18.2681 20.4609 18.0029V17.0029H30.4609V18.0029C30.4609 18.2681 30.5663 18.5225 30.7538 18.71C30.9414 18.8976 31.1957 19.0029 31.4609 19.0029C31.7262 19.0029 31.9805 18.8976 32.168 18.71C32.3556 18.5225 32.4609 18.2681 32.4609 18.0029V17.0029H35.4609V21.0029Z" fill="black"/>
</svg>
