<svg width="33" height="32" viewBox="0 0 33 32" fill="white" xmlns="http://www.w3.org/2000/svg">
<path d="M23.1276 4.00293H9.79427C6.84894 4.00293 4.46094 6.39093 4.46094 9.33626V22.6696C4.46094 25.6149 6.84894 28.0029 9.79427 28.0029H17.2889V18.7216H14.1649V15.0883H17.2889V12.4149C17.2889 9.31626 19.1836 7.62693 21.9489 7.62693C22.8809 7.62426 23.8116 7.67226 24.7383 7.76693V11.0069H22.8343C21.3276 11.0069 21.0343 11.7189 21.0343 12.7696V15.0829H24.6343L24.1663 18.7163H21.0129V28.0029H23.1276C26.0729 28.0029 28.4609 25.6149 28.4609 22.6696V9.33626C28.4609 6.39093 26.0729 4.00293 23.1276 4.00293Z" fill="#1D154A"/>
</svg>
