<svg width="50" height="55" viewBox="0 0 50 55" fill="none" xmlns="http://www.w3.org/2000/svg">
<ellipse cx="25" cy="27.5713" rx="25" ry="27" fill="#F8F9F8"/>
<g clip-path="url(#clip0_948_6797)">
<path d="M30.333 26.667C32.5463 26.667 34.3197 24.8803 34.3197 22.667C34.3197 20.4537 32.5463 18.667 30.333 18.667C28.1197 18.667 26.333 20.4537 26.333 22.667C26.333 24.8803 28.1197 26.667 30.333 26.667ZM19.6663 26.667C21.8797 26.667 23.653 24.8803 23.653 22.667C23.653 20.4537 21.8797 18.667 19.6663 18.667C17.453 18.667 15.6663 20.4537 15.6663 22.667C15.6663 24.8803 17.453 26.667 19.6663 26.667ZM19.6663 29.3337C16.5597 29.3337 10.333 30.8937 10.333 34.0003V36.0003C10.333 36.7337 10.933 37.3337 11.6663 37.3337H27.6663C28.3997 37.3337 28.9997 36.7337 28.9997 36.0003V34.0003C28.9997 30.8937 22.773 29.3337 19.6663 29.3337ZM30.333 29.3337C29.9463 29.3337 29.5063 29.3603 29.0397 29.4003C29.0663 29.4137 29.0797 29.4403 29.093 29.4537C30.613 30.5603 31.6663 32.0403 31.6663 34.0003V36.0003C31.6663 36.467 31.573 36.9203 31.4263 37.3337H38.333C39.0663 37.3337 39.6663 36.7337 39.6663 36.0003V34.0003C39.6663 30.8937 33.4397 29.3337 30.333 29.3337Z" fill="#420098"/>
</g>
<defs>
<clipPath id="clip0_948_6797">
<rect width="32" height="32" fill="white" transform="translate(9 12)"/>
</clipPath>
</defs>
</svg>
