<svg width="1512" height="653" viewBox="0 0 1512 653" fill="none" xmlns="http://www.w3.org/2000/svg">
<path d="M-226.905 587.098C-173.161 537.151 -130.693 497.974 -99.4002 469.232C-57.4867 430.735 -1.05621 412.41 55.5313 418.462L209.812 434.963L357.235 445.493C408.797 449.176 459.782 432.751 499.498 399.664L561.457 348.047C659.332 266.509 784.638 225.404 911.793 233.124L1558.06 272.361" stroke="#1AD3A7"/>
<path d="M-149.115 521.495C-95.3712 471.548 -52.9032 432.371 -21.6103 403.629C20.3032 365.132 76.7337 346.807 133.321 352.859L287.602 369.36L435.025 379.89C486.587 383.573 537.572 367.148 577.288 334.061L639.247 282.444C737.122 200.906 862.428 159.801 989.583 167.521L1635.85 206.758" stroke="#1AD3A7"/>
<path d="M-187.104 553.679C-133.36 503.732 -90.8916 464.555 -59.5987 435.813C-17.6852 397.315 38.7453 378.991 95.3328 385.043L249.613 401.544L397.037 412.074C448.598 415.756 499.583 399.332 539.3 366.245L601.258 314.628C699.133 233.09 824.44 191.985 951.595 199.705L1597.86 238.942" stroke="#1AD3A7" stroke-width="0.5"/>
<path d="M-158.231 613.764C-104.487 563.817 -62.0194 524.64 -30.7265 495.897C11.187 457.4 67.6175 439.075 124.205 445.128L278.485 461.629L425.909 472.158C477.471 475.841 528.455 459.417 568.172 426.33L630.13 374.713C728.005 293.175 853.312 252.069 980.467 259.789L1626.73 299.026" stroke="#1AD3A7"/>
<path d="M-56.7468 624.952C-3.00287 575.005 39.4652 535.828 70.7581 507.085C112.672 468.588 169.102 450.263 225.69 456.316L379.97 472.817L527.394 483.346C578.955 487.029 629.94 470.605 669.656 437.518L731.615 385.901C829.49 304.363 954.797 263.257 1081.95 270.977L1728.22 310.214" stroke="#1AD3A7"/>
<path d="M-87.3192 618.571C-33.5753 568.624 8.8927 529.447 40.1856 500.705C82.0991 462.207 138.53 443.882 195.117 449.935L349.398 466.436L496.821 476.966C548.383 480.648 599.367 464.224 639.084 431.137L701.042 379.52C798.917 297.982 924.224 256.877 1051.38 264.597L1697.64 303.834" stroke="#1AD3A7"/>
<path d="M-120.136 616.741C-66.3918 566.794 -23.9237 527.616 7.36921 498.874C49.2827 460.377 105.713 442.052 162.301 448.104L316.581 464.606L464.005 475.135C515.566 478.818 566.551 462.394 606.267 429.306L668.226 377.69C766.101 296.151 891.408 255.046 1018.56 262.766L1664.83 302.003" stroke="#1AD3A7"/>
<path d="M-142.486 576.365C-88.7424 526.418 -46.2744 487.241 -14.9814 458.499C26.932 420.002 83.3625 401.677 139.95 407.729L294.23 424.23L441.654 434.76C493.216 438.443 544.2 422.018 583.917 388.931L645.875 337.314C743.75 255.776 869.057 214.671 996.212 222.391L1642.48 261.628" stroke="#1AD3A7"/>
<path d="M-124.174 559.287C-70.4297 509.341 -27.9617 470.163 3.33123 441.421C45.2447 402.924 101.675 384.599 158.263 390.651L312.543 407.153L459.967 417.682C511.528 421.365 562.513 404.94 602.229 371.853L664.188 320.236C762.063 238.698 887.37 197.593 1014.52 205.313L1660.79 244.55" stroke="#1AD3A7"/>
<path d="M-103.828 542.221C-50.0842 492.274 -7.61621 453.097 23.6767 424.354C65.5902 385.857 122.021 367.532 178.608 373.584L332.889 390.086L480.312 400.615C531.874 404.298 582.859 387.874 622.575 354.786L684.534 303.17C782.409 221.632 907.715 180.526 1034.87 188.246L1681.14 227.483" stroke="#1AD3A7"/>
<path d="M-183.351 609.514C-129.607 559.567 -87.139 520.39 -55.846 491.648C-13.9326 453.15 42.498 434.826 99.0854 440.878L253.366 457.379L400.79 467.909C452.351 471.591 503.336 455.167 543.052 422.08L605.011 370.463C702.886 288.925 828.193 247.82 955.348 255.54L1601.61 294.777" stroke="#1AD3A7"/>
<path d="M-90.0291 528.339C-36.2851 478.392 6.18289 439.215 37.4758 410.473C79.3893 371.975 135.82 353.65 192.407 359.703L346.688 376.204L494.111 386.734C545.673 390.416 596.658 373.992 636.374 340.905L698.333 289.288C796.208 207.75 921.514 166.645 1048.67 174.365L1694.93 213.602" stroke="#1AD3A7"/>
</svg>
