<svg width="33" height="32" viewBox="0 0 33 32" fill="white" xmlns="http://www.w3.org/2000/svg">
<path d="M11.1276 4.00293C7.44627 4.00293 4.46094 6.98826 4.46094 10.6696V21.3363C4.46094 25.0176 7.44627 28.0029 11.1276 28.0029H21.7943C25.4756 28.0029 28.4609 25.0176 28.4609 21.3363V10.6696C28.4609 6.98826 25.4756 4.00293 21.7943 4.00293H11.1276ZM24.4609 6.6696C25.1969 6.6696 25.7943 7.26693 25.7943 8.00293C25.7943 8.73893 25.1969 9.33626 24.4609 9.33626C23.7249 9.33626 23.1276 8.73893 23.1276 8.00293C23.1276 7.26693 23.7249 6.6696 24.4609 6.6696ZM16.4609 9.33626C20.1423 9.33626 23.1276 12.3216 23.1276 16.0029C23.1276 19.6843 20.1423 22.6696 16.4609 22.6696C12.7796 22.6696 9.79427 19.6843 9.79427 16.0029C9.79427 12.3216 12.7796 9.33626 16.4609 9.33626ZM16.4609 12.0029C15.4001 12.0029 14.3827 12.4244 13.6325 13.1745C12.8824 13.9246 12.4609 14.9421 12.4609 16.0029C12.4609 17.0638 12.8824 18.0812 13.6325 18.8314C14.3827 19.5815 15.4001 20.0029 16.4609 20.0029C17.5218 20.0029 18.5392 19.5815 19.2894 18.8314C20.0395 18.0812 20.4609 17.0638 20.4609 16.0029C20.4609 14.9421 20.0395 13.9246 19.2894 13.1745C18.5392 12.4244 17.5218 12.0029 16.4609 12.0029Z" fill="#1D154A"/>
</svg>
