<svg width="51" height="55" viewBox="0 0 51 55" fill="white" xmlns="http://www.w3.org/2000/svg">
<ellipse cx="25.4609" cy="27.5029" rx="25" ry="27" fill="#F8F9F8"/>
<path d="M23.4609 18.9317C23.3285 18.9299 23.197 18.9545 23.0741 19.0039C22.9512 19.0534 22.8393 19.1267 22.745 19.2198C22.6507 19.3128 22.5758 19.4237 22.5247 19.5459C22.4736 19.6681 22.4473 19.7993 22.4473 19.9317H17.4609C16.3559 19.9317 15.4609 20.8267 15.4609 21.9317V27.9317C15.4609 29.0347 16.3579 29.9317 17.4609 29.9317H33.4609C34.5639 29.9317 35.4609 29.0347 35.4609 27.9317V21.9317C35.4609 20.8267 34.5659 19.9317 33.4609 19.9317H28.4746C28.4746 19.7993 28.4483 19.6681 28.3972 19.5459C28.3461 19.4237 28.2712 19.3128 28.1769 19.2198C28.0826 19.1267 27.9707 19.0534 27.8478 19.0039C27.7249 18.9545 27.5934 18.9299 27.4609 18.9317H23.4609ZM25.4609 25.9317C26.0129 25.9317 26.4609 26.3797 26.4609 26.9317C26.4609 27.4837 26.0129 27.9317 25.4609 27.9317C24.9089 27.9317 24.4609 27.4837 24.4609 26.9317C24.4609 26.3797 24.9089 25.9317 25.4609 25.9317ZM15.4609 31.3751V33.9317C15.4609 35.0367 16.3559 35.9317 17.4609 35.9317H33.4609C34.5659 35.9317 35.4609 35.0367 35.4609 33.9317V31.3751C34.8699 31.7191 34.1929 31.9317 33.4609 31.9317H17.4609C16.7289 31.9317 16.0519 31.7191 15.4609 31.3751Z" fill="#FFD910"/>
</svg>
