<svg width="33" height="32" viewBox="0 0 33 32" fill="none" xmlns="http://www.w3.org/2000/svg">
<path d="M25.7943 4.00293H7.1276C5.65427 4.00293 4.46094 5.19626 4.46094 6.6696V25.3363C4.46094 26.8096 5.65427 28.0029 7.1276 28.0029H25.7943C27.2676 28.0029 28.4609 26.8096 28.4609 25.3363V6.6696C28.4609 5.19626 27.2676 4.00293 25.7943 4.00293ZM10.7783 22.6696C9.84894 22.6696 9.0956 21.9163 9.0956 20.9869V15.0176C9.09694 14.0896 9.85027 13.3363 10.7783 13.3363C11.7076 13.3363 12.4609 14.0896 12.4609 15.0189V20.9883C12.4609 21.9163 11.7076 22.6696 10.7783 22.6696ZM10.7196 11.6256C9.6916 11.6256 9.00494 10.9403 9.00494 10.0256C9.00494 9.11093 9.69027 8.4256 10.8329 8.4256C11.8609 8.4256 12.5476 9.11093 12.5476 10.0256C12.5476 10.9403 11.8623 11.6256 10.7196 11.6256ZM22.8329 22.6696C21.9343 22.6696 21.2049 21.9403 21.2049 21.0416V17.5683C21.2049 16.1576 20.3369 16.0029 20.0116 16.0029C19.6863 16.0029 18.6009 16.0496 18.6009 17.5683V21.0416C18.6009 21.9403 17.8716 22.6696 16.9729 22.6696H16.8649C15.9663 22.6696 15.2369 21.9403 15.2369 21.0416V15.0189C15.2369 14.0896 15.9903 13.3363 16.9196 13.3363C17.8489 13.3363 18.6023 14.0896 18.6023 15.0189C18.6023 15.0189 18.9783 13.3363 21.5329 13.3363C23.1583 13.3363 24.4609 14.6389 24.4609 17.5683V21.0416C24.4609 21.9403 23.7316 22.6696 22.8329 22.6696Z" fill="#1D154A"/>
</svg>
