<svg width="420" height="156" viewBox="0 0 420 156" fill="none" xmlns="http://www.w3.org/2000/svg">
<g opacity="0.96">
<mask id="path-1-outside-1_1011_8892" maskUnits="userSpaceOnUse" x="11" y="37" width="402" height="119" fill="black">
<rect fill="white" x="11" y="37" width="402" height="119"/>
<path d="M63.18 112.05V127H12.22V38.6H27.82V112.05H63.18ZM160.449 73.7C158.283 73.7 155.813 74.22 153.039 75.26C150.266 76.3 146.973 78.3367 143.159 81.37V127H128.209V61.09H142.379V69.93C146.453 66.3767 150.309 63.82 153.949 62.26C157.589 60.6133 161.273 59.79 164.999 59.79C171.326 59.79 176.136 61.8267 179.429 65.9C182.723 69.8867 184.369 75.52 184.369 82.8V127H169.419V84.62C169.419 77.34 166.429 73.7 160.449 73.7ZM254.177 123.23C249.671 125.05 245.424 126.35 241.437 127.13C237.451 127.91 233.681 128.3 230.127 128.3C220.334 128.3 212.924 125.527 207.897 119.98C202.871 114.433 200.357 107.067 200.357 97.88V90.08C200.357 83.9267 201.484 78.5967 203.737 74.09C205.991 69.5833 209.197 66.0733 213.357 63.56C217.517 61.0467 222.414 59.79 228.047 59.79C232.641 59.79 236.931 60.7433 240.917 62.65C244.991 64.47 248.284 67.3733 250.797 71.36C253.397 75.26 254.697 80.2867 254.697 86.44C254.697 88.26 254.567 90.21 254.307 92.29C254.047 94.2833 253.614 96.4067 253.007 98.66H214.787C214.961 104.033 216.304 108.063 218.817 110.75C221.331 113.437 225.361 114.78 230.907 114.78C233.854 114.78 236.887 114.433 240.007 113.74C243.214 113.047 246.507 112.007 249.887 110.62L254.177 123.23ZM228.047 72.4C224.061 72.4 220.941 73.7 218.687 76.3C216.521 78.8133 215.264 82.4533 214.917 87.22H239.877C239.964 86.7867 240.007 86.3967 240.007 86.05C240.007 85.6167 240.007 85.2267 240.007 84.88C240.007 80.72 238.837 77.6 236.497 75.52C234.157 73.44 231.341 72.4 228.047 72.4Z"/>
<path d="M271.79 38.6H287.78V95.28C287.78 101 289.037 105.507 291.55 108.8C294.064 112.007 298.094 113.61 303.64 113.61C309.187 113.61 313.217 112.007 315.73 108.8C318.244 105.507 319.5 101 319.5 95.28V38.6H335.49V95.28C335.49 105.247 332.847 113.263 327.56 119.33C322.274 125.31 314.3 128.3 303.64 128.3C292.894 128.3 284.877 125.31 279.59 119.33C274.39 113.263 271.79 105.247 271.79 95.28V38.6ZM384.173 128.3C382.007 128.3 379.797 128.083 377.543 127.65C375.377 127.217 373.167 126.61 370.913 125.83V154.69H355.963V61.09H370.133V70.06C374.207 65.9867 377.673 63.2567 380.533 61.87C383.393 60.4833 386.383 59.79 389.503 59.79C396.697 59.79 402.243 62.4767 406.143 67.85C410.043 73.2233 411.993 80.7633 411.993 90.47V97.49C411.993 106.937 409.61 114.433 404.843 119.98C400.077 125.527 393.187 128.3 384.173 128.3ZM385.473 73.7C383.48 73.7 381.357 74.3067 379.103 75.52C376.937 76.6467 374.207 78.8567 370.913 82.15V112.31C375.16 114.043 379.06 114.91 382.613 114.91C387.64 114.91 391.237 113.35 393.403 110.23C395.57 107.11 396.653 102.863 396.653 97.49V90.47C396.653 84.6633 395.657 80.4167 393.663 77.73C391.757 75.0433 389.027 73.7 385.473 73.7Z"/>
</mask>
<path d="M63.18 112.05V127H12.22V38.6H27.82V112.05H63.18ZM160.449 73.7C158.283 73.7 155.813 74.22 153.039 75.26C150.266 76.3 146.973 78.3367 143.159 81.37V127H128.209V61.09H142.379V69.93C146.453 66.3767 150.309 63.82 153.949 62.26C157.589 60.6133 161.273 59.79 164.999 59.79C171.326 59.79 176.136 61.8267 179.429 65.9C182.723 69.8867 184.369 75.52 184.369 82.8V127H169.419V84.62C169.419 77.34 166.429 73.7 160.449 73.7ZM254.177 123.23C249.671 125.05 245.424 126.35 241.437 127.13C237.451 127.91 233.681 128.3 230.127 128.3C220.334 128.3 212.924 125.527 207.897 119.98C202.871 114.433 200.357 107.067 200.357 97.88V90.08C200.357 83.9267 201.484 78.5967 203.737 74.09C205.991 69.5833 209.197 66.0733 213.357 63.56C217.517 61.0467 222.414 59.79 228.047 59.79C232.641 59.79 236.931 60.7433 240.917 62.65C244.991 64.47 248.284 67.3733 250.797 71.36C253.397 75.26 254.697 80.2867 254.697 86.44C254.697 88.26 254.567 90.21 254.307 92.29C254.047 94.2833 253.614 96.4067 253.007 98.66H214.787C214.961 104.033 216.304 108.063 218.817 110.75C221.331 113.437 225.361 114.78 230.907 114.78C233.854 114.78 236.887 114.433 240.007 113.74C243.214 113.047 246.507 112.007 249.887 110.62L254.177 123.23ZM228.047 72.4C224.061 72.4 220.941 73.7 218.687 76.3C216.521 78.8133 215.264 82.4533 214.917 87.22H239.877C239.964 86.7867 240.007 86.3967 240.007 86.05C240.007 85.6167 240.007 85.2267 240.007 84.88C240.007 80.72 238.837 77.6 236.497 75.52C234.157 73.44 231.341 72.4 228.047 72.4Z" fill="#1D154A"/>
<path d="M271.79 38.6H287.78V95.28C287.78 101 289.037 105.507 291.55 108.8C294.064 112.007 298.094 113.61 303.64 113.61C309.187 113.61 313.217 112.007 315.73 108.8C318.244 105.507 319.5 101 319.5 95.28V38.6H335.49V95.28C335.49 105.247 332.847 113.263 327.56 119.33C322.274 125.31 314.3 128.3 303.64 128.3C292.894 128.3 284.877 125.31 279.59 119.33C274.39 113.263 271.79 105.247 271.79 95.28V38.6ZM384.173 128.3C382.007 128.3 379.797 128.083 377.543 127.65C375.377 127.217 373.167 126.61 370.913 125.83V154.69H355.963V61.09H370.133V70.06C374.207 65.9867 377.673 63.2567 380.533 61.87C383.393 60.4833 386.383 59.79 389.503 59.79C396.697 59.79 402.243 62.4767 406.143 67.85C410.043 73.2233 411.993 80.7633 411.993 90.47V97.49C411.993 106.937 409.61 114.433 404.843 119.98C400.077 125.527 393.187 128.3 384.173 128.3ZM385.473 73.7C383.48 73.7 381.357 74.3067 379.103 75.52C376.937 76.6467 374.207 78.8567 370.913 82.15V112.31C375.16 114.043 379.06 114.91 382.613 114.91C387.64 114.91 391.237 113.35 393.403 110.23C395.57 107.11 396.653 102.863 396.653 97.49V90.47C396.653 84.6633 395.657 80.4167 393.663 77.73C391.757 75.0433 389.027 73.7 385.473 73.7Z" fill="#57E0BF"/>
<path d="M63.18 112.05H64.18V111.05H63.18V112.05ZM63.18 127V128H64.18V127H63.18ZM12.22 127H11.22V128H12.22V127ZM12.22 38.6V37.6H11.22V38.6H12.22ZM27.82 38.6H28.82V37.6H27.82V38.6ZM27.82 112.05H26.82V113.05H27.82V112.05ZM62.18 112.05V127H64.18V112.05H62.18ZM63.18 126H12.22V128H63.18V126ZM13.22 127V38.6H11.22V127H13.22ZM12.22 39.6H27.82V37.6H12.22V39.6ZM26.82 38.6V112.05H28.82V38.6H26.82ZM27.82 113.05H63.18V111.05H27.82V113.05ZM153.039 75.26L152.688 74.3237L152.688 74.3237L153.039 75.26ZM143.159 81.37L142.537 80.5874L142.159 80.8877V81.37H143.159ZM143.159 127V128H144.159V127H143.159ZM128.209 127H127.209V128H128.209V127ZM128.209 61.09V60.09H127.209V61.09H128.209ZM142.379 61.09H143.379V60.09H142.379V61.09ZM142.379 69.93H141.379V72.1294L143.037 70.6836L142.379 69.93ZM153.949 62.26L154.343 63.1791L154.353 63.1752L154.362 63.1711L153.949 62.26ZM179.429 65.9L178.652 66.5288L178.658 66.5369L179.429 65.9ZM184.369 127V128H185.369V127H184.369ZM169.419 127H168.419V128H169.419V127ZM160.449 72.7C158.128 72.7 155.536 73.256 152.688 74.3237L153.391 76.1963C156.09 75.184 158.438 74.7 160.449 74.7V72.7ZM152.688 74.3237C149.774 75.4164 146.387 77.5252 142.537 80.5874L143.782 82.1526C147.559 79.1481 150.758 77.1836 153.391 76.1963L152.688 74.3237ZM142.159 81.37V127H144.159V81.37H142.159ZM143.159 126H128.209V128H143.159V126ZM129.209 127V61.09H127.209V127H129.209ZM128.209 62.09H142.379V60.09H128.209V62.09ZM141.379 61.09V69.93H143.379V61.09H141.379ZM143.037 70.6836C147.058 67.1756 150.827 64.6861 154.343 63.1791L153.556 61.3409C149.792 62.9539 145.847 65.5777 141.722 69.1764L143.037 70.6836ZM154.362 63.1711C157.882 61.5787 161.425 60.79 164.999 60.79V58.79C161.121 58.79 157.297 59.6479 153.537 61.3489L154.362 63.1711ZM164.999 60.79C171.094 60.79 175.588 62.7394 178.652 66.5287L180.207 65.2713C176.684 60.914 171.559 58.79 164.999 58.79V60.79ZM178.658 66.5369C181.754 70.2835 183.369 75.659 183.369 82.8H185.369C185.369 75.381 183.692 69.4898 180.2 65.2631L178.658 66.5369ZM183.369 82.8V127H185.369V82.8H183.369ZM184.369 126H169.419V128H184.369V126ZM170.419 127V84.62H168.419V127H170.419ZM170.419 84.62C170.419 80.8684 169.653 77.8689 167.95 75.7953C166.215 73.6839 163.651 72.7 160.449 72.7V74.7C163.228 74.7 165.149 75.5361 166.404 77.0647C167.691 78.6311 168.419 81.0916 168.419 84.62H170.419ZM254.177 123.23L254.552 124.157L255.429 123.803L255.124 122.908L254.177 123.23ZM241.437 127.13L241.245 126.149L241.437 127.13ZM207.897 119.98L207.156 120.652L207.156 120.652L207.897 119.98ZM203.737 74.09L204.632 74.5372L204.632 74.5372L203.737 74.09ZM213.357 63.56L212.84 62.7041L212.84 62.7041L213.357 63.56ZM240.917 62.65L240.486 63.5521L240.498 63.5577L240.509 63.563L240.917 62.65ZM250.797 71.36L249.951 71.8933L249.958 71.9041L249.965 71.9147L250.797 71.36ZM254.307 92.29L255.299 92.4193L255.3 92.414L254.307 92.29ZM253.007 98.66V99.66H253.774L253.973 98.92L253.007 98.66ZM214.787 98.66V97.66H213.755L213.788 98.6922L214.787 98.66ZM218.817 110.75L218.087 111.433L218.087 111.433L218.817 110.75ZM240.007 113.74L239.796 112.763L239.79 112.764L240.007 113.74ZM249.887 110.62L250.834 110.298L250.492 109.291L249.508 109.695L249.887 110.62ZM218.687 76.3L217.932 75.6451L217.93 75.6471L218.687 76.3ZM214.917 87.22L213.92 87.1475L213.842 88.22H214.917V87.22ZM239.877 87.22V88.22H240.697L240.858 87.4161L239.877 87.22ZM236.497 75.52L237.162 74.7726L237.162 74.7726L236.497 75.52ZM253.803 122.303C249.344 124.103 245.159 125.383 241.245 126.149L241.629 128.111C245.689 127.317 249.997 125.997 254.552 124.157L253.803 122.303ZM241.245 126.149C237.313 126.918 233.608 127.3 230.127 127.3V129.3C233.754 129.3 237.588 128.902 241.629 128.111L241.245 126.149ZM230.127 127.3C220.524 127.3 213.421 124.586 208.638 119.308L207.156 120.652C212.427 126.467 220.144 129.3 230.127 129.3V127.3ZM208.638 119.308C203.814 113.985 201.357 106.878 201.357 97.88H199.357C199.357 107.256 201.927 114.881 207.156 120.652L208.638 119.308ZM201.357 97.88V90.08H199.357V97.88H201.357ZM201.357 90.08C201.357 84.0481 202.462 78.8777 204.632 74.5372L202.843 73.6428C200.507 78.3157 199.357 83.8052 199.357 90.08H201.357ZM204.632 74.5372C206.804 70.1932 209.883 66.8277 213.875 64.4159L212.84 62.7041C208.512 65.3189 205.178 68.9735 202.843 73.6428L204.632 74.5372ZM213.875 64.4159C217.855 62.011 222.567 60.79 228.047 60.79V58.79C222.261 58.79 217.18 60.0823 212.84 62.7041L213.875 64.4159ZM228.047 60.79C232.497 60.79 236.639 61.7125 240.486 63.5521L241.349 61.7479C237.222 59.7742 232.784 58.79 228.047 58.79V60.79ZM240.509 63.563C244.392 65.2978 247.537 68.0638 249.951 71.8933L251.643 70.8267C249.031 66.6829 245.589 63.6422 241.325 61.737L240.509 63.563ZM249.965 71.9147C252.426 75.6062 253.697 80.4232 253.697 86.44H255.697C255.697 80.1501 254.368 74.9138 251.629 70.8053L249.965 71.9147ZM253.697 86.44C253.697 88.2129 253.571 90.1211 253.315 92.166L255.3 92.414C255.564 90.2989 255.697 88.3071 255.697 86.44H253.697ZM253.316 92.1607C253.062 94.1036 252.639 96.183 252.042 98.4L253.973 98.92C254.589 96.6304 255.032 94.4631 255.299 92.4193L253.316 92.1607ZM253.007 97.66H214.787V99.66H253.007V97.66ZM213.788 98.6922C213.966 104.198 215.346 108.503 218.087 111.433L219.548 110.067C217.262 107.624 215.956 103.868 215.787 98.6278L213.788 98.6922ZM218.087 111.433C220.868 114.405 225.224 115.78 230.907 115.78V113.78C225.498 113.78 221.794 112.468 219.548 110.067L218.087 111.433ZM230.907 115.78C233.933 115.78 237.039 115.424 240.224 114.716L239.79 112.764C236.736 113.443 233.775 113.78 230.907 113.78V115.78ZM240.219 114.717C243.489 114.01 246.839 112.952 250.267 111.545L249.508 109.695C246.176 111.062 242.939 112.083 239.796 112.763L240.219 114.717ZM248.941 110.942L253.231 123.552L255.124 122.908L250.834 110.298L248.941 110.942ZM228.047 71.4C223.822 71.4 220.406 72.7901 217.932 75.6451L219.443 76.9549C221.475 74.6099 224.3 73.4 228.047 73.4V71.4ZM217.93 75.6471C215.573 78.3807 214.276 82.2575 213.92 87.1475L215.915 87.2925C216.252 82.6491 217.468 79.2459 219.445 76.9529L217.93 75.6471ZM214.917 88.22H239.877V86.22H214.917V88.22ZM240.858 87.4161C240.954 86.9349 241.007 86.4776 241.007 86.05H239.007C239.007 86.3158 238.974 86.6385 238.897 87.0239L240.858 87.4161ZM241.007 86.05C241.007 86.0492 241.007 86.0483 241.007 86.0475C241.007 86.0466 241.007 86.0458 241.007 86.0449C241.007 86.0441 241.007 86.0432 241.007 86.0424C241.007 86.0415 241.007 86.0407 241.007 86.0398C241.007 86.039 241.007 86.0382 241.007 86.0373C241.007 86.0365 241.007 86.0356 241.007 86.0348C241.007 86.0339 241.007 86.0331 241.007 86.0322C241.007 86.0314 241.007 86.0306 241.007 86.0297C241.007 86.0289 241.007 86.028 241.007 86.0272C241.007 86.0263 241.007 86.0255 241.007 86.0247C241.007 86.0238 241.007 86.023 241.007 86.0221C241.007 86.0213 241.007 86.0204 241.007 86.0196C241.007 86.0188 241.007 86.0179 241.007 86.0171C241.007 86.0162 241.007 86.0154 241.007 86.0145C241.007 86.0137 241.007 86.0129 241.007 86.012C241.007 86.0112 241.007 86.0103 241.007 86.0095C241.007 86.0087 241.007 86.0078 241.007 86.007C241.007 86.0061 241.007 86.0053 241.007 86.0045C241.007 86.0036 241.007 86.0028 241.007 86.0019C241.007 86.0011 241.007 86.0003 241.007 85.9994C241.007 85.9986 241.007 85.9977 241.007 85.9969C241.007 85.9961 241.007 85.9952 241.007 85.9944C241.007 85.9935 241.007 85.9927 241.007 85.9919C241.007 85.991 241.007 85.9902 241.007 85.9893C241.007 85.9885 241.007 85.9877 241.007 85.9868C241.007 85.986 241.007 85.9852 241.007 85.9843C241.007 85.9835 241.007 85.9826 241.007 85.9818C241.007 85.981 241.007 85.9801 241.007 85.9793C241.007 85.9785 241.007 85.9776 241.007 85.9768C241.007 85.9759 241.007 85.9751 241.007 85.9743C241.007 85.9734 241.007 85.9726 241.007 85.9718C241.007 85.9709 241.007 85.9701 241.007 85.9693C241.007 85.9684 241.007 85.9676 241.007 85.9667C241.007 85.9659 241.007 85.9651 241.007 85.9642C241.007 85.9634 241.007 85.9626 241.007 85.9617C241.007 85.9609 241.007 85.9601 241.007 85.9592C241.007 85.9584 241.007 85.9576 241.007 85.9567C241.007 85.9559 241.007 85.9551 241.007 85.9542C241.007 85.9534 241.007 85.9526 241.007 85.9517C241.007 85.9509 241.007 85.9501 241.007 85.9492C241.007 85.9484 241.007 85.9476 241.007 85.9467C241.007 85.9459 241.007 85.9451 241.007 85.9442C241.007 85.9434 241.007 85.9426 241.007 85.9417C241.007 85.9409 241.007 85.9401 241.007 85.9392C241.007 85.9384 241.007 85.9376 241.007 85.9367C241.007 85.9359 241.007 85.9351 241.007 85.9342C241.007 85.9334 241.007 85.9326 241.007 85.9318C241.007 85.9309 241.007 85.9301 241.007 85.9293C241.007 85.9284 241.007 85.9276 241.007 85.9268C241.007 85.9259 241.007 85.9251 241.007 85.9243C241.007 85.9235 241.007 85.9226 241.007 85.9218C241.007 85.921 241.007 85.9201 241.007 85.9193C241.007 85.9185 241.007 85.9176 241.007 85.9168C241.007 85.916 241.007 85.9152 241.007 85.9143C241.007 85.9135 241.007 85.9127 241.007 85.9118C241.007 85.911 241.007 85.9102 241.007 85.9094C241.007 85.9085 241.007 85.9077 241.007 85.9069C241.007 85.9061 241.007 85.9052 241.007 85.9044C241.007 85.9036 241.007 85.9027 241.007 85.9019C241.007 85.9011 241.007 85.9003 241.007 85.8994C241.007 85.8986 241.007 85.8978 241.007 85.897C241.007 85.8961 241.007 85.8953 241.007 85.8945C241.007 85.8937 241.007 85.8928 241.007 85.892C241.007 85.8912 241.007 85.8904 241.007 85.8895C241.007 85.8887 241.007 85.8879 241.007 85.8871C241.007 85.8862 241.007 85.8854 241.007 85.8846C241.007 85.8838 241.007 85.8829 241.007 85.8821C241.007 85.8813 241.007 85.8805 241.007 85.8796C241.007 85.8788 241.007 85.878 241.007 85.8772C241.007 85.8763 241.007 85.8755 241.007 85.8747C241.007 85.8739 241.007 85.873 241.007 85.8722C241.007 85.8714 241.007 85.8706 241.007 85.8698C241.007 85.8689 241.007 85.8681 241.007 85.8673C241.007 85.8665 241.007 85.8656 241.007 85.8648C241.007 85.864 241.007 85.8632 241.007 85.8624C241.007 85.8615 241.007 85.8607 241.007 85.8599C241.007 85.8591 241.007 85.8583 241.007 85.8574C241.007 85.8566 241.007 85.8558 241.007 85.855C241.007 85.8541 241.007 85.8533 241.007 85.8525C241.007 85.8517 241.007 85.8509 241.007 85.85C241.007 85.8492 241.007 85.8484 241.007 85.8476C241.007 85.8468 241.007 85.8459 241.007 85.8451C241.007 85.8443 241.007 85.8435 241.007 85.8427C241.007 85.8419 241.007 85.841 241.007 85.8402C241.007 85.8394 241.007 85.8386 241.007 85.8378C241.007 85.8369 241.007 85.8361 241.007 85.8353C241.007 85.8345 241.007 85.8337 241.007 85.8329C241.007 85.832 241.007 85.8312 241.007 85.8304C241.007 85.8296 241.007 85.8288 241.007 85.8279C241.007 85.8271 241.007 85.8263 241.007 85.8255C241.007 85.8247 241.007 85.8239 241.007 85.823C241.007 85.8222 241.007 85.8214 241.007 85.8206C241.007 85.8198 241.007 85.819 241.007 85.8182C241.007 85.8173 241.007 85.8165 241.007 85.8157C241.007 85.8149 241.007 85.8141 241.007 85.8133C241.007 85.8124 241.007 85.8116 241.007 85.8108C241.007 85.81 241.007 85.8092 241.007 85.8084C241.007 85.8076 241.007 85.8067 241.007 85.8059C241.007 85.8051 241.007 85.8043 241.007 85.8035C241.007 85.8027 241.007 85.8019 241.007 85.801C241.007 85.8002 241.007 85.7994 241.007 85.7986C241.007 85.7978 241.007 85.797 241.007 85.7962C241.007 85.7954 241.007 85.7945 241.007 85.7937C241.007 85.7929 241.007 85.7921 241.007 85.7913C241.007 85.7905 241.007 85.7897 241.007 85.7889C241.007 85.7881 241.007 85.7872 241.007 85.7864C241.007 85.7856 241.007 85.7848 241.007 85.784C241.007 85.7832 241.007 85.7824 241.007 85.7816C241.007 85.7808 241.007 85.7799 241.007 85.7791C241.007 85.7783 241.007 85.7775 241.007 85.7767C241.007 85.7759 241.007 85.7751 241.007 85.7743C241.007 85.7735 241.007 85.7727 241.007 85.7718C241.007 85.771 241.007 85.7702 241.007 85.7694C241.007 85.7686 241.007 85.7678 241.007 85.767C241.007 85.7662 241.007 85.7654 241.007 85.7646C241.007 85.7638 241.007 85.7629 241.007 85.7621C241.007 85.7613 241.007 85.7605 241.007 85.7597C241.007 85.7589 241.007 85.7581 241.007 85.7573C241.007 85.7565 241.007 85.7557 241.007 85.7549C241.007 85.7541 241.007 85.7533 241.007 85.7525C241.007 85.7516 241.007 85.7508 241.007 85.75C241.007 85.7492 241.007 85.7484 241.007 85.7476C241.007 85.7468 241.007 85.746 241.007 85.7452C241.007 85.7444 241.007 85.7436 241.007 85.7428C241.007 85.742 241.007 85.7412 241.007 85.7404C241.007 85.7396 241.007 85.7388 241.007 85.7379C241.007 85.7371 241.007 85.7363 241.007 85.7355C241.007 85.7347 241.007 85.7339 241.007 85.7331C241.007 85.7323 241.007 85.7315 241.007 85.7307C241.007 85.7299 241.007 85.7291 241.007 85.7283C241.007 85.7275 241.007 85.7267 241.007 85.7259C241.007 85.7251 241.007 85.7243 241.007 85.7235C241.007 85.7227 241.007 85.7219 241.007 85.7211C241.007 85.7203 241.007 85.7195 241.007 85.7187C241.007 85.7179 241.007 85.7171 241.007 85.7163C241.007 85.7155 241.007 85.7147 241.007 85.7139C241.007 85.7131 241.007 85.7123 241.007 85.7115C241.007 85.7107 241.007 85.7099 241.007 85.7091C241.007 85.7082 241.007 85.7074 241.007 85.7066C241.007 85.7058 241.007 85.705 241.007 85.7042C241.007 85.7034 241.007 85.7026 241.007 85.7018C241.007 85.701 241.007 85.7002 241.007 85.6994C241.007 85.6987 241.007 85.6979 241.007 85.6971C241.007 85.6963 241.007 85.6955 241.007 85.6947C241.007 85.6939 241.007 85.6931 241.007 85.6923C241.007 85.6915 241.007 85.6907 241.007 85.6899C241.007 85.6891 241.007 85.6883 241.007 85.6875C241.007 85.6867 241.007 85.6859 241.007 85.6851C241.007 85.6843 241.007 85.6835 241.007 85.6827C241.007 85.6819 241.007 85.6811 241.007 85.6803C241.007 85.6795 241.007 85.6787 241.007 85.6779C241.007 85.6771 241.007 85.6763 241.007 85.6755C241.007 85.6747 241.007 85.6739 241.007 85.6731C241.007 85.6723 241.007 85.6715 241.007 85.6707C241.007 85.6699 241.007 85.6692 241.007 85.6684C241.007 85.6676 241.007 85.6668 241.007 85.666C241.007 85.6652 241.007 85.6644 241.007 85.6636C241.007 85.6628 241.007 85.662 241.007 85.6612C241.007 85.6604 241.007 85.6596 241.007 85.6588C241.007 85.658 241.007 85.6572 241.007 85.6564C241.007 85.6556 241.007 85.6549 241.007 85.6541C241.007 85.6533 241.007 85.6525 241.007 85.6517C241.007 85.6509 241.007 85.6501 241.007 85.6493C241.007 85.6485 241.007 85.6477 241.007 85.6469C241.007 85.6461 241.007 85.6453 241.007 85.6446C241.007 85.6438 241.007 85.643 241.007 85.6422C241.007 85.6414 241.007 85.6406 241.007 85.6398C241.007 85.639 241.007 85.6382 241.007 85.6374C241.007 85.6366 241.007 85.6358 241.007 85.6351C241.007 85.6343 241.007 85.6335 241.007 85.6327C241.007 85.6319 241.007 85.6311 241.007 85.6303C241.007 85.6295 241.007 85.6287 241.007 85.6279C241.007 85.6272 241.007 85.6264 241.007 85.6256C241.007 85.6248 241.007 85.624 241.007 85.6232C241.007 85.6224 241.007 85.6216 241.007 85.6208C241.007 85.6201 241.007 85.6193 241.007 85.6185C241.007 85.6177 241.007 85.6169 241.007 85.6161C241.007 85.6153 241.007 85.6145 241.007 85.6138C241.007 85.613 241.007 85.6122 241.007 85.6114C241.007 85.6106 241.007 85.6098 241.007 85.609C241.007 85.6082 241.007 85.6075 241.007 85.6067C241.007 85.6059 241.007 85.6051 241.007 85.6043C241.007 85.6035 241.007 85.6027 241.007 85.602C241.007 85.6012 241.007 85.6004 241.007 85.5996C241.007 85.5988 241.007 85.598 241.007 85.5972C241.007 85.5965 241.007 85.5957 241.007 85.5949C241.007 85.5941 241.007 85.5933 241.007 85.5925C241.007 85.5917 241.007 85.591 241.007 85.5902C241.007 85.5894 241.007 85.5886 241.007 85.5878C241.007 85.587 241.007 85.5863 241.007 85.5855C241.007 85.5847 241.007 85.5839 241.007 85.5831C241.007 85.5823 241.007 85.5816 241.007 85.5808C241.007 85.58 241.007 85.5792 241.007 85.5784C241.007 85.5776 241.007 85.5769 241.007 85.5761C241.007 85.5753 241.007 85.5745 241.007 85.5737C241.007 85.573 241.007 85.5722 241.007 85.5714C241.007 85.5706 241.007 85.5698 241.007 85.569C241.007 85.5683 241.007 85.5675 241.007 85.5667C241.007 85.5659 241.007 85.5651 241.007 85.5644C241.007 85.5636 241.007 85.5628 241.007 85.562C241.007 85.5612 241.007 85.5605 241.007 85.5597C241.007 85.5589 241.007 85.5581 241.007 85.5573C241.007 85.5566 241.007 85.5558 241.007 85.555C241.007 85.5542 241.007 85.5534 241.007 85.5527C241.007 85.5519 241.007 85.5511 241.007 85.5503C241.007 85.5496 241.007 85.5488 241.007 85.548C241.007 85.5472 241.007 85.5464 241.007 85.5457C241.007 85.5449 241.007 85.5441 241.007 85.5433C241.007 85.5425 241.007 85.5418 241.007 85.541C241.007 85.5402 241.007 85.5394 241.007 85.5387C241.007 85.5379 241.007 85.5371 241.007 85.5363C241.007 85.5356 241.007 85.5348 241.007 85.534C241.007 85.5332 241.007 85.5325 241.007 85.5317C241.007 85.5309 241.007 85.5301 241.007 85.5293C241.007 85.5286 241.007 85.5278 241.007 85.527C241.007 85.5262 241.007 85.5255 241.007 85.5247C241.007 85.5239 241.007 85.5231 241.007 85.5224C241.007 85.5216 241.007 85.5208 241.007 85.52C241.007 85.5193 241.007 85.5185 241.007 85.5177C241.007 85.517 241.007 85.5162 241.007 85.5154C241.007 85.5146 241.007 85.5139 241.007 85.5131C241.007 85.5123 241.007 85.5115 241.007 85.5108C241.007 85.51 241.007 85.5092 241.007 85.5084C241.007 85.5077 241.007 85.5069 241.007 85.5061C241.007 85.5054 241.007 85.5046 241.007 85.5038C241.007 85.503 241.007 85.5023 241.007 85.5015C241.007 85.5007 241.007 85.5 241.007 85.4992C241.007 85.4984 241.007 85.4976 241.007 85.4969C241.007 85.4961 241.007 85.4953 241.007 85.4946C241.007 85.4938 241.007 85.493 241.007 85.4922C241.007 85.4915 241.007 85.4907 241.007 85.4899C241.007 85.4892 241.007 85.4884 241.007 85.4876C241.007 85.4869 241.007 85.4861 241.007 85.4853C241.007 85.4845 241.007 85.4838 241.007 85.483C241.007 85.4822 241.007 85.4815 241.007 85.4807C241.007 85.4799 241.007 85.4792 241.007 85.4784C241.007 85.4776 241.007 85.4769 241.007 85.4761C241.007 85.4753 241.007 85.4746 241.007 85.4738C241.007 85.473 241.007 85.4723 241.007 85.4715C241.007 85.4707 241.007 85.47 241.007 85.4692C241.007 85.4684 241.007 85.4677 241.007 85.4669C241.007 85.4661 241.007 85.4654 241.007 85.4646C241.007 85.4638 241.007 85.4631 241.007 85.4623C241.007 85.4615 241.007 85.4608 241.007 85.46C241.007 85.4592 241.007 85.4585 241.007 85.4577C241.007 85.4569 241.007 85.4562 241.007 85.4554C241.007 85.4546 241.007 85.4539 241.007 85.4531C241.007 85.4523 241.007 85.4516 241.007 85.4508C241.007 85.45 241.007 85.4493 241.007 85.4485C241.007 85.4478 241.007 85.447 241.007 85.4462C241.007 85.4455 241.007 85.4447 241.007 85.4439C241.007 85.4432 241.007 85.4424 241.007 85.4416C241.007 85.4409 241.007 85.4401 241.007 85.4394C241.007 85.4386 241.007 85.4378 241.007 85.4371C241.007 85.4363 241.007 85.4355 241.007 85.4348C241.007 85.434 241.007 85.4333 241.007 85.4325C241.007 85.4317 241.007 85.431 241.007 85.4302C241.007 85.4295 241.007 85.4287 241.007 85.4279C241.007 85.4272 241.007 85.4264 241.007 85.4256C241.007 85.4249 241.007 85.4241 241.007 85.4234C241.007 85.4226 241.007 85.4218 241.007 85.4211C241.007 85.4203 241.007 85.4196 241.007 85.4188C241.007 85.418 241.007 85.4173 241.007 85.4165C241.007 85.4158 241.007 85.415 241.007 85.4142C241.007 85.4135 241.007 85.4127 241.007 85.412C241.007 85.4112 241.007 85.4105 241.007 85.4097C241.007 85.4089 241.007 85.4082 241.007 85.4074C241.007 85.4067 241.007 85.4059 241.007 85.4051C241.007 85.4044 241.007 85.4036 241.007 85.4029C241.007 85.4021 241.007 85.4014 241.007 85.4006C241.007 85.3998 241.007 85.3991 241.007 85.3983C241.007 85.3976 241.007 85.3968 241.007 85.3961C241.007 85.3953 241.007 85.3945 241.007 85.3938C241.007 85.393 241.007 85.3923 241.007 85.3915C241.007 85.3908 241.007 85.39 241.007 85.3893C241.007 85.3885 241.007 85.3877 241.007 85.387C241.007 85.3862 241.007 85.3855 241.007 85.3847C241.007 85.384 241.007 85.3832 241.007 85.3825C241.007 85.3817 241.007 85.381 241.007 85.3802C241.007 85.3794 241.007 85.3787 241.007 85.3779C241.007 85.3772 241.007 85.3764 241.007 85.3757C241.007 85.3749 241.007 85.3742 241.007 85.3734C241.007 85.3727 241.007 85.3719 241.007 85.3712C241.007 85.3704 241.007 85.3697 241.007 85.3689C241.007 85.3681 241.007 85.3674 241.007 85.3666C241.007 85.3659 241.007 85.3651 241.007 85.3644C241.007 85.3636 241.007 85.3629 241.007 85.3621C241.007 85.3614 241.007 85.3606 241.007 85.3599C241.007 85.3591 241.007 85.3584 241.007 85.3576C241.007 85.3569 241.007 85.3561 241.007 85.3554C241.007 85.3546 241.007 85.3539 241.007 85.3531C241.007 85.3524 241.007 85.3516 241.007 85.3509C241.007 85.3501 241.007 85.3494 241.007 85.3486C241.007 85.3479 241.007 85.3471 241.007 85.3464C241.007 85.3456 241.007 85.3449 241.007 85.3441C241.007 85.3434 241.007 85.3426 241.007 85.3419C241.007 85.3411 241.007 85.3404 241.007 85.3396C241.007 85.3389 241.007 85.3381 241.007 85.3374C241.007 85.3366 241.007 85.3359 241.007 85.3352C241.007 85.3344 241.007 85.3337 241.007 85.3329C241.007 85.3322 241.007 85.3314 241.007 85.3307C241.007 85.3299 241.007 85.3292 241.007 85.3284C241.007 85.3277 241.007 85.3269 241.007 85.3262C241.007 85.3254 241.007 85.3247 241.007 85.324C241.007 85.3232 241.007 85.3225 241.007 85.3217C241.007 85.321 241.007 85.3202 241.007 85.3195C241.007 85.3187 241.007 85.318 241.007 85.3172C241.007 85.3165 241.007 85.3158 241.007 85.315C241.007 85.3143 241.007 85.3135 241.007 85.3128C241.007 85.312 241.007 85.3113 241.007 85.3105C241.007 85.3098 241.007 85.3091 241.007 85.3083C241.007 85.3076 241.007 85.3068 241.007 85.3061C241.007 85.3053 241.007 85.3046 241.007 85.3039C241.007 85.3031 241.007 85.3024 241.007 85.3016C241.007 85.3009 241.007 85.3001 241.007 85.2994C241.007 85.2987 241.007 85.2979 241.007 85.2972C241.007 85.2964 241.007 85.2957 241.007 85.2949C241.007 85.2942 241.007 85.2935 241.007 85.2927C241.007 85.292 241.007 85.2912 241.007 85.2905C241.007 85.2898 241.007 85.289 241.007 85.2883C241.007 85.2875 241.007 85.2868 241.007 85.2861C241.007 85.2853 241.007 85.2846 241.007 85.2838C241.007 85.2831 241.007 85.2824 241.007 85.2816C241.007 85.2809 241.007 85.2801 241.007 85.2794C241.007 85.2787 241.007 85.2779 241.007 85.2772C241.007 85.2764 241.007 85.2757 241.007 85.275C241.007 85.2742 241.007 85.2735 241.007 85.2728C241.007 85.272 241.007 85.2713 241.007 85.2705C241.007 85.2698 241.007 85.2691 241.007 85.2683C241.007 85.2676 241.007 85.2668 241.007 85.2661C241.007 85.2654 241.007 85.2646 241.007 85.2639C241.007 85.2632 241.007 85.2624 241.007 85.2617C241.007 85.261 241.007 85.2602 241.007 85.2595C241.007 85.2587 241.007 85.258 241.007 85.2573C241.007 85.2565 241.007 85.2558 241.007 85.2551C241.007 85.2543 241.007 85.2536 241.007 85.2529C241.007 85.2521 241.007 85.2514 241.007 85.2507C241.007 85.2499 241.007 85.2492 241.007 85.2484C241.007 85.2477 241.007 85.247 241.007 85.2462C241.007 85.2455 241.007 85.2448 241.007 85.244C241.007 85.2433 241.007 85.2426 241.007 85.2418C241.007 85.2411 241.007 85.2404 241.007 85.2396C241.007 85.2389 241.007 85.2382 241.007 85.2374C241.007 85.2367 241.007 85.236 241.007 85.2352C241.007 85.2345 241.007 85.2338 241.007 85.233C241.007 85.2323 241.007 85.2316 241.007 85.2309C241.007 85.2301 241.007 85.2294 241.007 85.2287C241.007 85.2279 241.007 85.2272 241.007 85.2265C241.007 85.2257 241.007 85.225 241.007 85.2243C241.007 85.2235 241.007 85.2228 241.007 85.2221C241.007 85.2213 241.007 85.2206 241.007 85.2199C241.007 85.2192 241.007 85.2184 241.007 85.2177C241.007 85.217 241.007 85.2162 241.007 85.2155C241.007 85.2148 241.007 85.214 241.007 85.2133C241.007 85.2126 241.007 85.2119 241.007 85.2111C241.007 85.2104 241.007 85.2097 241.007 85.2089C241.007 85.2082 241.007 85.2075 241.007 85.2068C241.007 85.206 241.007 85.2053 241.007 85.2046C241.007 85.2038 241.007 85.2031 241.007 85.2024C241.007 85.2017 241.007 85.2009 241.007 85.2002C241.007 85.1995 241.007 85.1988 241.007 85.198C241.007 85.1973 241.007 85.1966 241.007 85.1958C241.007 85.1951 241.007 85.1944 241.007 85.1937C241.007 85.1929 241.007 85.1922 241.007 85.1915C241.007 85.1908 241.007 85.19 241.007 85.1893C241.007 85.1886 241.007 85.1879 241.007 85.1871C241.007 85.1864 241.007 85.1857 241.007 85.185C241.007 85.1842 241.007 85.1835 241.007 85.1828C241.007 85.1821 241.007 85.1813 241.007 85.1806C241.007 85.1799 241.007 85.1792 241.007 85.1784C241.007 85.1777 241.007 85.177 241.007 85.1763C241.007 85.1755 241.007 85.1748 241.007 85.1741C241.007 85.1734 241.007 85.1726 241.007 85.1719C241.007 85.1712 241.007 85.1705 241.007 85.1698C241.007 85.169 241.007 85.1683 241.007 85.1676C241.007 85.1669 241.007 85.1661 241.007 85.1654C241.007 85.1647 241.007 85.164 241.007 85.1633C241.007 85.1625 241.007 85.1618 241.007 85.1611C241.007 85.1604 241.007 85.1596 241.007 85.1589C241.007 85.1582 241.007 85.1575 241.007 85.1568C241.007 85.156 241.007 85.1553 241.007 85.1546C241.007 85.1539 241.007 85.1532 241.007 85.1524C241.007 85.1517 241.007 85.151 241.007 85.1503C241.007 85.1496 241.007 85.1488 241.007 85.1481C241.007 85.1474 241.007 85.1467 241.007 85.146C241.007 85.1452 241.007 85.1445 241.007 85.1438C241.007 85.1431 241.007 85.1424 241.007 85.1417C241.007 85.1409 241.007 85.1402 241.007 85.1395C241.007 85.1388 241.007 85.1381 241.007 85.1373C241.007 85.1366 241.007 85.1359 241.007 85.1352C241.007 85.1345 241.007 85.1338 241.007 85.133C241.007 85.1323 241.007 85.1316 241.007 85.1309C241.007 85.1302 241.007 85.1295 241.007 85.1287C241.007 85.128 241.007 85.1273 241.007 85.1266C241.007 85.1259 241.007 85.1252 241.007 85.1244C241.007 85.1237 241.007 85.123 241.007 85.1223C241.007 85.1216 241.007 85.1209 241.007 85.1202C241.007 85.1194 241.007 85.1187 241.007 85.118C241.007 85.1173 241.007 85.1166 241.007 85.1159C241.007 85.1151 241.007 85.1144 241.007 85.1137C241.007 85.113 241.007 85.1123 241.007 85.1116C241.007 85.1109 241.007 85.1102 241.007 85.1094C241.007 85.1087 241.007 85.108 241.007 85.1073C241.007 85.1066 241.007 85.1059 241.007 85.1052C241.007 85.1044 241.007 85.1037 241.007 85.103C241.007 85.1023 241.007 85.1016 241.007 85.1009C241.007 85.1002 241.007 85.0995 241.007 85.0987C241.007 85.098 241.007 85.0973 241.007 85.0966C241.007 85.0959 241.007 85.0952 241.007 85.0945C241.007 85.0938 241.007 85.0931 241.007 85.0923C241.007 85.0916 241.007 85.0909 241.007 85.0902C241.007 85.0895 241.007 85.0888 241.007 85.0881C241.007 85.0874 241.007 85.0867 241.007 85.086C241.007 85.0852 241.007 85.0845 241.007 85.0838C241.007 85.0831 241.007 85.0824 241.007 85.0817C241.007 85.081 241.007 85.0803 241.007 85.0796C241.007 85.0789 241.007 85.0782 241.007 85.0774C241.007 85.0767 241.007 85.076 241.007 85.0753C241.007 85.0746 241.007 85.0739 241.007 85.0732C241.007 85.0725 241.007 85.0718 241.007 85.0711C241.007 85.0704 241.007 85.0697 241.007 85.0689C241.007 85.0682 241.007 85.0675 241.007 85.0668C241.007 85.0661 241.007 85.0654 241.007 85.0647C241.007 85.064 241.007 85.0633 241.007 85.0626C241.007 85.0619 241.007 85.0612 241.007 85.0605C241.007 85.0598 241.007 85.0591 241.007 85.0584C241.007 85.0576 241.007 85.0569 241.007 85.0562C241.007 85.0555 241.007 85.0548 241.007 85.0541C241.007 85.0534 241.007 85.0527 241.007 85.052C241.007 85.0513 241.007 85.0506 241.007 85.0499C241.007 85.0492 241.007 85.0485 241.007 85.0478C241.007 85.0471 241.007 85.0464 241.007 85.0457C241.007 85.045 241.007 85.0443 241.007 85.0436C241.007 85.0429 241.007 85.0422 241.007 85.0415C241.007 85.0408 241.007 85.04 241.007 85.0393C241.007 85.0386 241.007 85.0379 241.007 85.0372C241.007 85.0365 241.007 85.0358 241.007 85.0351C241.007 85.0344 241.007 85.0337 241.007 85.033C241.007 85.0323 241.007 85.0316 241.007 85.0309C241.007 85.0302 241.007 85.0295 241.007 85.0288C241.007 85.0281 241.007 85.0274 241.007 85.0267C241.007 85.026 241.007 85.0253 241.007 85.0246C241.007 85.0239 241.007 85.0232 241.007 85.0225C241.007 85.0218 241.007 85.0211 241.007 85.0204C241.007 85.0197 241.007 85.019 241.007 85.0183C241.007 85.0176 241.007 85.0169 241.007 85.0162C241.007 85.0155 241.007 85.0148 241.007 85.0141C241.007 85.0134 241.007 85.0127 241.007 85.012C241.007 85.0113 241.007 85.0106 241.007 85.0099C241.007 85.0092 241.007 85.0085 241.007 85.0078C241.007 85.0071 241.007 85.0064 241.007 85.0058C241.007 85.0051 241.007 85.0044 241.007 85.0037C241.007 85.003 241.007 85.0023 241.007 85.0016C241.007 85.0009 241.007 85.0002 241.007 84.9995C241.007 84.9988 241.007 84.9981 241.007 84.9974C241.007 84.9967 241.007 84.996 241.007 84.9953C241.007 84.9946 241.007 84.9939 241.007 84.9932C241.007 84.9925 241.007 84.9918 241.007 84.9911C241.007 84.9904 241.007 84.9897 241.007 84.989C241.007 84.9884 241.007 84.9877 241.007 84.987C241.007 84.9863 241.007 84.9856 241.007 84.9849C241.007 84.9842 241.007 84.9835 241.007 84.9828C241.007 84.9821 241.007 84.9814 241.007 84.9807C241.007 84.98 241.007 84.9793 241.007 84.9786C241.007 84.9779 241.007 84.9773 241.007 84.9766C241.007 84.9759 241.007 84.9752 241.007 84.9745C241.007 84.9738 241.007 84.9731 241.007 84.9724C241.007 84.9717 241.007 84.971 241.007 84.9703C241.007 84.9696 241.007 84.969 241.007 84.9683C241.007 84.9676 241.007 84.9669 241.007 84.9662C241.007 84.9655 241.007 84.9648 241.007 84.9641C241.007 84.9634 241.007 84.9627 241.007 84.962C241.007 84.9614 241.007 84.9607 241.007 84.96C241.007 84.9593 241.007 84.9586 241.007 84.9579C241.007 84.9572 241.007 84.9565 241.007 84.9558C241.007 84.9551 241.007 84.9545 241.007 84.9538C241.007 84.9531 241.007 84.9524 241.007 84.9517C241.007 84.951 241.007 84.9503 241.007 84.9496C241.007 84.9489 241.007 84.9483 241.007 84.9476C241.007 84.9469 241.007 84.9462 241.007 84.9455C241.007 84.9448 241.007 84.9441 241.007 84.9434C241.007 84.9428 241.007 84.9421 241.007 84.9414C241.007 84.9407 241.007 84.94 241.007 84.9393C241.007 84.9386 241.007 84.9379 241.007 84.9373C241.007 84.9366 241.007 84.9359 241.007 84.9352C241.007 84.9345 241.007 84.9338 241.007 84.9331C241.007 84.9325 241.007 84.9318 241.007 84.9311C241.007 84.9304 241.007 84.9297 241.007 84.929C241.007 84.9284 241.007 84.9277 241.007 84.927C241.007 84.9263 241.007 84.9256 241.007 84.9249C241.007 84.9242 241.007 84.9236 241.007 84.9229C241.007 84.9222 241.007 84.9215 241.007 84.9208C241.007 84.9201 241.007 84.9195 241.007 84.9188C241.007 84.9181 241.007 84.9174 241.007 84.9167C241.007 84.916 241.007 84.9154 241.007 84.9147C241.007 84.914 241.007 84.9133 241.007 84.9126C241.007 84.9119 241.007 84.9113 241.007 84.9106C241.007 84.9099 241.007 84.9092 241.007 84.9085C241.007 84.9079 241.007 84.9072 241.007 84.9065C241.007 84.9058 241.007 84.9051 241.007 84.9044C241.007 84.9038 241.007 84.9031 241.007 84.9024C241.007 84.9017 241.007 84.901 241.007 84.9004C241.007 84.8997 241.007 84.899 241.007 84.8983C241.007 84.8976 241.007 84.897 241.007 84.8963C241.007 84.8956 241.007 84.8949 241.007 84.8942C241.007 84.8936 241.007 84.8929 241.007 84.8922C241.007 84.8915 241.007 84.8908 241.007 84.8902C241.007 84.8895 241.007 84.8888 241.007 84.8881C241.007 84.8875 241.007 84.8868 241.007 84.8861C241.007 84.8854 241.007 84.8847 241.007 84.8841C241.007 84.8834 241.007 84.8827 241.007 84.882C241.007 84.8814 241.007 84.8807 241.007 84.88H239.007C239.007 84.8807 239.007 84.8814 239.007 84.882C239.007 84.8827 239.007 84.8834 239.007 84.8841C239.007 84.8847 239.007 84.8854 239.007 84.8861C239.007 84.8868 239.007 84.8875 239.007 84.8881C239.007 84.8888 239.007 84.8895 239.007 84.8902C239.007 84.8908 239.007 84.8915 239.007 84.8922C239.007 84.8929 239.007 84.8936 239.007 84.8942C239.007 84.8949 239.007 84.8956 239.007 84.8963C239.007 84.897 239.007 84.8976 239.007 84.8983C239.007 84.899 239.007 84.8997 239.007 84.9004C239.007 84.901 239.007 84.9017 239.007 84.9024C239.007 84.9031 239.007 84.9038 239.007 84.9044C239.007 84.9051 239.007 84.9058 239.007 84.9065C239.007 84.9072 239.007 84.9079 239.007 84.9085C239.007 84.9092 239.007 84.9099 239.007 84.9106C239.007 84.9113 239.007 84.9119 239.007 84.9126C239.007 84.9133 239.007 84.914 239.007 84.9147C239.007 84.9154 239.007 84.916 239.007 84.9167C239.007 84.9174 239.007 84.9181 239.007 84.9188C239.007 84.9195 239.007 84.9201 239.007 84.9208C239.007 84.9215 239.007 84.9222 239.007 84.9229C239.007 84.9236 239.007 84.9242 239.007 84.9249C239.007 84.9256 239.007 84.9263 239.007 84.927C239.007 84.9277 239.007 84.9284 239.007 84.929C239.007 84.9297 239.007 84.9304 239.007 84.9311C239.007 84.9318 239.007 84.9325 239.007 84.9331C239.007 84.9338 239.007 84.9345 239.007 84.9352C239.007 84.9359 239.007 84.9366 239.007 84.9373C239.007 84.9379 239.007 84.9386 239.007 84.9393C239.007 84.94 239.007 84.9407 239.007 84.9414C239.007 84.9421 239.007 84.9428 239.007 84.9434C239.007 84.9441 239.007 84.9448 239.007 84.9455C239.007 84.9462 239.007 84.9469 239.007 84.9476C239.007 84.9483 239.007 84.9489 239.007 84.9496C239.007 84.9503 239.007 84.951 239.007 84.9517C239.007 84.9524 239.007 84.9531 239.007 84.9538C239.007 84.9545 239.007 84.9551 239.007 84.9558C239.007 84.9565 239.007 84.9572 239.007 84.9579C239.007 84.9586 239.007 84.9593 239.007 84.96C239.007 84.9607 239.007 84.9614 239.007 84.962C239.007 84.9627 239.007 84.9634 239.007 84.9641C239.007 84.9648 239.007 84.9655 239.007 84.9662C239.007 84.9669 239.007 84.9676 239.007 84.9683C239.007 84.969 239.007 84.9696 239.007 84.9703C239.007 84.971 239.007 84.9717 239.007 84.9724C239.007 84.9731 239.007 84.9738 239.007 84.9745C239.007 84.9752 239.007 84.9759 239.007 84.9766C239.007 84.9773 239.007 84.9779 239.007 84.9786C239.007 84.9793 239.007 84.98 239.007 84.9807C239.007 84.9814 239.007 84.9821 239.007 84.9828C239.007 84.9835 239.007 84.9842 239.007 84.9849C239.007 84.9856 239.007 84.9863 239.007 84.987C239.007 84.9877 239.007 84.9884 239.007 84.989C239.007 84.9897 239.007 84.9904 239.007 84.9911C239.007 84.9918 239.007 84.9925 239.007 84.9932C239.007 84.9939 239.007 84.9946 239.007 84.9953C239.007 84.996 239.007 84.9967 239.007 84.9974C239.007 84.9981 239.007 84.9988 239.007 84.9995C239.007 85.0002 239.007 85.0009 239.007 85.0016C239.007 85.0023 239.007 85.003 239.007 85.0037C239.007 85.0044 239.007 85.0051 239.007 85.0058C239.007 85.0064 239.007 85.0071 239.007 85.0078C239.007 85.0085 239.007 85.0092 239.007 85.0099C239.007 85.0106 239.007 85.0113 239.007 85.012C239.007 85.0127 239.007 85.0134 239.007 85.0141C239.007 85.0148 239.007 85.0155 239.007 85.0162C239.007 85.0169 239.007 85.0176 239.007 85.0183C239.007 85.019 239.007 85.0197 239.007 85.0204C239.007 85.0211 239.007 85.0218 239.007 85.0225C239.007 85.0232 239.007 85.0239 239.007 85.0246C239.007 85.0253 239.007 85.026 239.007 85.0267C239.007 85.0274 239.007 85.0281 239.007 85.0288C239.007 85.0295 239.007 85.0302 239.007 85.0309C239.007 85.0316 239.007 85.0323 239.007 85.033C239.007 85.0337 239.007 85.0344 239.007 85.0351C239.007 85.0358 239.007 85.0365 239.007 85.0372C239.007 85.0379 239.007 85.0386 239.007 85.0393C239.007 85.04 239.007 85.0408 239.007 85.0415C239.007 85.0422 239.007 85.0429 239.007 85.0436C239.007 85.0443 239.007 85.045 239.007 85.0457C239.007 85.0464 239.007 85.0471 239.007 85.0478C239.007 85.0485 239.007 85.0492 239.007 85.0499C239.007 85.0506 239.007 85.0513 239.007 85.052C239.007 85.0527 239.007 85.0534 239.007 85.0541C239.007 85.0548 239.007 85.0555 239.007 85.0562C239.007 85.0569 239.007 85.0576 239.007 85.0584C239.007 85.0591 239.007 85.0598 239.007 85.0605C239.007 85.0612 239.007 85.0619 239.007 85.0626C239.007 85.0633 239.007 85.064 239.007 85.0647C239.007 85.0654 239.007 85.0661 239.007 85.0668C239.007 85.0675 239.007 85.0682 239.007 85.0689C239.007 85.0697 239.007 85.0704 239.007 85.0711C239.007 85.0718 239.007 85.0725 239.007 85.0732C239.007 85.0739 239.007 85.0746 239.007 85.0753C239.007 85.076 239.007 85.0767 239.007 85.0774C239.007 85.0782 239.007 85.0789 239.007 85.0796C239.007 85.0803 239.007 85.081 239.007 85.0817C239.007 85.0824 239.007 85.0831 239.007 85.0838C239.007 85.0845 239.007 85.0852 239.007 85.086C239.007 85.0867 239.007 85.0874 239.007 85.0881C239.007 85.0888 239.007 85.0895 239.007 85.0902C239.007 85.0909 239.007 85.0916 239.007 85.0923C239.007 85.0931 239.007 85.0938 239.007 85.0945C239.007 85.0952 239.007 85.0959 239.007 85.0966C239.007 85.0973 239.007 85.098 239.007 85.0987C239.007 85.0995 239.007 85.1002 239.007 85.1009C239.007 85.1016 239.007 85.1023 239.007 85.103C239.007 85.1037 239.007 85.1044 239.007 85.1052C239.007 85.1059 239.007 85.1066 239.007 85.1073C239.007 85.108 239.007 85.1087 239.007 85.1094C239.007 85.1102 239.007 85.1109 239.007 85.1116C239.007 85.1123 239.007 85.113 239.007 85.1137C239.007 85.1144 239.007 85.1151 239.007 85.1159C239.007 85.1166 239.007 85.1173 239.007 85.118C239.007 85.1187 239.007 85.1194 239.007 85.1202C239.007 85.1209 239.007 85.1216 239.007 85.1223C239.007 85.123 239.007 85.1237 239.007 85.1244C239.007 85.1252 239.007 85.1259 239.007 85.1266C239.007 85.1273 239.007 85.128 239.007 85.1287C239.007 85.1295 239.007 85.1302 239.007 85.1309C239.007 85.1316 239.007 85.1323 239.007 85.133C239.007 85.1338 239.007 85.1345 239.007 85.1352C239.007 85.1359 239.007 85.1366 239.007 85.1373C239.007 85.1381 239.007 85.1388 239.007 85.1395C239.007 85.1402 239.007 85.1409 239.007 85.1417C239.007 85.1424 239.007 85.1431 239.007 85.1438C239.007 85.1445 239.007 85.1452 239.007 85.146C239.007 85.1467 239.007 85.1474 239.007 85.1481C239.007 85.1488 239.007 85.1496 239.007 85.1503C239.007 85.151 239.007 85.1517 239.007 85.1524C239.007 85.1532 239.007 85.1539 239.007 85.1546C239.007 85.1553 239.007 85.156 239.007 85.1568C239.007 85.1575 239.007 85.1582 239.007 85.1589C239.007 85.1596 239.007 85.1604 239.007 85.1611C239.007 85.1618 239.007 85.1625 239.007 85.1633C239.007 85.164 239.007 85.1647 239.007 85.1654C239.007 85.1661 239.007 85.1669 239.007 85.1676C239.007 85.1683 239.007 85.169 239.007 85.1698C239.007 85.1705 239.007 85.1712 239.007 85.1719C239.007 85.1726 239.007 85.1734 239.007 85.1741C239.007 85.1748 239.007 85.1755 239.007 85.1763C239.007 85.177 239.007 85.1777 239.007 85.1784C239.007 85.1792 239.007 85.1799 239.007 85.1806C239.007 85.1813 239.007 85.1821 239.007 85.1828C239.007 85.1835 239.007 85.1842 239.007 85.185C239.007 85.1857 239.007 85.1864 239.007 85.1871C239.007 85.1879 239.007 85.1886 239.007 85.1893C239.007 85.19 239.007 85.1908 239.007 85.1915C239.007 85.1922 239.007 85.1929 239.007 85.1937C239.007 85.1944 239.007 85.1951 239.007 85.1958C239.007 85.1966 239.007 85.1973 239.007 85.198C239.007 85.1988 239.007 85.1995 239.007 85.2002C239.007 85.2009 239.007 85.2017 239.007 85.2024C239.007 85.2031 239.007 85.2038 239.007 85.2046C239.007 85.2053 239.007 85.206 239.007 85.2068C239.007 85.2075 239.007 85.2082 239.007 85.2089C239.007 85.2097 239.007 85.2104 239.007 85.2111C239.007 85.2119 239.007 85.2126 239.007 85.2133C239.007 85.214 239.007 85.2148 239.007 85.2155C239.007 85.2162 239.007 85.217 239.007 85.2177C239.007 85.2184 239.007 85.2192 239.007 85.2199C239.007 85.2206 239.007 85.2213 239.007 85.2221C239.007 85.2228 239.007 85.2235 239.007 85.2243C239.007 85.225 239.007 85.2257 239.007 85.2265C239.007 85.2272 239.007 85.2279 239.007 85.2287C239.007 85.2294 239.007 85.2301 239.007 85.2309C239.007 85.2316 239.007 85.2323 239.007 85.233C239.007 85.2338 239.007 85.2345 239.007 85.2352C239.007 85.236 239.007 85.2367 239.007 85.2374C239.007 85.2382 239.007 85.2389 239.007 85.2396C239.007 85.2404 239.007 85.2411 239.007 85.2418C239.007 85.2426 239.007 85.2433 239.007 85.244C239.007 85.2448 239.007 85.2455 239.007 85.2462C239.007 85.247 239.007 85.2477 239.007 85.2484C239.007 85.2492 239.007 85.2499 239.007 85.2507C239.007 85.2514 239.007 85.2521 239.007 85.2529C239.007 85.2536 239.007 85.2543 239.007 85.2551C239.007 85.2558 239.007 85.2565 239.007 85.2573C239.007 85.258 239.007 85.2587 239.007 85.2595C239.007 85.2602 239.007 85.261 239.007 85.2617C239.007 85.2624 239.007 85.2632 239.007 85.2639C239.007 85.2646 239.007 85.2654 239.007 85.2661C239.007 85.2668 239.007 85.2676 239.007 85.2683C239.007 85.2691 239.007 85.2698 239.007 85.2705C239.007 85.2713 239.007 85.272 239.007 85.2728C239.007 85.2735 239.007 85.2742 239.007 85.275C239.007 85.2757 239.007 85.2764 239.007 85.2772C239.007 85.2779 239.007 85.2787 239.007 85.2794C239.007 85.2801 239.007 85.2809 239.007 85.2816C239.007 85.2824 239.007 85.2831 239.007 85.2838C239.007 85.2846 239.007 85.2853 239.007 85.2861C239.007 85.2868 239.007 85.2875 239.007 85.2883C239.007 85.289 239.007 85.2898 239.007 85.2905C239.007 85.2912 239.007 85.292 239.007 85.2927C239.007 85.2935 239.007 85.2942 239.007 85.2949C239.007 85.2957 239.007 85.2964 239.007 85.2972C239.007 85.2979 239.007 85.2987 239.007 85.2994C239.007 85.3001 239.007 85.3009 239.007 85.3016C239.007 85.3024 239.007 85.3031 239.007 85.3039C239.007 85.3046 239.007 85.3053 239.007 85.3061C239.007 85.3068 239.007 85.3076 239.007 85.3083C239.007 85.3091 239.007 85.3098 239.007 85.3105C239.007 85.3113 239.007 85.312 239.007 85.3128C239.007 85.3135 239.007 85.3143 239.007 85.315C239.007 85.3158 239.007 85.3165 239.007 85.3172C239.007 85.318 239.007 85.3187 239.007 85.3195C239.007 85.3202 239.007 85.321 239.007 85.3217C239.007 85.3225 239.007 85.3232 239.007 85.324C239.007 85.3247 239.007 85.3254 239.007 85.3262C239.007 85.3269 239.007 85.3277 239.007 85.3284C239.007 85.3292 239.007 85.3299 239.007 85.3307C239.007 85.3314 239.007 85.3322 239.007 85.3329C239.007 85.3337 239.007 85.3344 239.007 85.3352C239.007 85.3359 239.007 85.3366 239.007 85.3374C239.007 85.3381 239.007 85.3389 239.007 85.3396C239.007 85.3404 239.007 85.3411 239.007 85.3419C239.007 85.3426 239.007 85.3434 239.007 85.3441C239.007 85.3449 239.007 85.3456 239.007 85.3464C239.007 85.3471 239.007 85.3479 239.007 85.3486C239.007 85.3494 239.007 85.3501 239.007 85.3509C239.007 85.3516 239.007 85.3524 239.007 85.3531C239.007 85.3539 239.007 85.3546 239.007 85.3554C239.007 85.3561 239.007 85.3569 239.007 85.3576C239.007 85.3584 239.007 85.3591 239.007 85.3599C239.007 85.3606 239.007 85.3614 239.007 85.3621C239.007 85.3629 239.007 85.3636 239.007 85.3644C239.007 85.3651 239.007 85.3659 239.007 85.3666C239.007 85.3674 239.007 85.3681 239.007 85.3689C239.007 85.3697 239.007 85.3704 239.007 85.3712C239.007 85.3719 239.007 85.3727 239.007 85.3734C239.007 85.3742 239.007 85.3749 239.007 85.3757C239.007 85.3764 239.007 85.3772 239.007 85.3779C239.007 85.3787 239.007 85.3794 239.007 85.3802C239.007 85.381 239.007 85.3817 239.007 85.3825C239.007 85.3832 239.007 85.384 239.007 85.3847C239.007 85.3855 239.007 85.3862 239.007 85.387C239.007 85.3877 239.007 85.3885 239.007 85.3893C239.007 85.39 239.007 85.3908 239.007 85.3915C239.007 85.3923 239.007 85.393 239.007 85.3938C239.007 85.3945 239.007 85.3953 239.007 85.3961C239.007 85.3968 239.007 85.3976 239.007 85.3983C239.007 85.3991 239.007 85.3998 239.007 85.4006C239.007 85.4014 239.007 85.4021 239.007 85.4029C239.007 85.4036 239.007 85.4044 239.007 85.4051C239.007 85.4059 239.007 85.4067 239.007 85.4074C239.007 85.4082 239.007 85.4089 239.007 85.4097C239.007 85.4105 239.007 85.4112 239.007 85.412C239.007 85.4127 239.007 85.4135 239.007 85.4142C239.007 85.415 239.007 85.4158 239.007 85.4165C239.007 85.4173 239.007 85.418 239.007 85.4188C239.007 85.4196 239.007 85.4203 239.007 85.4211C239.007 85.4218 239.007 85.4226 239.007 85.4234C239.007 85.4241 239.007 85.4249 239.007 85.4256C239.007 85.4264 239.007 85.4272 239.007 85.4279C239.007 85.4287 239.007 85.4295 239.007 85.4302C239.007 85.431 239.007 85.4317 239.007 85.4325C239.007 85.4333 239.007 85.434 239.007 85.4348C239.007 85.4355 239.007 85.4363 239.007 85.4371C239.007 85.4378 239.007 85.4386 239.007 85.4394C239.007 85.4401 239.007 85.4409 239.007 85.4416C239.007 85.4424 239.007 85.4432 239.007 85.4439C239.007 85.4447 239.007 85.4455 239.007 85.4462C239.007 85.447 239.007 85.4478 239.007 85.4485C239.007 85.4493 239.007 85.45 239.007 85.4508C239.007 85.4516 239.007 85.4523 239.007 85.4531C239.007 85.4539 239.007 85.4546 239.007 85.4554C239.007 85.4562 239.007 85.4569 239.007 85.4577C239.007 85.4585 239.007 85.4592 239.007 85.46C239.007 85.4608 239.007 85.4615 239.007 85.4623C239.007 85.4631 239.007 85.4638 239.007 85.4646C239.007 85.4654 239.007 85.4661 239.007 85.4669C239.007 85.4677 239.007 85.4684 239.007 85.4692C239.007 85.47 239.007 85.4707 239.007 85.4715C239.007 85.4723 239.007 85.473 239.007 85.4738C239.007 85.4746 239.007 85.4753 239.007 85.4761C239.007 85.4769 239.007 85.4776 239.007 85.4784C239.007 85.4792 239.007 85.4799 239.007 85.4807C239.007 85.4815 239.007 85.4822 239.007 85.483C239.007 85.4838 239.007 85.4845 239.007 85.4853C239.007 85.4861 239.007 85.4869 239.007 85.4876C239.007 85.4884 239.007 85.4892 239.007 85.4899C239.007 85.4907 239.007 85.4915 239.007 85.4922C239.007 85.493 239.007 85.4938 239.007 85.4946C239.007 85.4953 239.007 85.4961 239.007 85.4969C239.007 85.4976 239.007 85.4984 239.007 85.4992C239.007 85.5 239.007 85.5007 239.007 85.5015C239.007 85.5023 239.007 85.503 239.007 85.5038C239.007 85.5046 239.007 85.5054 239.007 85.5061C239.007 85.5069 239.007 85.5077 239.007 85.5084C239.007 85.5092 239.007 85.51 239.007 85.5108C239.007 85.5115 239.007 85.5123 239.007 85.5131C239.007 85.5139 239.007 85.5146 239.007 85.5154C239.007 85.5162 239.007 85.517 239.007 85.5177C239.007 85.5185 239.007 85.5193 239.007 85.52C239.007 85.5208 239.007 85.5216 239.007 85.5224C239.007 85.5231 239.007 85.5239 239.007 85.5247C239.007 85.5255 239.007 85.5262 239.007 85.527C239.007 85.5278 239.007 85.5286 239.007 85.5293C239.007 85.5301 239.007 85.5309 239.007 85.5317C239.007 85.5325 239.007 85.5332 239.007 85.534C239.007 85.5348 239.007 85.5356 239.007 85.5363C239.007 85.5371 239.007 85.5379 239.007 85.5387C239.007 85.5394 239.007 85.5402 239.007 85.541C239.007 85.5418 239.007 85.5425 239.007 85.5433C239.007 85.5441 239.007 85.5449 239.007 85.5457C239.007 85.5464 239.007 85.5472 239.007 85.548C239.007 85.5488 239.007 85.5496 239.007 85.5503C239.007 85.5511 239.007 85.5519 239.007 85.5527C239.007 85.5534 239.007 85.5542 239.007 85.555C239.007 85.5558 239.007 85.5566 239.007 85.5573C239.007 85.5581 239.007 85.5589 239.007 85.5597C239.007 85.5605 239.007 85.5612 239.007 85.562C239.007 85.5628 239.007 85.5636 239.007 85.5644C239.007 85.5651 239.007 85.5659 239.007 85.5667C239.007 85.5675 239.007 85.5683 239.007 85.569C239.007 85.5698 239.007 85.5706 239.007 85.5714C239.007 85.5722 239.007 85.573 239.007 85.5737C239.007 85.5745 239.007 85.5753 239.007 85.5761C239.007 85.5769 239.007 85.5776 239.007 85.5784C239.007 85.5792 239.007 85.58 239.007 85.5808C239.007 85.5816 239.007 85.5823 239.007 85.5831C239.007 85.5839 239.007 85.5847 239.007 85.5855C239.007 85.5863 239.007 85.587 239.007 85.5878C239.007 85.5886 239.007 85.5894 239.007 85.5902C239.007 85.591 239.007 85.5917 239.007 85.5925C239.007 85.5933 239.007 85.5941 239.007 85.5949C239.007 85.5957 239.007 85.5965 239.007 85.5972C239.007 85.598 239.007 85.5988 239.007 85.5996C239.007 85.6004 239.007 85.6012 239.007 85.602C239.007 85.6027 239.007 85.6035 239.007 85.6043C239.007 85.6051 239.007 85.6059 239.007 85.6067C239.007 85.6075 239.007 85.6082 239.007 85.609C239.007 85.6098 239.007 85.6106 239.007 85.6114C239.007 85.6122 239.007 85.613 239.007 85.6138C239.007 85.6145 239.007 85.6153 239.007 85.6161C239.007 85.6169 239.007 85.6177 239.007 85.6185C239.007 85.6193 239.007 85.6201 239.007 85.6208C239.007 85.6216 239.007 85.6224 239.007 85.6232C239.007 85.624 239.007 85.6248 239.007 85.6256C239.007 85.6264 239.007 85.6272 239.007 85.6279C239.007 85.6287 239.007 85.6295 239.007 85.6303C239.007 85.6311 239.007 85.6319 239.007 85.6327C239.007 85.6335 239.007 85.6343 239.007 85.6351C239.007 85.6358 239.007 85.6366 239.007 85.6374C239.007 85.6382 239.007 85.639 239.007 85.6398C239.007 85.6406 239.007 85.6414 239.007 85.6422C239.007 85.643 239.007 85.6438 239.007 85.6446C239.007 85.6453 239.007 85.6461 239.007 85.6469C239.007 85.6477 239.007 85.6485 239.007 85.6493C239.007 85.6501 239.007 85.6509 239.007 85.6517C239.007 85.6525 239.007 85.6533 239.007 85.6541C239.007 85.6549 239.007 85.6556 239.007 85.6564C239.007 85.6572 239.007 85.658 239.007 85.6588C239.007 85.6596 239.007 85.6604 239.007 85.6612C239.007 85.662 239.007 85.6628 239.007 85.6636C239.007 85.6644 239.007 85.6652 239.007 85.666C239.007 85.6668 239.007 85.6676 239.007 85.6684C239.007 85.6692 239.007 85.6699 239.007 85.6707C239.007 85.6715 239.007 85.6723 239.007 85.6731C239.007 85.6739 239.007 85.6747 239.007 85.6755C239.007 85.6763 239.007 85.6771 239.007 85.6779C239.007 85.6787 239.007 85.6795 239.007 85.6803C239.007 85.6811 239.007 85.6819 239.007 85.6827C239.007 85.6835 239.007 85.6843 239.007 85.6851C239.007 85.6859 239.007 85.6867 239.007 85.6875C239.007 85.6883 239.007 85.6891 239.007 85.6899C239.007 85.6907 239.007 85.6915 239.007 85.6923C239.007 85.6931 239.007 85.6939 239.007 85.6947C239.007 85.6955 239.007 85.6963 239.007 85.6971C239.007 85.6979 239.007 85.6987 239.007 85.6994C239.007 85.7002 239.007 85.701 239.007 85.7018C239.007 85.7026 239.007 85.7034 239.007 85.7042C239.007 85.705 239.007 85.7058 239.007 85.7066C239.007 85.7074 239.007 85.7082 239.007 85.7091C239.007 85.7099 239.007 85.7107 239.007 85.7115C239.007 85.7123 239.007 85.7131 239.007 85.7139C239.007 85.7147 239.007 85.7155 239.007 85.7163C239.007 85.7171 239.007 85.7179 239.007 85.7187C239.007 85.7195 239.007 85.7203 239.007 85.7211C239.007 85.7219 239.007 85.7227 239.007 85.7235C239.007 85.7243 239.007 85.7251 239.007 85.7259C239.007 85.7267 239.007 85.7275 239.007 85.7283C239.007 85.7291 239.007 85.7299 239.007 85.7307C239.007 85.7315 239.007 85.7323 239.007 85.7331C239.007 85.7339 239.007 85.7347 239.007 85.7355C239.007 85.7363 239.007 85.7371 239.007 85.7379C239.007 85.7388 239.007 85.7396 239.007 85.7404C239.007 85.7412 239.007 85.742 239.007 85.7428C239.007 85.7436 239.007 85.7444 239.007 85.7452C239.007 85.746 239.007 85.7468 239.007 85.7476C239.007 85.7484 239.007 85.7492 239.007 85.75C239.007 85.7508 239.007 85.7516 239.007 85.7525C239.007 85.7533 239.007 85.7541 239.007 85.7549C239.007 85.7557 239.007 85.7565 239.007 85.7573C239.007 85.7581 239.007 85.7589 239.007 85.7597C239.007 85.7605 239.007 85.7613 239.007 85.7621C239.007 85.7629 239.007 85.7638 239.007 85.7646C239.007 85.7654 239.007 85.7662 239.007 85.767C239.007 85.7678 239.007 85.7686 239.007 85.7694C239.007 85.7702 239.007 85.771 239.007 85.7718C239.007 85.7727 239.007 85.7735 239.007 85.7743C239.007 85.7751 239.007 85.7759 239.007 85.7767C239.007 85.7775 239.007 85.7783 239.007 85.7791C239.007 85.7799 239.007 85.7808 239.007 85.7816C239.007 85.7824 239.007 85.7832 239.007 85.784C239.007 85.7848 239.007 85.7856 239.007 85.7864C239.007 85.7872 239.007 85.7881 239.007 85.7889C239.007 85.7897 239.007 85.7905 239.007 85.7913C239.007 85.7921 239.007 85.7929 239.007 85.7937C239.007 85.7945 239.007 85.7954 239.007 85.7962C239.007 85.797 239.007 85.7978 239.007 85.7986C239.007 85.7994 239.007 85.8002 239.007 85.801C239.007 85.8019 239.007 85.8027 239.007 85.8035C239.007 85.8043 239.007 85.8051 239.007 85.8059C239.007 85.8067 239.007 85.8076 239.007 85.8084C239.007 85.8092 239.007 85.81 239.007 85.8108C239.007 85.8116 239.007 85.8124 239.007 85.8133C239.007 85.8141 239.007 85.8149 239.007 85.8157C239.007 85.8165 239.007 85.8173 239.007 85.8182C239.007 85.819 239.007 85.8198 239.007 85.8206C239.007 85.8214 239.007 85.8222 239.007 85.823C239.007 85.8239 239.007 85.8247 239.007 85.8255C239.007 85.8263 239.007 85.8271 239.007 85.8279C239.007 85.8288 239.007 85.8296 239.007 85.8304C239.007 85.8312 239.007 85.832 239.007 85.8329C239.007 85.8337 239.007 85.8345 239.007 85.8353C239.007 85.8361 239.007 85.8369 239.007 85.8378C239.007 85.8386 239.007 85.8394 239.007 85.8402C239.007 85.841 239.007 85.8419 239.007 85.8427C239.007 85.8435 239.007 85.8443 239.007 85.8451C239.007 85.8459 239.007 85.8468 239.007 85.8476C239.007 85.8484 239.007 85.8492 239.007 85.85C239.007 85.8509 239.007 85.8517 239.007 85.8525C239.007 85.8533 239.007 85.8541 239.007 85.855C239.007 85.8558 239.007 85.8566 239.007 85.8574C239.007 85.8583 239.007 85.8591 239.007 85.8599C239.007 85.8607 239.007 85.8615 239.007 85.8624C239.007 85.8632 239.007 85.864 239.007 85.8648C239.007 85.8656 239.007 85.8665 239.007 85.8673C239.007 85.8681 239.007 85.8689 239.007 85.8698C239.007 85.8706 239.007 85.8714 239.007 85.8722C239.007 85.873 239.007 85.8739 239.007 85.8747C239.007 85.8755 239.007 85.8763 239.007 85.8772C239.007 85.878 239.007 85.8788 239.007 85.8796C239.007 85.8805 239.007 85.8813 239.007 85.8821C239.007 85.8829 239.007 85.8838 239.007 85.8846C239.007 85.8854 239.007 85.8862 239.007 85.8871C239.007 85.8879 239.007 85.8887 239.007 85.8895C239.007 85.8904 239.007 85.8912 239.007 85.892C239.007 85.8928 239.007 85.8937 239.007 85.8945C239.007 85.8953 239.007 85.8961 239.007 85.897C239.007 85.8978 239.007 85.8986 239.007 85.8994C239.007 85.9003 239.007 85.9011 239.007 85.9019C239.007 85.9027 239.007 85.9036 239.007 85.9044C239.007 85.9052 239.007 85.9061 239.007 85.9069C239.007 85.9077 239.007 85.9085 239.007 85.9094C239.007 85.9102 239.007 85.911 239.007 85.9118C239.007 85.9127 239.007 85.9135 239.007 85.9143C239.007 85.9152 239.007 85.916 239.007 85.9168C239.007 85.9176 239.007 85.9185 239.007 85.9193C239.007 85.9201 239.007 85.921 239.007 85.9218C239.007 85.9226 239.007 85.9235 239.007 85.9243C239.007 85.9251 239.007 85.9259 239.007 85.9268C239.007 85.9276 239.007 85.9284 239.007 85.9293C239.007 85.9301 239.007 85.9309 239.007 85.9318C239.007 85.9326 239.007 85.9334 239.007 85.9342C239.007 85.9351 239.007 85.9359 239.007 85.9367C239.007 85.9376 239.007 85.9384 239.007 85.9392C239.007 85.9401 239.007 85.9409 239.007 85.9417C239.007 85.9426 239.007 85.9434 239.007 85.9442C239.007 85.9451 239.007 85.9459 239.007 85.9467C239.007 85.9476 239.007 85.9484 239.007 85.9492C239.007 85.9501 239.007 85.9509 239.007 85.9517C239.007 85.9526 239.007 85.9534 239.007 85.9542C239.007 85.9551 239.007 85.9559 239.007 85.9567C239.007 85.9576 239.007 85.9584 239.007 85.9592C239.007 85.9601 239.007 85.9609 239.007 85.9617C239.007 85.9626 239.007 85.9634 239.007 85.9642C239.007 85.9651 239.007 85.9659 239.007 85.9667C239.007 85.9676 239.007 85.9684 239.007 85.9693C239.007 85.9701 239.007 85.9709 239.007 85.9718C239.007 85.9726 239.007 85.9734 239.007 85.9743C239.007 85.9751 239.007 85.9759 239.007 85.9768C239.007 85.9776 239.007 85.9785 239.007 85.9793C239.007 85.9801 239.007 85.981 239.007 85.9818C239.007 85.9826 239.007 85.9835 239.007 85.9843C239.007 85.9852 239.007 85.986 239.007 85.9868C239.007 85.9877 239.007 85.9885 239.007 85.9893C239.007 85.9902 239.007 85.991 239.007 85.9919C239.007 85.9927 239.007 85.9935 239.007 85.9944C239.007 85.9952 239.007 85.9961 239.007 85.9969C239.007 85.9977 239.007 85.9986 239.007 85.9994C239.007 86.0003 239.007 86.0011 239.007 86.0019C239.007 86.0028 239.007 86.0036 239.007 86.0045C239.007 86.0053 239.007 86.0061 239.007 86.007C239.007 86.0078 239.007 86.0087 239.007 86.0095C239.007 86.0103 239.007 86.0112 239.007 86.012C239.007 86.0129 239.007 86.0137 239.007 86.0145C239.007 86.0154 239.007 86.0162 239.007 86.0171C239.007 86.0179 239.007 86.0188 239.007 86.0196C239.007 86.0204 239.007 86.0213 239.007 86.0221C239.007 86.023 239.007 86.0238 239.007 86.0247C239.007 86.0255 239.007 86.0263 239.007 86.0272C239.007 86.028 239.007 86.0289 239.007 86.0297C239.007 86.0306 239.007 86.0314 239.007 86.0322C239.007 86.0331 239.007 86.0339 239.007 86.0348C239.007 86.0356 239.007 86.0365 239.007 86.0373C239.007 86.0382 239.007 86.039 239.007 86.0398C239.007 86.0407 239.007 86.0415 239.007 86.0424C239.007 86.0432 239.007 86.0441 239.007 86.0449C239.007 86.0458 239.007 86.0466 239.007 86.0475C239.007 86.0483 239.007 86.0492 239.007 86.05H241.007ZM241.007 84.88C241.007 80.5333 239.78 77.0995 237.162 74.7726L235.833 76.2674C237.895 78.1005 239.007 80.9067 239.007 84.88H241.007ZM237.162 74.7726C234.629 72.5209 231.572 71.4 228.047 71.4V73.4C231.11 73.4 233.686 74.3591 235.833 76.2674L237.162 74.7726ZM271.79 38.6V37.6H270.79V38.6H271.79ZM287.78 38.6H288.78V37.6H287.78V38.6ZM291.55 108.8L290.755 109.407L290.763 109.417L291.55 108.8ZM315.73 108.8L316.518 109.417L316.525 109.407L315.73 108.8ZM319.5 38.6V37.6H318.5V38.6H319.5ZM335.49 38.6H336.49V37.6H335.49V38.6ZM327.56 119.33L328.31 119.992L328.314 119.987L327.56 119.33ZM279.59 119.33L278.831 119.981L278.836 119.987L278.841 119.992L279.59 119.33ZM271.79 39.6H287.78V37.6H271.79V39.6ZM286.78 38.6V95.28H288.78V38.6H286.78ZM286.78 95.28C286.78 101.137 288.067 105.884 290.755 109.407L292.345 108.193C290.007 105.13 288.78 100.863 288.78 95.28H286.78ZM290.763 109.417C293.529 112.945 297.905 114.61 303.64 114.61V112.61C298.282 112.61 294.598 111.068 292.337 108.183L290.763 109.417ZM303.64 114.61C309.376 114.61 313.752 112.945 316.517 109.417L314.943 108.183C312.682 111.068 308.998 112.61 303.64 112.61V114.61ZM316.525 109.407C319.214 105.884 320.5 101.137 320.5 95.28H318.5C318.5 100.863 317.273 105.13 314.935 108.193L316.525 109.407ZM320.5 95.28V38.6H318.5V95.28H320.5ZM319.5 39.6H335.49V37.6H319.5V39.6ZM334.49 38.6V95.28H336.49V38.6H334.49ZM334.49 95.28C334.49 105.065 331.899 112.829 326.806 118.673L328.314 119.987C333.795 113.698 336.49 105.428 336.49 95.28H334.49ZM326.811 118.668C321.772 124.367 314.115 127.3 303.64 127.3V129.3C314.486 129.3 322.775 126.253 328.31 119.992L326.811 118.668ZM303.64 127.3C293.076 127.3 285.377 124.366 280.34 118.668L278.841 119.992C284.377 126.254 292.711 129.3 303.64 129.3V127.3ZM280.35 118.679C275.341 112.835 272.79 105.069 272.79 95.28H270.79C270.79 105.424 273.44 113.691 278.831 119.981L280.35 118.679ZM272.79 95.28V38.6H270.79V95.28H272.79ZM377.543 127.65L377.347 128.631L377.355 128.632L377.543 127.65ZM370.913 125.83L371.24 124.885L369.913 124.426V125.83H370.913ZM370.913 154.69V155.69H371.913V154.69H370.913ZM355.963 154.69H354.963V155.69H355.963V154.69ZM355.963 61.09V60.09H354.963V61.09H355.963ZM370.133 61.09H371.133V60.09H370.133V61.09ZM370.133 70.06H369.133V72.4742L370.84 70.7671L370.133 70.06ZM380.533 61.87L380.097 60.9702L380.097 60.9702L380.533 61.87ZM404.843 119.98L404.085 119.328L404.085 119.328L404.843 119.98ZM379.103 75.52L379.565 76.4072L379.571 76.4039L379.577 76.4005L379.103 75.52ZM370.913 82.15L370.206 81.4429L369.913 81.7358V82.15H370.913ZM370.913 112.31H369.913V112.982L370.535 113.236L370.913 112.31ZM393.403 110.23L392.582 109.66L392.582 109.66L393.403 110.23ZM393.663 77.73L392.848 78.3087L392.854 78.3174L392.86 78.3258L393.663 77.73ZM384.173 127.3C382.074 127.3 379.927 127.09 377.732 126.668L377.355 128.632C379.666 129.077 381.94 129.3 384.173 129.3V127.3ZM377.739 126.669C375.621 126.246 373.454 125.651 371.24 124.885L370.586 126.775C372.879 127.569 375.133 128.188 377.347 128.631L377.739 126.669ZM369.913 125.83V154.69H371.913V125.83H369.913ZM370.913 153.69H355.963V155.69H370.913V153.69ZM356.963 154.69V61.09H354.963V154.69H356.963ZM355.963 62.09H370.133V60.09H355.963V62.09ZM369.133 61.09V70.06H371.133V61.09H369.133ZM370.84 70.7671C374.888 66.7195 378.261 64.0833 380.97 62.7698L380.097 60.9702C377.086 62.4301 373.525 65.2539 369.426 69.3529L370.84 70.7671ZM380.97 62.7698C383.696 61.4478 386.537 60.79 389.503 60.79V58.79C386.229 58.79 383.09 59.5189 380.097 60.9702L380.97 62.7698ZM389.503 60.79C396.408 60.79 401.64 63.3475 405.334 68.4374L406.953 67.2626C402.847 61.6058 396.986 58.79 389.503 58.79V60.79ZM405.334 68.4374C409.065 73.5774 410.993 80.8811 410.993 90.47H412.993C412.993 80.6455 411.022 72.8692 406.953 67.2626L405.334 68.4374ZM410.993 90.47V97.49H412.993V90.47H410.993ZM410.993 97.49C410.993 106.769 408.655 114.011 404.085 119.328L405.602 120.632C410.565 114.856 412.993 107.105 412.993 97.49H410.993ZM404.085 119.328C399.552 124.603 392.969 127.3 384.173 127.3V129.3C393.404 129.3 400.602 126.45 405.602 120.632L404.085 119.328ZM385.473 72.7C383.274 72.7 380.988 73.3694 378.629 74.6395L379.577 76.4005C381.725 75.2439 383.686 74.7 385.473 74.7V72.7ZM378.642 74.6328C376.336 75.8318 373.519 78.1303 370.206 81.4429L371.62 82.8571C374.895 79.583 377.537 77.4615 379.565 76.4072L378.642 74.6328ZM369.913 82.15V112.31H371.913V82.15H369.913ZM370.535 113.236C374.869 115.005 378.899 115.91 382.613 115.91V113.91C379.221 113.91 375.451 113.082 371.291 111.384L370.535 113.236ZM382.613 115.91C387.851 115.91 391.813 114.273 394.225 110.8L392.582 109.66C390.66 112.427 387.429 113.91 382.613 113.91V115.91ZM394.225 110.8C396.547 107.457 397.653 102.986 397.653 97.49H395.653C395.653 102.741 394.593 106.763 392.582 109.66L394.225 110.8ZM397.653 97.49V90.47H395.653V97.49H397.653ZM397.653 90.47C397.653 84.5897 396.652 80.0796 394.466 77.1342L392.86 78.3258C394.662 80.7537 395.653 84.7369 395.653 90.47H397.653ZM394.479 77.1513C392.368 74.1769 389.321 72.7 385.473 72.7V74.7C388.733 74.7 391.145 75.9098 392.848 78.3087L394.479 77.1513Z" fill="#C5F8E2" mask="url(#path-1-outside-1_1011_8892)"/>
</g>
<path d="M93.515 76.5H100.94C103.741 76.5 106.095 78.6048 106.406 81.3883L111.477 126.697L98.004 144.214L82.5196 126.68L88.0556 81.3335C88.3924 78.5742 90.7352 76.5 93.515 76.5Z" fill="#57E0BF" stroke="#C5F8E2"/>
<circle cx="95.9961" cy="54" r="9.5" fill="#57E0BF" fill-opacity="0.8" stroke="#D9FFEF"/>
<mask id="path-5-inside-2_1011_8892" fill="white">
<path fill-rule="evenodd" clip-rule="evenodd" d="M109.281 54C109.281 61.1797 103.461 67 96.2813 67C89.1015 67 83.2813 61.1797 83.2813 54C83.2813 46.8203 89.1015 41 96.2813 41C103.461 41 109.281 46.8203 109.281 54ZM116.281 54C116.281 65.0457 107.327 74 96.2813 74C93.3249 74 90.5184 73.3586 87.9932 72.2072C87.7936 72.8104 87.4794 73.3866 87.0477 73.903L64.1402 101.306C62.4644 103.311 59.4858 103.571 57.4873 101.888C55.1116 99.8872 54.8007 96.3333 56.7928 93.9502L79.1272 67.232C79.4962 66.7906 79.9229 66.4265 80.3869 66.1414C77.8114 62.7748 76.2813 58.5661 76.2813 54C76.2813 42.9543 85.2356 34 96.2813 34C107.327 34 116.281 42.9543 116.281 54Z"/>
</mask>
<path fill-rule="evenodd" clip-rule="evenodd" d="M109.281 54C109.281 61.1797 103.461 67 96.2813 67C89.1015 67 83.2813 61.1797 83.2813 54C83.2813 46.8203 89.1015 41 96.2813 41C103.461 41 109.281 46.8203 109.281 54ZM116.281 54C116.281 65.0457 107.327 74 96.2813 74C93.3249 74 90.5184 73.3586 87.9932 72.2072C87.7936 72.8104 87.4794 73.3866 87.0477 73.903L64.1402 101.306C62.4644 103.311 59.4858 103.571 57.4873 101.888C55.1116 99.8872 54.8007 96.3333 56.7928 93.9502L79.1272 67.232C79.4962 66.7906 79.9229 66.4265 80.3869 66.1414C77.8114 62.7748 76.2813 58.5661 76.2813 54C76.2813 42.9543 85.2356 34 96.2813 34C107.327 34 116.281 42.9543 116.281 54Z" fill="#1D154A"/>
<path d="M87.9932 72.2072L88.4081 71.2974L87.394 70.835L87.0439 71.8931L87.9932 72.2072ZM87.0477 73.903L86.2804 73.2617L86.2804 73.2617L87.0477 73.903ZM64.1402 101.306L64.9074 101.948L64.9074 101.948L64.1402 101.306ZM57.4873 101.888L58.1315 101.123L58.1315 101.123L57.4873 101.888ZM56.7928 93.9502L57.56 94.5915L57.56 94.5915L56.7928 93.9502ZM79.1272 67.232L79.8945 67.8734L79.8945 67.8734L79.1272 67.232ZM80.3869 66.1414L80.9104 66.9934L81.8542 66.4135L81.1812 65.5337L80.3869 66.1414ZM96.2813 68C104.013 68 110.281 61.732 110.281 54H108.281C108.281 60.6274 102.909 66 96.2813 66V68ZM82.2813 54C82.2813 61.732 88.5493 68 96.2813 68V66C89.6538 66 84.2813 60.6274 84.2813 54H82.2813ZM96.2813 40C88.5493 40 82.2813 46.268 82.2813 54H84.2813C84.2813 47.3726 89.6538 42 96.2813 42V40ZM110.281 54C110.281 46.268 104.013 40 96.2813 40V42C102.909 42 108.281 47.3726 108.281 54H110.281ZM96.2813 75C107.879 75 117.281 65.598 117.281 54H115.281C115.281 64.4934 106.775 73 96.2813 73V75ZM87.5784 73.1171C90.2311 74.3266 93.1789 75 96.2813 75V73C93.4709 73 90.8056 72.3905 88.4081 71.2974L87.5784 73.1171ZM87.0439 71.8931C86.8831 72.3788 86.6299 72.8436 86.2804 73.2617L87.8149 74.5444C88.3288 73.9296 88.7041 73.242 88.9426 72.5214L87.0439 71.8931ZM86.2804 73.2617L63.373 100.665L64.9074 101.948L87.8149 74.5444L86.2804 73.2617ZM63.373 100.665C62.0523 102.245 59.7065 102.45 58.1315 101.123L56.8431 102.653C59.2651 104.693 62.8765 104.377 64.9074 101.948L63.373 100.665ZM58.1315 101.123C56.1771 99.4772 55.9212 96.552 57.56 94.5915L56.0255 93.3088C53.6802 96.1145 54.0461 100.297 56.8431 102.653L58.1315 101.123ZM57.56 94.5915L79.8945 67.8734L78.36 66.5906L56.0255 93.3088L57.56 94.5915ZM79.8945 67.8734C80.1933 67.5159 80.5374 67.2226 80.9104 66.9934L79.8635 65.2893C79.3084 65.6303 78.7991 66.0653 78.36 66.5906L79.8945 67.8734ZM75.2813 54C75.2813 58.7933 76.8884 63.2141 79.5927 66.749L81.1812 65.5337C78.7344 62.3356 77.2813 58.3389 77.2813 54H75.2813ZM96.2813 33C84.6833 33 75.2813 42.402 75.2813 54H77.2813C77.2813 43.5066 85.7878 35 96.2813 35V33ZM117.281 54C117.281 42.402 107.879 33 96.2813 33V35C106.775 35 115.281 43.5066 115.281 54H117.281Z" fill="#EEF3F1" mask="url(#path-5-inside-2_1011_8892)"/>
<line x1="110.44" y1="116.7" x2="95.3888" y2="135.314" stroke="#D9FFEF"/>
</svg>
