<svg width="51" height="55" viewBox="0 0 51 55" fill="white" xmlns="http://www.w3.org/2000/svg">
<ellipse cx="25.4609" cy="27.5029" rx="25" ry="27" fill="#F8F9F8"/>
<g clip-path="url(#clip0_1278_5282)">
<path d="M36.1279 16.8362H14.7946C13.3279 16.8362 12.1413 18.0362 12.1413 19.5028L12.1279 35.5028C12.1279 36.9695 13.3279 38.1695 14.7946 38.1695H36.1279C37.5946 38.1695 38.7946 36.9695 38.7946 35.5028V19.5028C38.7946 18.0362 37.5946 16.8362 36.1279 16.8362ZM35.5946 22.5028L26.1679 28.3962C25.7413 28.6628 25.1813 28.6628 24.7546 28.3962L15.3279 22.5028C14.9946 22.2895 14.7946 21.9295 14.7946 21.5428C14.7946 20.6495 15.7679 20.1162 16.5279 20.5828L25.4613 26.1695L34.3946 20.5828C35.1546 20.1162 36.1279 20.6495 36.1279 21.5428C36.1279 21.9295 35.9279 22.2895 35.5946 22.5028Z" fill="#3757FF"/>
</g>
<defs>
<clipPath id="clip0_1278_5282">
<rect width="32" height="32" fill="white" transform="translate(9.46094 11.5029)"/>
</clipPath>
</defs>
</svg>
