<svg width="258" height="78" viewBox="0 0 258 78" fill="none" xmlns="http://www.w3.org/2000/svg">
<g filter="url(#filter0_dd_259_846)">
<rect x="4" width="250" height="70" rx="35" fill="url(#paint0_linear_259_846)" shape-rendering="crispEdges"/>
<rect x="5" y="1" width="248" height="68" rx="34" stroke="#D31A1A" stroke-width="2" shape-rendering="crispEdges"/>
</g>
<path d="M92.7337 22.3636V34H90.8587L85.3757 26.0739H85.2791V34H83.1712V22.3636H85.0575L90.5348 30.2955H90.6371V22.3636H92.7337ZM98.8033 34.1705C97.9283 34.1705 97.1726 33.9886 96.5362 33.625C95.9036 33.2576 95.4169 32.7386 95.076 32.0682C94.7351 31.3939 94.5646 30.6004 94.5646 29.6875C94.5646 28.7898 94.7351 28.0019 95.076 27.3239C95.4207 26.642 95.9018 26.1117 96.5192 25.733C97.1366 25.3504 97.862 25.1591 98.6953 25.1591C99.2332 25.1591 99.7408 25.2462 100.218 25.4205C100.699 25.5909 101.123 25.8561 101.491 26.2159C101.862 26.5758 102.154 27.0341 102.366 27.5909C102.578 28.1439 102.684 28.803 102.684 29.5682V30.1989H95.5305V28.8125H100.712C100.709 28.4186 100.623 28.0682 100.457 27.7614C100.29 27.4508 100.057 27.2064 99.7578 27.0284C99.4624 26.8504 99.1177 26.7614 98.7237 26.7614C98.3033 26.7614 97.9339 26.8636 97.6158 27.0682C97.2976 27.2689 97.0495 27.5341 96.8714 27.8636C96.6972 28.1894 96.6082 28.5473 96.6044 28.9375V30.1477C96.6044 30.6553 96.6972 31.0909 96.8828 31.4545C97.0684 31.8144 97.3279 32.0909 97.6612 32.2841C97.9946 32.4735 98.3847 32.5682 98.8317 32.5682C99.1309 32.5682 99.4018 32.5265 99.6442 32.4432C99.8866 32.3561 100.097 32.2292 100.275 32.0625C100.453 31.8958 100.587 31.6894 100.678 31.4432L102.599 31.6591C102.478 32.1667 102.246 32.6098 101.906 32.9886C101.568 33.3636 101.137 33.6553 100.61 33.8636C100.084 34.0682 99.4813 34.1705 98.8033 34.1705ZM106.178 34L103.712 25.2727H105.809L107.343 31.4091H107.423L108.991 25.2727H111.065L112.633 31.375H112.718L114.229 25.2727H116.332L113.86 34H111.718L110.082 28.1023H109.962L108.326 34H106.178ZM121.737 37.2727V25.2727H123.759V26.7159H123.879C123.985 26.5038 124.134 26.2784 124.327 26.0398C124.521 25.7973 124.782 25.5909 125.112 25.4205C125.441 25.2462 125.862 25.1591 126.373 25.1591C127.047 25.1591 127.655 25.3314 128.197 25.6761C128.742 26.017 129.174 26.5227 129.492 27.1932C129.814 27.8598 129.975 28.678 129.975 29.6477C129.975 30.6061 129.818 31.4205 129.504 32.0909C129.189 32.7614 128.761 33.2727 128.219 33.625C127.678 33.9773 127.064 34.1534 126.379 34.1534C125.879 34.1534 125.464 34.0701 125.134 33.9034C124.805 33.7367 124.54 33.536 124.339 33.3011C124.142 33.0625 123.988 32.8371 123.879 32.625H123.793V37.2727H121.737ZM123.754 29.6364C123.754 30.2008 123.833 30.6951 123.992 31.1193C124.155 31.5436 124.388 31.875 124.691 32.1136C124.998 32.3485 125.369 32.4659 125.805 32.4659C126.259 32.4659 126.64 32.3447 126.947 32.1023C127.254 31.8561 127.485 31.5208 127.64 31.0966C127.799 30.6686 127.879 30.1818 127.879 29.6364C127.879 29.0947 127.801 28.6136 127.646 28.1932C127.49 27.7727 127.259 27.4432 126.952 27.2045C126.646 26.9659 126.263 26.8466 125.805 26.8466C125.365 26.8466 124.992 26.9621 124.685 27.1932C124.379 27.4242 124.146 27.7481 123.987 28.1648C123.831 28.5814 123.754 29.072 123.754 29.6364ZM135.543 34.1705C134.691 34.1705 133.952 33.983 133.327 33.608C132.702 33.233 132.218 32.7083 131.873 32.0341C131.532 31.3598 131.362 30.572 131.362 29.6705C131.362 28.7689 131.532 27.9792 131.873 27.3011C132.218 26.6231 132.702 26.0966 133.327 25.7216C133.952 25.3466 134.691 25.1591 135.543 25.1591C136.396 25.1591 137.134 25.3466 137.759 25.7216C138.384 26.0966 138.867 26.6231 139.208 27.3011C139.553 27.9792 139.725 28.7689 139.725 29.6705C139.725 30.572 139.553 31.3598 139.208 32.0341C138.867 32.7083 138.384 33.233 137.759 33.608C137.134 33.983 136.396 34.1705 135.543 34.1705ZM135.555 32.5227C136.017 32.5227 136.403 32.3958 136.714 32.142C137.024 31.8845 137.255 31.5398 137.407 31.108C137.562 30.6761 137.64 30.1951 137.64 29.6648C137.64 29.1307 137.562 28.6477 137.407 28.2159C137.255 27.7803 137.024 27.4337 136.714 27.1761C136.403 26.9186 136.017 26.7898 135.555 26.7898C135.081 26.7898 134.687 26.9186 134.373 27.1761C134.062 27.4337 133.829 27.7803 133.674 28.2159C133.522 28.6477 133.447 29.1307 133.447 29.6648C133.447 30.1951 133.522 30.6761 133.674 31.108C133.829 31.5398 134.062 31.8845 134.373 32.142C134.687 32.3958 135.081 32.5227 135.555 32.5227ZM148.369 27.5795L146.494 27.7841C146.441 27.5947 146.348 27.4167 146.215 27.25C146.086 27.0833 145.912 26.9489 145.692 26.8466C145.473 26.7443 145.204 26.6932 144.886 26.6932C144.458 26.6932 144.098 26.786 143.806 26.9716C143.518 27.1572 143.376 27.3977 143.38 27.6932C143.376 27.947 143.469 28.1534 143.658 28.3125C143.852 28.4716 144.17 28.6023 144.613 28.7045L146.102 29.0227C146.927 29.2008 147.541 29.483 147.942 29.8693C148.348 30.2557 148.552 30.7614 148.556 31.3864C148.552 31.9356 148.391 32.4205 148.073 32.8409C147.759 33.2576 147.321 33.5833 146.761 33.8182C146.2 34.053 145.556 34.1705 144.829 34.1705C143.761 34.1705 142.901 33.947 142.249 33.5C141.598 33.0492 141.21 32.4223 141.085 31.6193L143.09 31.4261C143.181 31.8201 143.374 32.1174 143.67 32.3182C143.965 32.5189 144.35 32.6193 144.823 32.6193C145.312 32.6193 145.704 32.5189 145.999 32.3182C146.299 32.1174 146.448 31.8693 146.448 31.5739C146.448 31.3239 146.352 31.1174 146.158 30.9545C145.969 30.7917 145.674 30.6667 145.272 30.5795L143.783 30.267C142.946 30.0928 142.327 29.7992 141.925 29.3864C141.524 28.9697 141.325 28.4432 141.329 27.8068C141.325 27.2689 141.471 26.803 141.766 26.4091C142.066 26.0114 142.48 25.7045 143.011 25.4886C143.545 25.2689 144.16 25.1591 144.857 25.1591C145.88 25.1591 146.685 25.3769 147.272 25.8125C147.863 26.2481 148.228 26.8371 148.369 27.5795ZM154.61 25.2727V26.8636H149.593V25.2727H154.61ZM150.832 23.1818H152.888V31.375C152.888 31.6515 152.93 31.8636 153.013 32.0114C153.101 32.1553 153.214 32.2538 153.354 32.3068C153.495 32.3598 153.65 32.3864 153.82 32.3864C153.949 32.3864 154.067 32.3769 154.173 32.358C154.282 32.339 154.366 32.322 154.423 32.3068L154.769 33.9148C154.659 33.9527 154.502 33.9943 154.298 34.0398C154.097 34.0852 153.851 34.1117 153.559 34.1193C153.044 34.1345 152.58 34.0568 152.167 33.8864C151.754 33.7121 151.426 33.4432 151.184 33.0795C150.945 32.7159 150.828 32.2614 150.832 31.7159V23.1818ZM163.103 27.5795L161.228 27.7841C161.175 27.5947 161.082 27.4167 160.95 27.25C160.821 27.0833 160.647 26.9489 160.427 26.8466C160.207 26.7443 159.938 26.6932 159.62 26.6932C159.192 26.6932 158.832 26.786 158.54 26.9716C158.253 27.1572 158.111 27.3977 158.114 27.6932C158.111 27.947 158.203 28.1534 158.393 28.3125C158.586 28.4716 158.904 28.6023 159.347 28.7045L160.836 29.0227C161.662 29.2008 162.275 29.483 162.677 29.8693C163.082 30.2557 163.287 30.7614 163.29 31.3864C163.287 31.9356 163.126 32.4205 162.808 32.8409C162.493 33.2576 162.056 33.5833 161.495 33.8182C160.934 34.053 160.29 34.1705 159.563 34.1705C158.495 34.1705 157.635 33.947 156.984 33.5C156.332 33.0492 155.944 32.4223 155.819 31.6193L157.825 31.4261C157.915 31.8201 158.109 32.1174 158.404 32.3182C158.7 32.5189 159.084 32.6193 159.558 32.6193C160.046 32.6193 160.438 32.5189 160.734 32.3182C161.033 32.1174 161.183 31.8693 161.183 31.5739C161.183 31.3239 161.086 31.1174 160.893 30.9545C160.703 30.7917 160.408 30.6667 160.006 30.5795L158.518 30.267C157.681 30.0928 157.061 29.7992 156.66 29.3864C156.258 28.9697 156.059 28.4432 156.063 27.8068C156.059 27.2689 156.205 26.803 156.501 26.4091C156.8 26.0114 157.215 25.7045 157.745 25.4886C158.279 25.2689 158.895 25.1591 159.592 25.1591C160.614 25.1591 161.419 25.3769 162.006 25.8125C162.597 26.2481 162.963 26.8371 163.103 27.5795ZM172.762 34.1705C171.91 34.1705 171.171 33.983 170.546 33.608C169.921 33.233 169.436 32.7083 169.092 32.0341C168.751 31.3598 168.58 30.572 168.58 29.6705C168.58 28.7689 168.751 27.9792 169.092 27.3011C169.436 26.6231 169.921 26.0966 170.546 25.7216C171.171 25.3466 171.91 25.1591 172.762 25.1591C173.614 25.1591 174.353 25.3466 174.978 25.7216C175.603 26.0966 176.086 26.6231 176.427 27.3011C176.772 27.9792 176.944 28.7689 176.944 29.6705C176.944 30.572 176.772 31.3598 176.427 32.0341C176.086 32.7083 175.603 33.233 174.978 33.608C174.353 33.983 173.614 34.1705 172.762 34.1705ZM172.773 32.5227C173.236 32.5227 173.622 32.3958 173.933 32.142C174.243 31.8845 174.474 31.5398 174.626 31.108C174.781 30.6761 174.859 30.1951 174.859 29.6648C174.859 29.1307 174.781 28.6477 174.626 28.2159C174.474 27.7803 174.243 27.4337 173.933 27.1761C173.622 26.9186 173.236 26.7898 172.773 26.7898C172.3 26.7898 171.906 26.9186 171.592 27.1761C171.281 27.4337 171.048 27.7803 170.893 28.2159C170.741 28.6477 170.665 29.1307 170.665 29.6648C170.665 30.1951 170.741 30.6761 170.893 31.108C171.048 31.5398 171.281 31.8845 171.592 32.142C171.906 32.3958 172.3 32.5227 172.773 32.5227ZM183.11 25.2727V26.8636H177.951V25.2727H183.11ZM179.241 34V24.4489C179.241 23.8617 179.362 23.3731 179.604 22.983C179.851 22.5928 180.18 22.3011 180.593 22.108C181.006 21.9148 181.464 21.8182 181.968 21.8182C182.324 21.8182 182.64 21.8466 182.917 21.9034C183.193 21.9602 183.398 22.0114 183.531 22.0568L183.121 23.6477C183.034 23.6212 182.924 23.5947 182.792 23.5682C182.659 23.5379 182.512 23.5227 182.349 23.5227C181.966 23.5227 181.695 23.6155 181.536 23.8011C181.381 23.983 181.303 24.2443 181.303 24.5852V34H179.241ZM189.141 25.2727V26.8636H183.982V25.2727H189.141ZM185.272 34V24.4489C185.272 23.8617 185.393 23.3731 185.636 22.983C185.882 22.5928 186.211 22.3011 186.624 22.108C187.037 21.9148 187.496 21.8182 187.999 21.8182C188.355 21.8182 188.672 21.8466 188.948 21.9034C189.225 21.9602 189.429 22.0114 189.562 22.0568L189.153 23.6477C189.066 23.6212 188.956 23.5947 188.823 23.5682C188.691 23.5379 188.543 23.5227 188.38 23.5227C187.997 23.5227 187.727 23.6155 187.567 23.8011C187.412 23.983 187.335 24.2443 187.335 24.5852V34H185.272ZM194.288 34.1705C193.413 34.1705 192.657 33.9886 192.021 33.625C191.388 33.2576 190.901 32.7386 190.56 32.0682C190.219 31.3939 190.049 30.6004 190.049 29.6875C190.049 28.7898 190.219 28.0019 190.56 27.3239C190.905 26.642 191.386 26.1117 192.004 25.733C192.621 25.3504 193.346 25.1591 194.18 25.1591C194.718 25.1591 195.225 25.2462 195.702 25.4205C196.183 25.5909 196.608 25.8561 196.975 26.2159C197.346 26.5758 197.638 27.0341 197.85 27.5909C198.062 28.1439 198.168 28.803 198.168 29.5682V30.1989H191.015V28.8125H196.197C196.193 28.4186 196.108 28.0682 195.941 27.7614C195.774 27.4508 195.541 27.2064 195.242 27.0284C194.947 26.8504 194.602 26.7614 194.208 26.7614C193.788 26.7614 193.418 26.8636 193.1 27.0682C192.782 27.2689 192.534 27.5341 192.356 27.8636C192.182 28.1894 192.093 28.5473 192.089 28.9375V30.1477C192.089 30.6553 192.182 31.0909 192.367 31.4545C192.553 31.8144 192.812 32.0909 193.146 32.2841C193.479 32.4735 193.869 32.5682 194.316 32.5682C194.615 32.5682 194.886 32.5265 195.129 32.4432C195.371 32.3561 195.581 32.2292 195.759 32.0625C195.937 31.8958 196.072 31.6894 196.163 31.4432L198.083 31.6591C197.962 32.1667 197.731 32.6098 197.39 32.9886C197.053 33.3636 196.621 33.6553 196.094 33.8636C195.568 34.0682 194.966 34.1705 194.288 34.1705ZM199.908 34V25.2727H201.903V26.7273H201.994C202.153 26.2235 202.425 25.8352 202.812 25.5625C203.202 25.286 203.647 25.1477 204.147 25.1477C204.261 25.1477 204.388 25.1534 204.528 25.1648C204.672 25.1723 204.791 25.1856 204.886 25.2045V27.0966C204.799 27.0663 204.66 27.0398 204.471 27.017C204.285 26.9905 204.105 26.9773 203.931 26.9773C203.556 26.9773 203.219 27.0587 202.92 27.2216C202.624 27.3807 202.391 27.6023 202.221 27.8864C202.05 28.1705 201.965 28.4981 201.965 28.8693V34H199.908ZM213.15 27.5795L211.275 27.7841C211.222 27.5947 211.129 27.4167 210.996 27.25C210.868 27.0833 210.693 26.9489 210.474 26.8466C210.254 26.7443 209.985 26.6932 209.667 26.6932C209.239 26.6932 208.879 26.786 208.587 26.9716C208.299 27.1572 208.157 27.3977 208.161 27.6932C208.157 27.947 208.25 28.1534 208.44 28.3125C208.633 28.4716 208.951 28.6023 209.394 28.7045L210.883 29.0227C211.709 29.2008 212.322 29.483 212.724 29.8693C213.129 30.2557 213.334 30.7614 213.337 31.3864C213.334 31.9356 213.173 32.4205 212.854 32.8409C212.54 33.2576 212.103 33.5833 211.542 33.8182C210.981 34.053 210.337 34.1705 209.61 34.1705C208.542 34.1705 207.682 33.947 207.031 33.5C206.379 33.0492 205.991 32.4223 205.866 31.6193L207.871 31.4261C207.962 31.8201 208.156 32.1174 208.451 32.3182C208.746 32.5189 209.131 32.6193 209.604 32.6193C210.093 32.6193 210.485 32.5189 210.781 32.3182C211.08 32.1174 211.229 31.8693 211.229 31.5739C211.229 31.3239 211.133 31.1174 210.94 30.9545C210.75 30.7917 210.455 30.6667 210.053 30.5795L208.565 30.267C207.728 30.0928 207.108 29.7992 206.707 29.3864C206.305 28.9697 206.106 28.4432 206.11 27.8068C206.106 27.2689 206.252 26.803 206.548 26.4091C206.847 26.0114 207.262 25.7045 207.792 25.4886C208.326 25.2689 208.942 25.1591 209.638 25.1591C210.661 25.1591 211.466 25.3769 212.053 25.8125C212.644 26.2481 213.01 26.8371 213.15 27.5795ZM126.407 44.2727V45.8636H121.248V44.2727H126.407ZM122.538 53V43.4489C122.538 42.8617 122.659 42.3731 122.901 41.983C123.147 41.5928 123.477 41.3011 123.89 41.108C124.303 40.9148 124.761 40.8182 125.265 40.8182C125.621 40.8182 125.937 40.8466 126.214 40.9034C126.49 40.9602 126.695 41.0114 126.827 41.0568L126.418 42.6477C126.331 42.6212 126.221 42.5947 126.089 42.5682C125.956 42.5379 125.808 42.5227 125.646 42.5227C125.263 42.5227 124.992 42.6155 124.833 42.8011C124.678 42.983 124.6 43.2443 124.6 43.5852V53H122.538ZM131.496 53.1705C130.644 53.1705 129.906 52.983 129.281 52.608C128.656 52.233 128.171 51.7083 127.826 51.0341C127.485 50.3598 127.315 49.572 127.315 48.6705C127.315 47.7689 127.485 46.9792 127.826 46.3011C128.171 45.6231 128.656 45.0966 129.281 44.7216C129.906 44.3466 130.644 44.1591 131.496 44.1591C132.349 44.1591 133.087 44.3466 133.712 44.7216C134.337 45.0966 134.82 45.6231 135.161 46.3011C135.506 46.9792 135.678 47.7689 135.678 48.6705C135.678 49.572 135.506 50.3598 135.161 51.0341C134.82 51.7083 134.337 52.233 133.712 52.608C133.087 52.983 132.349 53.1705 131.496 53.1705ZM131.508 51.5227C131.97 51.5227 132.356 51.3958 132.667 51.142C132.978 50.8845 133.209 50.5398 133.36 50.108C133.515 49.6761 133.593 49.1951 133.593 48.6648C133.593 48.1307 133.515 47.6477 133.36 47.2159C133.209 46.7803 132.978 46.4337 132.667 46.1761C132.356 45.9186 131.97 45.7898 131.508 45.7898C131.034 45.7898 130.64 45.9186 130.326 46.1761C130.015 46.4337 129.782 46.7803 129.627 47.2159C129.476 47.6477 129.4 48.1307 129.4 48.6648C129.4 49.1951 129.476 49.6761 129.627 50.108C129.782 50.5398 130.015 50.8845 130.326 51.142C130.64 51.3958 131.034 51.5227 131.508 51.5227ZM137.424 53V44.2727H139.418V45.7273H139.509C139.668 45.2235 139.941 44.8352 140.327 44.5625C140.718 44.286 141.163 44.1477 141.663 44.1477C141.776 44.1477 141.903 44.1534 142.043 44.1648C142.187 44.1723 142.307 44.1856 142.401 44.2045V46.0966C142.314 46.0663 142.176 46.0398 141.987 46.017C141.801 45.9905 141.621 45.9773 141.447 45.9773C141.072 45.9773 140.735 46.0587 140.435 46.2216C140.14 46.3807 139.907 46.6023 139.737 46.8864C139.566 47.1705 139.481 47.4981 139.481 47.8693V53H137.424ZM149.015 56.2727C148.735 56.2727 148.475 56.25 148.237 56.2045C148.002 56.1629 147.814 56.1136 147.674 56.0568L148.151 54.4545C148.451 54.5417 148.718 54.5833 148.952 54.5795C149.187 54.5758 149.394 54.5019 149.572 54.358C149.754 54.2178 149.907 53.983 150.032 53.6534L150.208 53.1818L147.043 44.2727H149.225L151.237 50.8636H151.327L153.344 44.2727H155.532L152.038 54.0568C151.875 54.5189 151.659 54.9148 151.39 55.2443C151.121 55.5777 150.791 55.8314 150.401 56.0057C150.015 56.1837 149.553 56.2727 149.015 56.2727ZM160.465 53.1705C159.613 53.1705 158.874 52.983 158.249 52.608C157.624 52.233 157.139 51.7083 156.795 51.0341C156.454 50.3598 156.283 49.572 156.283 48.6705C156.283 47.7689 156.454 46.9792 156.795 46.3011C157.139 45.6231 157.624 45.0966 158.249 44.7216C158.874 44.3466 159.613 44.1591 160.465 44.1591C161.317 44.1591 162.056 44.3466 162.681 44.7216C163.306 45.0966 163.789 45.6231 164.13 46.3011C164.475 46.9792 164.647 47.7689 164.647 48.6705C164.647 49.572 164.475 50.3598 164.13 51.0341C163.789 51.7083 163.306 52.233 162.681 52.608C162.056 52.983 161.317 53.1705 160.465 53.1705ZM160.477 51.5227C160.939 51.5227 161.325 51.3958 161.636 51.142C161.946 50.8845 162.177 50.5398 162.329 50.108C162.484 49.6761 162.562 49.1951 162.562 48.6648C162.562 48.1307 162.484 47.6477 162.329 47.2159C162.177 46.7803 161.946 46.4337 161.636 46.1761C161.325 45.9186 160.939 45.7898 160.477 45.7898C160.003 45.7898 159.609 45.9186 159.295 46.1761C158.984 46.4337 158.751 46.7803 158.596 47.2159C158.444 47.6477 158.369 48.1307 158.369 48.6648C158.369 49.1951 158.444 49.6761 158.596 50.108C158.751 50.5398 158.984 50.8845 159.295 51.142C159.609 51.3958 160.003 51.5227 160.477 51.5227ZM171.955 49.3295V44.2727H174.012V53H172.018V51.4489H171.927C171.73 51.9375 171.406 52.3371 170.955 52.6477C170.508 52.9583 169.957 53.1136 169.302 53.1136C168.73 53.1136 168.224 52.9867 167.785 52.733C167.349 52.4754 167.008 52.1023 166.762 51.6136C166.516 51.1212 166.393 50.5265 166.393 49.8295V44.2727H168.45V49.5114C168.45 50.0644 168.601 50.5038 168.904 50.8295C169.207 51.1553 169.605 51.3182 170.097 51.3182C170.4 51.3182 170.694 51.2443 170.978 51.0966C171.262 50.9489 171.495 50.7292 171.677 50.4375C171.862 50.142 171.955 49.7727 171.955 49.3295Z" fill="black"/>
<path d="M46.0412 56.3738C45.0315 56.3738 44.1676 55.9581 43.4495 55.1268C42.7314 54.2955 42.3723 53.2962 42.3723 52.1288H49.7128C49.7128 53.2977 49.3533 54.2974 48.6342 55.128C47.9152 55.9585 47.0508 56.3738 46.0412 56.3738ZM32 50.2831V45.3921H35.1915V32.3802C35.1915 29.581 35.9229 27.0663 37.3856 24.8361C38.8484 22.6059 40.75 21.1063 43.0904 20.3373V19.4145C43.0904 18.466 43.3779 17.6598 43.9528 16.9959C44.5278 16.332 45.2259 16 46.0473 16C46.8686 16 47.5652 16.332 48.137 16.9959C48.7088 17.6598 48.9947 18.466 48.9947 19.4145V19.8297C48.6489 20.6603 48.4096 21.5293 48.2766 22.4367C48.1436 23.3442 48.1303 24.2439 48.2367 25.136C47.891 24.9822 47.5319 24.8745 47.1596 24.813C46.7872 24.7515 46.4149 24.7207 46.0426 24.7207C44.2074 24.7207 42.6449 25.4667 41.3551 26.9586C40.0652 28.4505 39.4202 30.2577 39.4202 32.3802V45.3921H52.7048V32.6571C53.3697 33.057 54.0545 33.3569 54.7593 33.5568C55.4641 33.7568 56.1888 33.8414 56.9335 33.8106V45.3921H60.125V50.2831H32ZM56.6941 30.1193C55.2203 30.1193 53.9675 29.5227 52.9359 28.3294C51.9041 27.1361 51.3883 25.6872 51.3883 23.9825C51.3883 22.2778 51.9041 20.8288 52.9359 19.6356C53.9675 18.4423 55.2203 17.8457 56.6941 17.8457C58.168 17.8457 59.4208 18.4423 60.4524 19.6356C61.4842 20.8288 62 22.2778 62 23.9825C62 25.6872 61.4842 27.1361 60.4524 28.3294C59.4208 29.5227 58.168 30.1193 56.6941 30.1193Z" fill="#D31A1A"/>
<defs>
<filter id="filter0_dd_259_846" x="0" y="0" width="258" height="78" filterUnits="userSpaceOnUse" color-interpolation-filters="sRGB">
<feFlood flood-opacity="0" result="BackgroundImageFix"/>
<feColorMatrix in="SourceAlpha" type="matrix" values="0 0 0 0 0 0 0 0 0 0 0 0 0 0 0 0 0 0 127 0" result="hardAlpha"/>
<feOffset dy="4"/>
<feGaussianBlur stdDeviation="2"/>
<feComposite in2="hardAlpha" operator="out"/>
<feColorMatrix type="matrix" values="0 0 0 0 0 0 0 0 0 0 0 0 0 0 0 0 0 0 0.25 0"/>
<feBlend mode="normal" in2="BackgroundImageFix" result="effect1_dropShadow_259_846"/>
<feColorMatrix in="SourceAlpha" type="matrix" values="0 0 0 0 0 0 0 0 0 0 0 0 0 0 0 0 0 0 127 0" result="hardAlpha"/>
<feOffset dy="4"/>
<feGaussianBlur stdDeviation="2"/>
<feComposite in2="hardAlpha" operator="out"/>
<feColorMatrix type="matrix" values="0 0 0 0 0 0 0 0 0 0 0 0 0 0 0 0 0 0 0.25 0"/>
<feBlend mode="normal" in2="effect1_dropShadow_259_846" result="effect2_dropShadow_259_846"/>
<feBlend mode="normal" in="SourceGraphic" in2="effect2_dropShadow_259_846" result="shape"/>
</filter>
<linearGradient id="paint0_linear_259_846" x1="129" y1="0" x2="129" y2="70" gradientUnits="userSpaceOnUse">
<stop stop-color="#695252" stop-opacity="0"/>
<stop offset="0.928145" stop-color="#CDC5C5"/>
</linearGradient>
</defs>
</svg>
