<svg width="51" height="55" viewBox="0 0 51 55" fill="white" xmlns="http://www.w3.org/2000/svg">
<ellipse cx="25.4609" cy="27.5029" rx="25" ry="27" fill="#F8F9F8"/>
<g clip-path="url(#clip0_1278_5264)">
<path d="M30.7939 26.5984C33.0073 26.5984 34.7806 24.8117 34.7806 22.5984C34.7806 20.3851 33.0073 18.5984 30.7939 18.5984C28.5806 18.5984 26.7939 20.3851 26.7939 22.5984C26.7939 24.8117 28.5806 26.5984 30.7939 26.5984ZM20.1273 26.5984C22.3406 26.5984 24.1139 24.8117 24.1139 22.5984C24.1139 20.3851 22.3406 18.5984 20.1273 18.5984C17.9139 18.5984 16.1273 20.3851 16.1273 22.5984C16.1273 24.8117 17.9139 26.5984 20.1273 26.5984ZM20.1273 29.2651C17.0206 29.2651 10.7939 30.8251 10.7939 33.9317V35.9317C10.7939 36.6651 11.3939 37.2651 12.1273 37.2651H28.1273C28.8606 37.2651 29.4606 36.6651 29.4606 35.9317V33.9317C29.4606 30.8251 23.2339 29.2651 20.1273 29.2651ZM30.7939 29.2651C30.4073 29.2651 29.9673 29.2917 29.5006 29.3317C29.5273 29.3451 29.5406 29.3717 29.5539 29.3851C31.0739 30.4917 32.1273 31.9717 32.1273 33.9317V35.9317C32.1273 36.3984 32.0339 36.8517 31.8873 37.2651H38.7939C39.5273 37.2651 40.1273 36.6651 40.1273 35.9317V33.9317C40.1273 30.8251 33.9006 29.2651 30.7939 29.2651Z" fill="#420098"/>
</g>
<defs>
<clipPath id="clip0_1278_5264">
<rect width="32" height="32" fill="white" transform="translate(9.46094 11.9316)"/>
</clipPath>
</defs>
</svg>
