<svg width="30" height="30" viewBox="0 0 30 30" fill="none" xmlns="http://www.w3.org/2000/svg">
<path d="M13.5938 15V5.625C13.5938 5.25204 13.7419 4.89435 14.0056 4.63063C14.2694 4.36691 14.627 4.21875 15 4.21875C15.373 4.21875 15.7306 4.36691 15.9944 4.63063C16.2581 4.89435 16.4062 5.25204 16.4062 5.625V15C16.4062 15.373 16.2581 15.7306 15.9944 15.9944C15.7306 16.2581 15.373 16.4062 15 16.4062C14.627 16.4062 14.2694 16.2581 14.0056 15.9944C13.7419 15.7306 13.5938 15.373 13.5938 15ZM21.3926 5.39062C21.0803 5.19836 20.7053 5.13567 20.3475 5.21592C19.9897 5.29618 19.6774 5.51303 19.4771 5.82025C19.2769 6.12747 19.2046 6.50075 19.2757 6.8605C19.3467 7.22026 19.5554 7.53804 19.8574 7.74609C22.4309 9.41836 23.9062 12.0703 23.9062 15C23.9062 17.3621 22.9679 19.6274 21.2977 21.2977C19.6274 22.9679 17.3621 23.9062 15 23.9062C12.6379 23.9062 10.3726 22.9679 8.70233 21.2977C7.03208 19.6274 6.09375 17.3621 6.09375 15C6.09375 12.0703 7.56914 9.41836 10.1426 7.74023C10.4285 7.52596 10.6221 7.21089 10.6841 6.85902C10.7461 6.50716 10.6719 6.14488 10.4765 5.84578C10.281 5.54667 9.97908 5.33317 9.63194 5.24863C9.28479 5.16409 8.91849 5.21486 8.60742 5.39062C5.22187 7.59141 3.28125 11.0965 3.28125 15C3.28125 18.108 4.5159 21.0887 6.71359 23.2864C8.91128 25.4841 11.892 26.7188 15 26.7188C18.108 26.7188 21.0887 25.4841 23.2864 23.2864C25.4841 21.0887 26.7188 18.108 26.7188 15C26.7188 11.0965 24.7781 7.59141 21.3926 5.39062Z" fill="white"/>
</svg>
