<svg width="30" height="31" viewBox="0 0 30 31" fill="black" xmlns="http://www.w3.org/2000/svg">
<path d="M27.6667 30.5L17.1667 20C16.3333 20.6667 15.375 21.1944 14.2917 21.5833C13.2083 21.9722 12.0556 22.1667 10.8333 22.1667C7.80556 22.1667 5.24306 21.1181 3.14583 19.0208C1.04861 16.9236 0 14.3611 0 11.3333C0 8.30556 1.04861 5.74306 3.14583 3.64583C5.24306 1.54861 7.80556 0.5 10.8333 0.5C13.8611 0.5 16.4236 1.54861 18.5208 3.64583C20.6181 5.74306 21.6667 8.30556 21.6667 11.3333C21.6667 12.5556 21.4722 13.7083 21.0833 14.7917C20.6944 15.875 20.1667 16.8333 19.5 17.6667L30 28.1667L27.6667 30.5ZM10.8333 18.8333C12.9167 18.8333 14.6875 18.1042 16.1458 16.6458C17.6042 15.1875 18.3333 13.4167 18.3333 11.3333C18.3333 9.25 17.6042 7.47917 16.1458 6.02083C14.6875 4.5625 12.9167 3.83333 10.8333 3.83333C8.75 3.83333 6.97917 4.5625 5.52083 6.02083C4.0625 7.47917 3.33333 9.25 3.33333 11.3333C3.33333 13.4167 4.0625 15.1875 5.52083 16.6458C6.97917 18.1042 8.75 18.8333 10.8333 18.8333Z" fill="#1C1B1F"/>
</svg>
