<svg width="32" height="32" viewBox="0 0 32 32" fill="none" xmlns="http://www.w3.org/2000/svg">
<path d="M8.4996 12.7575V5C8.4996 4.60218 8.34157 4.22064 8.06026 3.93934C7.77896 3.65804 7.39743 3.5 6.9996 3.5C6.60178 3.5 6.22025 3.65804 5.93894 3.93934C5.65764 4.22064 5.4996 4.60218 5.4996 5V12.7575C4.62234 13.0677 3.86283 13.6423 3.32564 14.4021C2.78845 15.1619 2.5 16.0695 2.5 17C2.5 17.9305 2.78845 18.8381 3.32564 19.5979C3.86283 20.3577 4.62234 20.9323 5.4996 21.2425V27C5.4996 27.3978 5.65764 27.7794 5.93894 28.0607C6.22025 28.342 6.60178 28.5 6.9996 28.5C7.39743 28.5 7.77896 28.342 8.06026 28.0607C8.34157 27.7794 8.4996 27.3978 8.4996 27V21.2425C9.37686 20.9323 10.1364 20.3577 10.6736 19.5979C11.2108 18.8381 11.4992 17.9305 11.4992 17C11.4992 16.0695 11.2108 15.1619 10.6736 14.4021C10.1364 13.6423 9.37686 13.0677 8.4996 12.7575ZM6.9996 18.5C6.70293 18.5 6.41292 18.412 6.16625 18.2472C5.91957 18.0824 5.72731 17.8481 5.61378 17.574C5.50025 17.2999 5.47055 16.9983 5.52842 16.7074C5.5863 16.4164 5.72916 16.1491 5.93894 15.9393C6.14872 15.7296 6.41599 15.5867 6.70697 15.5288C6.99794 15.4709 7.29954 15.5006 7.57363 15.6142C7.84772 15.7277 8.08198 15.92 8.24681 16.1666C8.41163 16.4133 8.4996 16.7033 8.4996 17C8.4996 17.3978 8.34157 17.7794 8.06026 18.0607C7.77896 18.342 7.39743 18.5 6.9996 18.5ZM20.4996 11C20.4983 10.0698 20.2093 9.16268 19.6722 8.40314C19.1351 7.6436 18.3762 7.06879 17.4996 6.7575V5C17.4996 4.60218 17.3416 4.22064 17.0603 3.93934C16.779 3.65804 16.3974 3.5 15.9996 3.5C15.6018 3.5 15.2202 3.65804 14.9389 3.93934C14.6576 4.22064 14.4996 4.60218 14.4996 5V6.7575C13.6223 7.06775 12.8628 7.64232 12.3256 8.4021C11.7885 9.16187 11.5 10.0695 11.5 11C11.5 11.9305 11.7885 12.8381 12.3256 13.5979C12.8628 14.3577 13.6223 14.9323 14.4996 15.2425V27C14.4996 27.3978 14.6576 27.7794 14.9389 28.0607C15.2202 28.342 15.6018 28.5 15.9996 28.5C16.3974 28.5 16.779 28.342 17.0603 28.0607C17.3416 27.7794 17.4996 27.3978 17.4996 27V15.2425C18.3762 14.9312 19.1351 14.3564 19.6722 13.5969C20.2093 12.8373 20.4983 11.9302 20.4996 11ZM15.9996 12.5C15.7029 12.5 15.4129 12.412 15.1662 12.2472C14.9196 12.0824 14.7273 11.8481 14.6138 11.574C14.5003 11.2999 14.4705 10.9983 14.5284 10.7074C14.5863 10.4164 14.7292 10.1491 14.9389 9.93934C15.1487 9.72956 15.416 9.5867 15.707 9.52882C15.9979 9.47094 16.2995 9.50065 16.5736 9.61418C16.8477 9.72771 17.082 9.91997 17.2468 10.1666C17.4116 10.4133 17.4996 10.7033 17.4996 11C17.4996 11.3978 17.3416 11.7794 17.0603 12.0607C16.779 12.342 16.3974 12.5 15.9996 12.5ZM29.4996 21C29.4983 20.0698 29.2093 19.1627 28.6722 18.4031C28.1351 17.6436 27.3762 17.0688 26.4996 16.7575V5C26.4996 4.60218 26.3416 4.22064 26.0603 3.93934C25.779 3.65804 25.3974 3.5 24.9996 3.5C24.6018 3.5 24.2202 3.65804 23.9389 3.93934C23.6576 4.22064 23.4996 4.60218 23.4996 5V16.7575C22.6223 17.0677 21.8628 17.6423 21.3256 18.4021C20.7885 19.1619 20.5 20.0695 20.5 21C20.5 21.9305 20.7885 22.8381 21.3256 23.5979C21.8628 24.3577 22.6223 24.9323 23.4996 25.2425V27C23.4996 27.3978 23.6576 27.7794 23.9389 28.0607C24.2202 28.342 24.6018 28.5 24.9996 28.5C25.3974 28.5 25.779 28.342 26.0603 28.0607C26.3416 27.7794 26.4996 27.3978 26.4996 27V25.2425C27.3762 24.9312 28.1351 24.3564 28.6722 23.5969C29.2093 22.8373 29.4983 21.9302 29.4996 21ZM24.9996 22.5C24.7029 22.5 24.4129 22.412 24.1662 22.2472C23.9196 22.0824 23.7273 21.8481 23.6138 21.574C23.5003 21.2999 23.4705 20.9983 23.5284 20.7074C23.5863 20.4164 23.7292 20.1491 23.9389 19.9393C24.1487 19.7296 24.416 19.5867 24.707 19.5288C24.9979 19.4709 25.2995 19.5007 25.5736 19.6142C25.8477 19.7277 26.082 19.92 26.2468 20.1666C26.4116 20.4133 26.4996 20.7033 26.4996 21C26.4996 21.3978 26.3416 21.7794 26.0603 22.0607C25.779 22.342 25.3974 22.5 24.9996 22.5Z" fill="black"/>
</svg>
