<svg width="51" height="55" viewBox="0 0 51 55" fill="white" xmlns="http://www.w3.org/2000/svg">
<ellipse cx="25.4609" cy="27.5029" rx="25" ry="27" fill="#F8F9F8"/>
<g clip-path="url(#clip0_1278_5289)">
<path d="M35.101 31.8497L31.7143 31.463C30.901 31.3697 30.101 31.6497 29.5277 32.223L27.0743 34.6764C23.301 32.7564 20.2077 29.6764 18.2877 25.8897L20.7543 23.423C21.3277 22.8497 21.6077 22.0497 21.5143 21.2364L21.1277 17.8764C20.9677 16.5297 19.8343 15.5164 18.4743 15.5164H16.1677C14.661 15.5164 13.4077 16.7697 13.501 18.2764C14.2077 29.663 23.3143 38.7564 34.6877 39.463C36.1943 39.5564 37.4477 38.303 37.4477 36.7964V34.4897C37.461 33.143 36.4477 32.0097 35.101 31.8497Z" fill="#999999"/>
</g>
<defs>
<clipPath id="clip0_1278_5289">
<rect width="32" height="32" fill="white" transform="translate(9.46094 11.5029)"/>
</clipPath>
</defs>
</svg>
