<svg width="418" height="708" viewBox="0 0 418 708" fill="none" xmlns="http://www.w3.org/2000/svg">
<g clip-path="url(#clip0_259_1035)" filter="url(#filter0_d_259_1035)">
<rect x="4" width="410" height="700" rx="20" fill="white"/>
<path d="M33.8839 96H29.2248L39.6935 66.9091H44.7646L55.2333 96H50.5742L42.3498 72.1932H42.1225L33.8839 96ZM34.6651 84.608H49.7788V88.3011H34.6651V84.608ZM59.0934 104.182V74.1818H63.2411V77.7188H63.5962C63.8424 77.2642 64.1976 76.7386 64.6616 76.142C65.1256 75.5455 65.7695 75.0246 66.5934 74.5795C67.4173 74.125 68.5063 73.8977 69.8604 73.8977C71.6218 73.8977 73.1938 74.3428 74.5763 75.233C75.9589 76.1231 77.0432 77.4062 77.8292 79.0824C78.6246 80.7585 79.0224 82.7756 79.0224 85.1335C79.0224 87.4915 78.6294 89.5133 77.8434 91.1989C77.0574 92.875 75.9779 94.1676 74.6048 95.0767C73.2317 95.9763 71.6644 96.4261 69.9031 96.4261C68.5773 96.4261 67.493 96.2036 66.6502 95.7585C65.8169 95.3134 65.1635 94.7926 64.69 94.196C64.2165 93.5994 63.8519 93.0691 63.5962 92.6051H63.3406V104.182H59.0934ZM63.2553 85.0909C63.2553 86.625 63.4779 87.9697 63.9229 89.125C64.368 90.2803 65.012 91.1847 65.8548 91.8381C66.6976 92.482 67.7298 92.804 68.9513 92.804C70.2203 92.804 71.2809 92.4678 72.1332 91.7955C72.9854 91.1136 73.6294 90.1903 74.065 89.0256C74.5101 87.8608 74.7326 86.5492 74.7326 85.0909C74.7326 83.6515 74.5148 82.3589 74.0792 81.2131C73.6531 80.0672 73.0091 79.1629 72.1474 78.5C71.2951 77.8371 70.2298 77.5057 68.9513 77.5057C67.7203 77.5057 66.6786 77.8229 65.8263 78.4574C64.9835 79.0919 64.3443 79.9773 63.9087 81.1136C63.4731 82.25 63.2553 83.5758 63.2553 85.0909ZM83.7809 104.182V74.1818H87.9286V77.7188H88.2837C88.5299 77.2642 88.8851 76.7386 89.3491 76.142C89.8131 75.5455 90.457 75.0246 91.2809 74.5795C92.1048 74.125 93.1938 73.8977 94.5479 73.8977C96.3093 73.8977 97.8813 74.3428 99.2638 75.233C100.646 76.1231 101.731 77.4062 102.517 79.0824C103.312 80.7585 103.71 82.7756 103.71 85.1335C103.71 87.4915 103.317 89.5133 102.531 91.1989C101.745 92.875 100.665 94.1676 99.2923 95.0767C97.9192 95.9763 96.3519 96.4261 94.5906 96.4261C93.2648 96.4261 92.1805 96.2036 91.3377 95.7585C90.5044 95.3134 89.851 94.7926 89.3775 94.196C88.904 93.5994 88.5394 93.0691 88.2837 92.6051H88.0281V104.182H83.7809ZM87.9428 85.0909C87.9428 86.625 88.1654 87.9697 88.6104 89.125C89.0555 90.2803 89.6995 91.1847 90.5423 91.8381C91.3851 92.482 92.4173 92.804 93.6388 92.804C94.9078 92.804 95.9684 92.4678 96.8207 91.7955C97.6729 91.1136 98.3169 90.1903 98.7525 89.0256C99.1976 87.8608 99.4201 86.5492 99.4201 85.0909C99.4201 83.6515 99.2023 82.3589 98.7667 81.2131C98.3406 80.0672 97.6966 79.1629 96.8349 78.5C95.9826 77.8371 94.9173 77.5057 93.6388 77.5057C92.4078 77.5057 91.3661 77.8229 90.5138 78.4574C89.671 79.0919 89.0318 79.9773 88.5962 81.1136C88.1606 82.25 87.9428 83.5758 87.9428 85.0909ZM112.716 66.9091V96H108.468V66.9091H112.716ZM121.114 104.182C120.48 104.182 119.902 104.13 119.381 104.026C118.86 103.931 118.472 103.827 118.216 103.713L119.239 100.233C120.016 100.441 120.707 100.531 121.313 100.503C121.919 100.474 122.454 100.247 122.918 99.821C123.391 99.3949 123.808 98.6989 124.168 97.733L124.694 96.2841L116.711 74.1818H121.256L126.782 91.1136H127.009L132.534 74.1818H137.094L128.103 98.9119C127.686 100.048 127.156 101.009 126.512 101.795C125.868 102.591 125.101 103.188 124.211 103.585C123.32 103.983 122.288 104.182 121.114 104.182ZM161.856 74.1818V77.5909H149.939V74.1818H161.856ZM153.135 68.9545H157.382V89.5938C157.382 90.4176 157.505 91.0379 157.751 91.4545C157.997 91.8617 158.315 92.1411 158.703 92.2926C159.1 92.4347 159.531 92.5057 159.995 92.5057C160.336 92.5057 160.635 92.482 160.89 92.4347C161.146 92.3873 161.345 92.3494 161.487 92.321L162.254 95.8295C162.008 95.9242 161.657 96.0189 161.203 96.1136C160.748 96.2178 160.18 96.2746 159.498 96.2841C158.381 96.303 157.339 96.1042 156.373 95.6875C155.407 95.2708 154.626 94.6269 154.029 93.7557C153.433 92.8845 153.135 91.7907 153.135 90.4744V68.9545ZM175.51 96.4403C173.465 96.4403 171.68 95.9716 170.155 95.0341C168.631 94.0966 167.447 92.785 166.604 91.0994C165.761 89.4138 165.34 87.4441 165.34 85.1903C165.34 82.9271 165.761 80.9479 166.604 79.2528C167.447 77.5578 168.631 76.2415 170.155 75.304C171.68 74.3665 173.465 73.8977 175.51 73.8977C177.556 73.8977 179.341 74.3665 180.865 75.304C182.39 76.2415 183.574 77.5578 184.417 79.2528C185.259 80.9479 185.681 82.9271 185.681 85.1903C185.681 87.4441 185.259 89.4138 184.417 91.0994C183.574 92.785 182.39 94.0966 180.865 95.0341C179.341 95.9716 177.556 96.4403 175.51 96.4403ZM175.525 92.875C176.85 92.875 177.949 92.5246 178.82 91.8239C179.691 91.1231 180.335 90.1903 180.752 89.0256C181.178 87.8608 181.391 86.5777 181.391 85.1761C181.391 83.7841 181.178 82.5057 180.752 81.3409C180.335 80.1667 179.691 79.2244 178.82 78.5142C177.949 77.804 176.85 77.4489 175.525 77.4489C174.189 77.4489 173.081 77.804 172.201 78.5142C171.329 79.2244 170.681 80.1667 170.255 81.3409C169.838 82.5057 169.63 83.7841 169.63 85.1761C169.63 86.5777 169.838 87.8608 170.255 89.0256C170.681 90.1903 171.329 91.1231 172.201 91.8239C173.081 92.5246 174.189 92.875 175.525 92.875ZM211.192 74.1818V77.5909H199.275V74.1818H211.192ZM202.471 68.9545H206.718V89.5938C206.718 90.4176 206.841 91.0379 207.087 91.4545C207.333 91.8617 207.65 92.1411 208.039 92.2926C208.436 92.4347 208.867 92.5057 209.331 92.5057C209.672 92.5057 209.971 92.482 210.226 92.4347C210.482 92.3873 210.681 92.3494 210.823 92.321L211.59 95.8295C211.344 95.9242 210.993 96.0189 210.539 96.1136C210.084 96.2178 209.516 96.2746 208.834 96.2841C207.717 96.303 206.675 96.1042 205.709 95.6875C204.743 95.2708 203.962 94.6269 203.365 93.7557C202.769 92.8845 202.471 91.7907 202.471 90.4744V68.9545ZM220.606 83.0455V96H216.359V66.9091H220.549V77.733H220.819C221.331 76.5587 222.112 75.6259 223.163 74.9347C224.214 74.2434 225.587 73.8977 227.282 73.8977C228.779 73.8977 230.085 74.2055 231.203 74.821C232.33 75.4366 233.201 76.3551 233.816 77.5767C234.441 78.7888 234.754 80.304 234.754 82.1222V96H230.507V82.6335C230.507 81.0331 230.095 79.7926 229.271 78.9119C228.447 78.0218 227.301 77.5767 225.833 77.5767C224.83 77.5767 223.93 77.7898 223.135 78.2159C222.349 78.642 221.728 79.267 221.274 80.0909C220.829 80.9053 220.606 81.8902 220.606 83.0455ZM249.825 96.4403C247.675 96.4403 245.824 95.9811 244.271 95.0625C242.727 94.1345 241.534 92.8324 240.691 91.1562C239.858 89.4706 239.441 87.4962 239.441 85.233C239.441 82.9981 239.858 81.0284 240.691 79.3239C241.534 77.6193 242.708 76.2888 244.214 75.3324C245.729 74.3759 247.5 73.8977 249.527 73.8977C250.758 73.8977 251.951 74.1013 253.106 74.5085C254.261 74.9157 255.298 75.5549 256.217 76.4261C257.136 77.2973 257.86 78.429 258.39 79.821C258.921 81.2036 259.186 82.8845 259.186 84.8636V86.3693H241.842V83.1875H255.024C255.024 82.0701 254.797 81.0805 254.342 80.2188C253.887 79.3475 253.248 78.661 252.424 78.1591C251.61 77.6572 250.654 77.4062 249.555 77.4062C248.362 77.4062 247.32 77.6998 246.43 78.2869C245.549 78.8646 244.868 79.6222 244.385 80.5597C243.911 81.4877 243.674 82.4962 243.674 83.5852V86.071C243.674 87.5294 243.93 88.7699 244.441 89.7926C244.962 90.8153 245.687 91.5966 246.615 92.1364C247.543 92.6667 248.627 92.9318 249.868 92.9318C250.672 92.9318 251.406 92.8182 252.069 92.5909C252.732 92.3542 253.305 92.0038 253.788 91.5398C254.271 91.0758 254.64 90.5028 254.896 89.821L258.916 90.5455C258.594 91.7292 258.016 92.7661 257.183 93.6562C256.359 94.5369 255.322 95.2235 254.072 95.7159C252.832 96.1989 251.416 96.4403 249.825 96.4403ZM274.484 74.1818H278.731V97.4205C278.731 98.8788 278.466 100.11 277.936 101.114C277.415 102.117 276.638 102.88 275.606 103.401C274.583 103.921 273.319 104.182 271.814 104.182C271.662 104.182 271.52 104.182 271.387 104.182C271.245 104.182 271.099 104.177 270.947 104.168V100.517C271.08 100.517 271.198 100.517 271.302 100.517C271.397 100.517 271.506 100.517 271.629 100.517C272.633 100.517 273.357 100.247 273.802 99.7074C274.257 99.1771 274.484 98.4053 274.484 97.392V74.1818ZM276.586 70.8153C275.848 70.8153 275.213 70.5691 274.683 70.0767C274.162 69.5748 273.902 68.9782 273.902 68.2869C273.902 67.5862 274.162 66.9896 274.683 66.4972C275.213 65.9953 275.848 65.7443 276.586 65.7443C277.325 65.7443 277.955 65.9953 278.475 66.4972C279.006 66.9896 279.271 67.5862 279.271 68.2869C279.271 68.9782 279.006 69.5748 278.475 70.0767C277.955 70.5691 277.325 70.8153 276.586 70.8153ZM293.635 96.4403C291.59 96.4403 289.805 95.9716 288.28 95.0341C286.756 94.0966 285.572 92.785 284.729 91.0994C283.886 89.4138 283.465 87.4441 283.465 85.1903C283.465 82.9271 283.886 80.9479 284.729 79.2528C285.572 77.5578 286.756 76.2415 288.28 75.304C289.805 74.3665 291.59 73.8977 293.635 73.8977C295.681 73.8977 297.466 74.3665 298.99 75.304C300.515 76.2415 301.699 77.5578 302.542 79.2528C303.384 80.9479 303.806 82.9271 303.806 85.1903C303.806 87.4441 303.384 89.4138 302.542 91.0994C301.699 92.785 300.515 94.0966 298.99 95.0341C297.466 95.9716 295.681 96.4403 293.635 96.4403ZM293.65 92.875C294.975 92.875 296.074 92.5246 296.945 91.8239C297.816 91.1231 298.46 90.1903 298.877 89.0256C299.303 87.8608 299.516 86.5777 299.516 85.1761C299.516 83.7841 299.303 82.5057 298.877 81.3409C298.46 80.1667 297.816 79.2244 296.945 78.5142C296.074 77.804 294.975 77.4489 293.65 77.4489C292.314 77.4489 291.206 77.804 290.326 78.5142C289.454 79.2244 288.806 80.1667 288.38 81.3409C287.963 82.5057 287.755 83.7841 287.755 85.1761C287.755 86.5777 287.963 87.8608 288.38 89.0256C288.806 90.1903 289.454 91.1231 290.326 91.8239C291.206 92.5246 292.314 92.875 293.65 92.875ZM308.887 96V66.9091H313.135V77.7188H313.39C313.636 77.2642 313.992 76.7386 314.456 76.142C314.92 75.5455 315.564 75.0246 316.387 74.5795C317.211 74.125 318.3 73.8977 319.654 73.8977C321.416 73.8977 322.988 74.3428 324.37 75.233C325.753 76.1231 326.837 77.4062 327.623 79.0824C328.419 80.7585 328.816 82.7756 328.816 85.1335C328.816 87.4915 328.423 89.5133 327.637 91.1989C326.851 92.875 325.772 94.1676 324.399 95.0767C323.026 95.9763 321.458 96.4261 319.697 96.4261C318.371 96.4261 317.287 96.2036 316.444 95.7585C315.611 95.3134 314.958 94.7926 314.484 94.196C314.011 93.5994 313.646 93.0691 313.39 92.6051H313.035V96H308.887ZM313.049 85.0909C313.049 86.625 313.272 87.9697 313.717 89.125C314.162 90.2803 314.806 91.1847 315.649 91.8381C316.492 92.482 317.524 92.804 318.745 92.804C320.014 92.804 321.075 92.4678 321.927 91.7955C322.779 91.1136 323.423 90.1903 323.859 89.0256C324.304 87.8608 324.527 86.5492 324.527 85.0909C324.527 83.6515 324.309 82.3589 323.873 81.2131C323.447 80.0672 322.803 79.1629 321.941 78.5C321.089 77.8371 320.024 77.5057 318.745 77.5057C317.514 77.5057 316.473 77.8229 315.62 78.4574C314.778 79.0919 314.138 79.9773 313.703 81.1136C313.267 82.25 313.049 83.5758 313.049 85.0909ZM353.362 96.4403C351.316 96.4403 349.531 95.9716 348.007 95.0341C346.482 94.0966 345.298 92.785 344.456 91.0994C343.613 89.4138 343.191 87.4441 343.191 85.1903C343.191 82.9271 343.613 80.9479 344.456 79.2528C345.298 77.5578 346.482 76.2415 348.007 75.304C349.531 74.3665 351.316 73.8977 353.362 73.8977C355.407 73.8977 357.192 74.3665 358.717 75.304C360.242 76.2415 361.425 77.5578 362.268 79.2528C363.111 80.9479 363.532 82.9271 363.532 85.1903C363.532 87.4441 363.111 89.4138 362.268 91.0994C361.425 92.785 360.242 94.0966 358.717 95.0341C357.192 95.9716 355.407 96.4403 353.362 96.4403ZM353.376 92.875C354.702 92.875 355.8 92.5246 356.672 91.8239C357.543 91.1231 358.187 90.1903 358.603 89.0256C359.029 87.8608 359.243 86.5777 359.243 85.1761C359.243 83.7841 359.029 82.5057 358.603 81.3409C358.187 80.1667 357.543 79.2244 356.672 78.5142C355.8 77.804 354.702 77.4489 353.376 77.4489C352.041 77.4489 350.933 77.804 350.052 78.5142C349.181 79.2244 348.532 80.1667 348.106 81.3409C347.69 82.5057 347.481 83.7841 347.481 85.1761C347.481 86.5777 347.69 87.8608 348.106 89.0256C348.532 90.1903 349.181 91.1231 350.052 91.8239C350.933 92.5246 352.041 92.875 353.376 92.875ZM378.657 74.1818V77.5909H366.327V74.1818H378.657ZM369.708 96V71.6534C369.708 70.2898 370.006 69.1581 370.603 68.2585C371.199 67.3494 371.99 66.6723 372.975 66.2273C373.96 65.7727 375.03 65.5455 376.185 65.5455C377.037 65.5455 377.766 65.6165 378.373 65.7585C378.979 65.8911 379.428 66.0142 379.722 66.1278L378.728 69.5653C378.529 69.5085 378.273 69.4422 377.961 69.3665C377.648 69.2812 377.269 69.2386 376.824 69.2386C375.792 69.2386 375.053 69.4943 374.608 70.0057C374.173 70.517 373.955 71.2557 373.955 72.2216V96H369.708ZM103.673 152.182C103.038 152.182 102.46 152.13 101.94 152.026C101.419 151.931 101.031 151.827 100.775 151.713L101.798 148.233C102.574 148.441 103.265 148.531 103.871 148.503C104.478 148.474 105.013 148.247 105.477 147.821C105.95 147.395 106.367 146.699 106.727 145.733L107.252 144.284L99.2692 122.182H103.815L109.34 139.114H109.567L115.093 122.182H119.653L110.661 146.912C110.245 148.048 109.714 149.009 109.07 149.795C108.426 150.591 107.659 151.188 106.769 151.585C105.879 151.983 104.847 152.182 103.673 152.182ZM132.092 144.44C130.047 144.44 128.262 143.972 126.737 143.034C125.213 142.097 124.029 140.785 123.186 139.099C122.343 137.414 121.922 135.444 121.922 133.19C121.922 130.927 122.343 128.948 123.186 127.253C124.029 125.558 125.213 124.241 126.737 123.304C128.262 122.366 130.047 121.898 132.092 121.898C134.138 121.898 135.923 122.366 137.447 123.304C138.972 124.241 140.156 125.558 140.999 127.253C141.841 128.948 142.263 130.927 142.263 133.19C142.263 135.444 141.841 137.414 140.999 139.099C140.156 140.785 138.972 142.097 137.447 143.034C135.923 143.972 134.138 144.44 132.092 144.44ZM132.107 140.875C133.432 140.875 134.531 140.525 135.402 139.824C136.273 139.123 136.917 138.19 137.334 137.026C137.76 135.861 137.973 134.578 137.973 133.176C137.973 131.784 137.76 130.506 137.334 129.341C136.917 128.167 136.273 127.224 135.402 126.514C134.531 125.804 133.432 125.449 132.107 125.449C130.771 125.449 129.663 125.804 128.783 126.514C127.911 127.224 127.263 128.167 126.837 129.341C126.42 130.506 126.212 131.784 126.212 133.176C126.212 134.578 126.42 135.861 126.837 137.026C127.263 138.19 127.911 139.123 128.783 139.824C129.663 140.525 130.771 140.875 132.107 140.875ZM160.825 134.952V122.182H165.086V144H160.91V140.222H160.683C160.181 141.386 159.376 142.357 158.268 143.134C157.169 143.901 155.801 144.284 154.163 144.284C152.761 144.284 151.521 143.976 150.441 143.361C149.371 142.736 148.528 141.812 147.913 140.591C147.307 139.369 147.004 137.859 147.004 136.06V122.182H151.251V135.548C151.251 137.035 151.663 138.219 152.487 139.099C153.31 139.98 154.38 140.42 155.697 140.42C156.492 140.42 157.283 140.222 158.069 139.824C158.864 139.426 159.522 138.825 160.043 138.02C160.574 137.215 160.834 136.192 160.825 134.952ZM170.793 144V122.182H174.898V125.648H175.125C175.523 124.473 176.223 123.55 177.227 122.878C178.241 122.196 179.386 121.855 180.665 121.855C180.93 121.855 181.242 121.865 181.602 121.884C181.972 121.902 182.26 121.926 182.469 121.955V126.017C182.298 125.97 181.995 125.918 181.56 125.861C181.124 125.795 180.688 125.761 180.253 125.761C179.249 125.761 178.354 125.974 177.568 126.401C176.792 126.817 176.176 127.4 175.722 128.148C175.267 128.886 175.04 129.729 175.04 130.676V144H170.793ZM205.92 144.44C203.809 144.44 201.991 143.962 200.466 143.006C198.951 142.04 197.786 140.709 196.972 139.014C196.157 137.319 195.75 135.378 195.75 133.19C195.75 130.974 196.167 129.019 197 127.324C197.833 125.619 199.008 124.289 200.523 123.332C202.038 122.376 203.823 121.898 205.878 121.898C207.535 121.898 209.012 122.205 210.31 122.821C211.607 123.427 212.653 124.279 213.449 125.378C214.254 126.476 214.732 127.759 214.884 129.227H210.75C210.523 128.205 210.002 127.324 209.188 126.585C208.383 125.847 207.303 125.477 205.949 125.477C204.765 125.477 203.728 125.79 202.838 126.415C201.957 127.03 201.271 127.911 200.778 129.057C200.286 130.193 200.04 131.538 200.04 133.091C200.04 134.682 200.281 136.055 200.764 137.21C201.247 138.366 201.929 139.26 202.81 139.895C203.7 140.529 204.746 140.847 205.949 140.847C206.754 140.847 207.483 140.7 208.136 140.406C208.799 140.103 209.353 139.672 209.798 139.114C210.253 138.555 210.57 137.883 210.75 137.097H214.884C214.732 138.508 214.273 139.767 213.506 140.875C212.739 141.983 211.711 142.854 210.423 143.489C209.145 144.123 207.644 144.44 205.92 144.44ZM223.673 131.045V144H219.425V114.909H223.616V125.733H223.886C224.397 124.559 225.178 123.626 226.229 122.935C227.281 122.243 228.654 121.898 230.349 121.898C231.845 121.898 233.152 122.205 234.269 122.821C235.396 123.437 236.267 124.355 236.883 125.577C237.508 126.789 237.82 128.304 237.82 130.122V144H233.573V130.634C233.573 129.033 233.161 127.793 232.337 126.912C231.513 126.022 230.368 125.577 228.9 125.577C227.896 125.577 226.996 125.79 226.201 126.216C225.415 126.642 224.795 127.267 224.34 128.091C223.895 128.905 223.673 129.89 223.673 131.045ZM252.678 144.44C250.633 144.44 248.848 143.972 247.323 143.034C245.799 142.097 244.615 140.785 243.772 139.099C242.929 137.414 242.508 135.444 242.508 133.19C242.508 130.927 242.929 128.948 243.772 127.253C244.615 125.558 245.799 124.241 247.323 123.304C248.848 122.366 250.633 121.898 252.678 121.898C254.724 121.898 256.509 122.366 258.033 123.304C259.558 124.241 260.742 125.558 261.585 127.253C262.427 128.948 262.849 130.927 262.849 133.19C262.849 135.444 262.427 137.414 261.585 139.099C260.742 140.785 259.558 142.097 258.033 143.034C256.509 143.972 254.724 144.44 252.678 144.44ZM252.692 140.875C254.018 140.875 255.117 140.525 255.988 139.824C256.859 139.123 257.503 138.19 257.92 137.026C258.346 135.861 258.559 134.578 258.559 133.176C258.559 131.784 258.346 130.506 257.92 129.341C257.503 128.167 256.859 127.224 255.988 126.514C255.117 125.804 254.018 125.449 252.692 125.449C251.357 125.449 250.249 125.804 249.369 126.514C248.497 127.224 247.849 128.167 247.423 129.341C247.006 130.506 246.798 131.784 246.798 133.176C246.798 134.578 247.006 135.861 247.423 137.026C247.849 138.19 248.497 139.123 249.369 139.824C250.249 140.525 251.357 140.875 252.692 140.875ZM267.589 144V122.182H271.837V144H267.589ZM269.734 118.815C268.996 118.815 268.361 118.569 267.831 118.077C267.31 117.575 267.05 116.978 267.05 116.287C267.05 115.586 267.31 114.99 267.831 114.497C268.361 113.995 268.996 113.744 269.734 113.744C270.473 113.744 271.103 113.995 271.624 114.497C272.154 114.99 272.419 115.586 272.419 116.287C272.419 116.978 272.154 117.575 271.624 118.077C271.103 118.569 270.473 118.815 269.734 118.815ZM286.741 144.44C284.629 144.44 282.811 143.962 281.286 143.006C279.771 142.04 278.606 140.709 277.792 139.014C276.978 137.319 276.57 135.378 276.57 133.19C276.57 130.974 276.987 129.019 277.82 127.324C278.654 125.619 279.828 124.289 281.343 123.332C282.858 122.376 284.643 121.898 286.698 121.898C288.355 121.898 289.833 122.205 291.13 122.821C292.427 123.427 293.474 124.279 294.269 125.378C295.074 126.476 295.552 127.759 295.704 129.227H291.57C291.343 128.205 290.822 127.324 290.008 126.585C289.203 125.847 288.123 125.477 286.769 125.477C285.585 125.477 284.549 125.79 283.658 126.415C282.778 127.03 282.091 127.911 281.599 129.057C281.106 130.193 280.86 131.538 280.86 133.091C280.86 134.682 281.102 136.055 281.585 137.21C282.067 138.366 282.749 139.26 283.63 139.895C284.52 140.529 285.567 140.847 286.769 140.847C287.574 140.847 288.303 140.7 288.957 140.406C289.62 140.103 290.174 139.672 290.619 139.114C291.073 138.555 291.39 137.883 291.57 137.097H295.704C295.552 138.508 295.093 139.767 294.326 140.875C293.559 141.983 292.531 142.854 291.244 143.489C289.965 144.123 288.464 144.44 286.741 144.44ZM309.649 144.44C307.5 144.44 305.648 143.981 304.095 143.062C302.552 142.134 301.358 140.832 300.516 139.156C299.682 137.471 299.266 135.496 299.266 133.233C299.266 130.998 299.682 129.028 300.516 127.324C301.358 125.619 302.533 124.289 304.038 123.332C305.554 122.376 307.324 121.898 309.351 121.898C310.582 121.898 311.775 122.101 312.93 122.509C314.086 122.916 315.123 123.555 316.041 124.426C316.96 125.297 317.684 126.429 318.214 127.821C318.745 129.204 319.01 130.884 319.01 132.864V134.369H301.666V131.188H314.848C314.848 130.07 314.621 129.08 314.166 128.219C313.712 127.348 313.072 126.661 312.249 126.159C311.434 125.657 310.478 125.406 309.379 125.406C308.186 125.406 307.144 125.7 306.254 126.287C305.374 126.865 304.692 127.622 304.209 128.56C303.735 129.488 303.499 130.496 303.499 131.585V134.071C303.499 135.529 303.754 136.77 304.266 137.793C304.786 138.815 305.511 139.597 306.439 140.136C307.367 140.667 308.451 140.932 309.692 140.932C310.497 140.932 311.231 140.818 311.893 140.591C312.556 140.354 313.129 140.004 313.612 139.54C314.095 139.076 314.464 138.503 314.72 137.821L318.74 138.545C318.418 139.729 317.84 140.766 317.007 141.656C316.183 142.537 315.146 143.223 313.896 143.716C312.656 144.199 311.24 144.44 309.649 144.44Z" fill="#0F0E32"/>
<rect x="28" y="243" width="363" height="475" rx="10" fill="#EEF3F1"/>
</g>
<defs>
<filter id="filter0_d_259_1035" x="0" y="0" width="418" height="708" filterUnits="userSpaceOnUse" color-interpolation-filters="sRGB">
<feFlood flood-opacity="0" result="BackgroundImageFix"/>
<feColorMatrix in="SourceAlpha" type="matrix" values="0 0 0 0 0 0 0 0 0 0 0 0 0 0 0 0 0 0 127 0" result="hardAlpha"/>
<feOffset dy="4"/>
<feGaussianBlur stdDeviation="2"/>
<feComposite in2="hardAlpha" operator="out"/>
<feColorMatrix type="matrix" values="0 0 0 0 0 0 0 0 0 0 0 0 0 0 0 0 0 0 0.25 0"/>
<feBlend mode="normal" in2="BackgroundImageFix" result="effect1_dropShadow_259_1035"/>
<feBlend mode="normal" in="SourceGraphic" in2="effect1_dropShadow_259_1035" result="shape"/>
</filter>
<clipPath id="clip0_259_1035">
<rect width="410" height="700" fill="white" transform="translate(4)"/>
</clipPath>
</defs>
</svg>
