<svg width="49" height="48" viewBox="0 0 49 48" fill="none" xmlns="http://www.w3.org/2000/svg">
<path d="M44.5 7.99805C42.94 8.92405 39.81 10.186 37.97 10.55C37.916 10.564 37.872 10.582 37.82 10.596C36.194 8.99205 33.966 7.99805 31.5 7.99805C26.53 7.99805 22.5 12.028 22.5 16.998C22.5 17.26 22.478 17.742 22.5 17.998C15.794 17.998 10.69 14.486 7.03 9.99805C6.632 10.998 6.458 12.578 6.458 14.062C6.458 16.864 8.648 19.616 12.058 21.322C11.43 21.484 10.738 21.6 10.018 21.6C8.856 21.6 7.626 21.294 6.5 20.366C6.5 20.4 6.5 20.432 6.5 20.468C6.5 24.384 10.656 27.05 14.352 27.792C13.602 28.234 12.09 28.278 11.352 28.278C10.832 28.278 8.992 28.04 8.5 27.948C9.528 31.158 13.236 32.962 16.77 33.026C14.006 35.194 12.088 35.998 6.428 35.998H4.5C8.076 38.29 12.63 40 17.194 40C32.054 40 40.5 28.674 40.5 17.998C40.5 17.826 40.496 17.466 40.49 17.104C40.49 17.068 40.5 17.034 40.5 16.998C40.5 16.944 40.484 16.892 40.484 16.838C40.478 16.566 40.472 16.312 40.466 16.18C42.046 15.04 43.416 13.618 44.5 11.998C43.05 12.642 41.494 13.074 39.86 13.27C41.528 12.27 43.898 9.88605 44.5 7.99805Z" fill="#1D154A"/>
</svg>
