<svg width="26" height="34" viewBox="0 0 26 34" fill="none" xmlns="http://www.w3.org/2000/svg">
<path d="M13 13.6666C16.4992 13.6666 19.3334 10.6833 19.3334 6.99992C19.3334 3.31659 16.4992 0.333252 13 0.333252C9.50085 0.333252 6.66669 3.31659 6.66669 6.99992C6.66669 10.6833 9.50085 13.6666 13 13.6666ZM13 3.66659C14.7417 3.66659 16.1667 5.16659 16.1667 6.99992C16.1667 8.83325 14.7417 10.3333 13 10.3333C11.2584 10.3333 9.83335 8.83325 9.83335 6.99992C9.83335 5.16659 11.2584 3.66659 13 3.66659ZM23.1175 17.9333C20.4575 16.4999 17.0059 15.3333 13 15.3333C8.99419 15.3333 5.54252 16.4999 2.88252 17.9333C2.10995 18.3521 1.46275 18.9881 1.01276 19.7707C0.562777 20.5533 0.327607 21.4518 0.333355 22.3666V33.6666H3.50002V22.3666C3.50002 21.7333 3.81669 21.1666 4.29169 20.8999C6.20752 19.8833 9.24752 18.6666 13 18.6666C14.2034 18.6666 15.3275 18.7833 16.3725 18.9999L13.9184 24.4999H9.43752C7.03085 24.4999 5.08335 26.5499 5.08335 29.0833C5.08335 31.6166 7.03085 33.6666 9.43752 33.6666H22.5C24.2417 33.6666 25.6667 32.1666 25.6667 30.3333V22.3666C25.6667 20.4999 24.7009 18.7833 23.1175 17.9333ZM11.3217 30.3333H9.43752C8.78835 30.3333 8.25002 29.7666 8.25002 29.0833C8.25002 28.3999 8.78835 27.8333 9.43752 27.8333H12.43L11.3217 30.3333ZM22.5 30.3333H14.8209L19.4759 19.8833C20.3309 20.2166 21.075 20.5666 21.7084 20.8999C22.1834 21.1666 22.5 21.7333 22.5 22.3666V30.3333Z" fill="black"/>
</svg>
